<?xml version="1.0" encoding="utf-8"?>
<!-- Generator: Adobe Illustrator 25.0.1, SVG Export Plug-In . SVG Version: 6.00 Build 0)  -->
<svg version="1.1" id="Layer_1" xmlns="http://www.w3.org/2000/svg" xmlns:xlink="http://www.w3.org/1999/xlink" x="0px" y="0px"
	 viewBox="0 0 150 45" style="enable-background:new 0 0 150 45;" xml:space="preserve">
<style type="text/css">
	.st0{fill:#78BF7D;}
	.st1{fill:none;}
	.st2{fill:#003953;}
</style>
<g>
	<path class="st0" d="M118.31,10.48L118.31,10.48l3.53,10.66l-0.14-8.05C120.57,12.22,119.44,11.35,118.31,10.48z"/>
	<path class="st1" d="M27.23,15.48c0.54,0.42,1.21,0.63,2.01,0.63c0.96,0,1.82-0.22,2.57-0.67c0.75-0.45,1.39-1.03,1.93-1.75
		c0.54-0.72,0.94-1.5,1.2-2.35c0.26-0.85,0.4-1.68,0.4-2.5c0-0.78-0.13-1.51-0.38-2.18c-0.26-0.67-0.65-1.22-1.17-1.62
		c-0.53-0.41-1.21-0.61-2.05-0.61c-0.93,0-1.77,0.22-2.51,0.66c-0.75,0.44-1.38,1.01-1.91,1.72c-0.53,0.71-0.93,1.49-1.22,2.33
		c-0.28,0.85-0.42,1.68-0.42,2.5c0,0.78,0.13,1.52,0.38,2.2C26.3,14.51,26.69,15.06,27.23,15.48z"/>
	<path class="st1" d="M51.44,9.53c0.27-0.16,0.52-0.4,0.75-0.7c0.23-0.3,0.41-0.66,0.55-1.07c0.14-0.41,0.2-0.83,0.2-1.27
		c0-0.42-0.06-0.77-0.18-1.07c-0.12-0.29-0.28-0.52-0.48-0.68c-0.2-0.16-0.42-0.25-0.66-0.25h-3.55l-1.12,5.27h3.69
		C50.9,9.77,51.17,9.69,51.44,9.53z"/>
	<path class="st1" d="M68.22,15.46c0.74-0.38,1.37-0.91,1.91-1.6c0.54-0.68,0.96-1.46,1.26-2.33c0.3-0.87,0.45-1.79,0.45-2.76
		c0-0.86-0.14-1.6-0.42-2.24c-0.28-0.64-0.69-1.13-1.23-1.49c-0.54-0.35-1.2-0.53-1.98-0.53h-2.46l-2.46,11.52h2.43
		C66.65,16.03,67.48,15.84,68.22,15.46z"/>
	<polygon class="st2" points="7.2,8.87 13.02,19.96 16.59,19.96 20.72,0.57 16.21,0.57 13.81,11.96 7.96,0.57 4.5,0.57 0.37,19.96 
		4.85,19.96 	"/>
	<path class="st2" d="M22.96,17.63c0.62,0.76,1.38,1.36,2.29,1.8c0.91,0.45,1.96,0.67,3.14,0.67c1.22,0,2.4-0.21,3.54-0.64
		c1.14-0.43,2.19-1.01,3.17-1.75c0.97-0.74,1.82-1.6,2.54-2.58c0.72-0.98,1.28-2.03,1.68-3.15c0.4-1.12,0.6-2.26,0.6-3.43
		c0-1.06-0.15-2.07-0.46-3.03c-0.31-0.96-0.77-1.83-1.39-2.59c-0.62-0.76-1.38-1.37-2.29-1.82c-0.91-0.45-1.95-0.67-3.11-0.67
		c-1.22,0-2.4,0.21-3.55,0.63c-1.15,0.42-2.21,1-3.18,1.73c-0.97,0.74-1.82,1.6-2.54,2.58c-0.72,0.98-1.28,2.04-1.69,3.17
		c-0.41,1.13-0.61,2.28-0.61,3.44c0,1.06,0.16,2.07,0.48,3.04C21.87,16.01,22.34,16.87,22.96,17.63z M26.08,9.13
		c0.28-0.85,0.69-1.62,1.22-2.33c0.53-0.71,1.16-1.28,1.91-1.72c0.75-0.44,1.58-0.66,2.51-0.66c0.84,0,1.52,0.2,2.05,0.61
		c0.53,0.41,0.92,0.95,1.17,1.62c0.25,0.67,0.38,1.4,0.38,2.18c0,0.82-0.13,1.65-0.4,2.5c-0.26,0.85-0.67,1.63-1.2,2.35
		c-0.54,0.72-1.18,1.3-1.93,1.75c-0.75,0.45-1.6,0.67-2.57,0.67c-0.8,0-1.47-0.21-2.01-0.63c-0.54-0.42-0.93-0.97-1.19-1.65
		c-0.26-0.68-0.38-1.42-0.38-2.2C25.66,10.81,25.8,9.98,26.08,9.13z"/>
	<path class="st2" d="M46.09,13.71h2.54l2.1,6.25h5.08l-2.49-7.21c0.62-0.33,1.19-0.73,1.71-1.22c0.52-0.48,0.97-1.02,1.35-1.62
		c0.38-0.6,0.67-1.23,0.87-1.88c0.2-0.66,0.3-1.32,0.3-1.99c0-0.93-0.19-1.81-0.56-2.64c-0.37-0.83-0.92-1.51-1.64-2.03
		c-0.72-0.53-1.58-0.79-2.58-0.79h-8.36L40.3,19.96h4.48L46.09,13.71z M48.08,4.5h3.55c0.24,0,0.45,0.08,0.66,0.25
		c0.2,0.16,0.36,0.39,0.48,0.68c0.12,0.29,0.18,0.65,0.18,1.07c0,0.44-0.07,0.86-0.2,1.27c-0.14,0.41-0.32,0.76-0.55,1.07
		c-0.23,0.3-0.48,0.53-0.75,0.7c-0.27,0.16-0.54,0.25-0.79,0.25h-3.69L48.08,4.5z"/>
	<path class="st2" d="M69.48,19.07c1.41-0.59,2.64-1.42,3.67-2.47c1.04-1.06,1.84-2.31,2.42-3.76c0.57-1.45,0.86-3.03,0.86-4.74
		c0-1.4-0.27-2.68-0.81-3.82c-0.54-1.15-1.35-2.05-2.44-2.72c-1.09-0.66-2.49-1-4.18-1h-6.91l-4.12,19.39h6.91
		C66.53,19.96,68.07,19.67,69.48,19.07z M65.75,4.5h2.46c0.78,0,1.44,0.18,1.98,0.53c0.54,0.36,0.95,0.85,1.23,1.49
		c0.28,0.64,0.42,1.38,0.42,2.24c0,0.97-0.15,1.88-0.45,2.76c-0.3,0.87-0.72,1.65-1.26,2.33c-0.54,0.68-1.17,1.22-1.91,1.6
		c-0.74,0.38-1.57,0.57-2.5,0.57h-2.43L65.75,4.5z"/>
	<polygon class="st2" points="85.49,0.57 81.02,0.57 76.89,19.96 81.37,19.96 	"/>
	<path class="st2" d="M87.75,17.56c0.63,0.78,1.4,1.4,2.31,1.86c0.91,0.46,1.95,0.68,3.11,0.68c1.02,0,2.08-0.17,3.2-0.51
		c1.11-0.34,2.15-0.84,3.11-1.52c0.96-0.67,1.75-1.5,2.35-2.49l-3.2-2.18c-0.38,0.66-0.83,1.18-1.35,1.57
		c-0.52,0.39-1.06,0.68-1.61,0.86c-0.56,0.18-1.09,0.27-1.6,0.27c-0.8,0-1.47-0.21-2.01-0.63c-0.54-0.42-0.94-0.98-1.22-1.68
		c-0.27-0.7-0.41-1.46-0.41-2.28c0-0.76,0.13-1.56,0.38-2.39c0.25-0.83,0.64-1.6,1.15-2.32c0.51-0.72,1.14-1.3,1.88-1.73
		c0.75-0.44,1.62-0.66,2.62-0.66c0.51,0,1.01,0.08,1.49,0.23c0.48,0.15,0.91,0.42,1.3,0.79c0.38,0.37,0.65,0.91,0.79,1.62l3.88-2.4
		c-0.36-1.24-1.11-2.25-2.23-3.04c-1.12-0.79-2.57-1.19-4.36-1.19c-1.33,0-2.58,0.22-3.76,0.67c-1.17,0.45-2.23,1.05-3.18,1.8
		c-0.95,0.76-1.76,1.62-2.43,2.61c-0.67,0.98-1.19,2.02-1.56,3.11c-0.36,1.09-0.55,2.18-0.55,3.25c0,1.04,0.15,2.05,0.46,3.03
		C86.65,15.89,87.12,16.78,87.75,17.56z"/>
	<path class="st1" d="M47.38,32.89l1.87-0.16c0.41-0.04,0.82-0.08,1.22-0.12c-0.06-0.38-0.16-0.76-0.3-1.11
		c-0.26-0.67-0.65-1.22-1.18-1.62c-0.53-0.41-1.22-0.61-2.06-0.61c-0.93,0-1.77,0.22-2.52,0.66c-0.75,0.44-1.39,1.01-1.92,1.72
		c-0.39,0.53-0.72,1.09-0.98,1.7c0.7-0.05,1.4-0.1,2.1-0.15C44.87,33.08,46.13,33,47.38,32.89z"/>
	<path class="st1" d="M82.5,34.45l-0.66-5.25c-0.19,0.05-0.38,0.11-0.56,0.16c-0.84,0.23-1.69,0.45-2.54,0.66l0.98,9.65L82.5,34.45z
		"/>
	<path class="st1" d="M88.24,27.23c-0.84,0.28-1.67,0.55-2.51,0.82l0.29,3.62L88.24,27.23z"/>
	<path class="st1" d="M66.81,29.34l-0.19,0.89c1.38-0.28,2.76-0.57,4.13-0.89H66.81z"/>
	<path class="st1" d="M41.24,38.67c0.26,0.68,0.65,1.23,1.19,1.65c0.54,0.42,1.21,0.63,2.02,0.63c0.97,0,1.83-0.22,2.58-0.67
		c0.75-0.45,1.39-1.03,1.93-1.75c0.54-0.72,0.94-1.5,1.21-2.35c0.2-0.63,0.32-1.24,0.37-1.86c-0.39,0.03-0.77,0.05-1.16,0.08
		l-1.9,0.1c-1.26,0.07-2.52,0.11-3.78,0.17c-0.88,0.04-1.77,0.07-2.65,0.1c-0.13,0.57-0.2,1.14-0.2,1.7
		C40.85,37.25,40.98,37.99,41.24,38.67z"/>
	<path class="st1" d="M20.84,35.33c-0.06,0.38-0.09,0.76-0.09,1.14c0,0.78,0.13,1.52,0.38,2.2c0.26,0.68,0.65,1.23,1.19,1.65
		c0.54,0.42,1.21,0.63,2.02,0.63c0.97,0,1.83-0.22,2.58-0.67c0.75-0.45,1.39-1.03,1.93-1.75c0.54-0.72,0.94-1.5,1.21-2.35
		c0.11-0.36,0.2-0.71,0.26-1.06c-0.58,0.02-1.16,0.03-1.73,0.05C26,35.24,23.42,35.29,20.84,35.33z"/>
	<path class="st1" d="M30.45,34.06c0.01-0.13,0.01-0.25,0.01-0.38c0-0.78-0.13-1.51-0.38-2.18c-0.26-0.67-0.65-1.22-1.18-1.62
		c-0.53-0.41-1.22-0.61-2.06-0.61c-0.93,0-1.77,0.22-2.52,0.66c-0.75,0.44-1.39,1.01-1.92,1.72c-0.53,0.71-0.94,1.49-1.22,2.33
		c-0.07,0.2-0.13,0.41-0.18,0.61c2.52-0.12,5.04-0.26,7.56-0.4C29.18,34.14,29.81,34.1,30.45,34.06z"/>
	<polygon class="st1" points="124.8,30.52 121.35,37.4 125.3,37.4 	"/>
	<path class="st1" d="M143.48,34.37c0.27-0.16,0.53-0.4,0.75-0.7c0.23-0.3,0.41-0.66,0.55-1.07c0.14-0.41,0.21-0.83,0.21-1.27
		c0-0.42-0.06-0.77-0.18-1.07c-0.12-0.29-0.28-0.52-0.48-0.68c-0.2-0.16-0.42-0.25-0.66-0.25h-3.57l-1.12,5.27h3.7
		C142.94,34.61,143.21,34.53,143.48,34.37z"/>
	<path class="st2" d="M13.97,33.49H7.33l0.91-4.15h8.07l0.85-3.93H4.56l-2.11,9.86c3.74-0.09,7.48-0.21,11.22-0.36L13.97,33.49z"/>
	<path class="st2" d="M0.42,44.8h4.5l1.65-7.62h6.64l0.37-1.77c-3.72,0.03-7.43,0.02-11.15-0.01L0.42,44.8z"/>
	<path class="st2" d="M30.06,36.18c-0.27,0.85-0.67,1.63-1.21,2.35c-0.54,0.72-1.18,1.3-1.93,1.75c-0.75,0.45-1.61,0.67-2.58,0.67
		c-0.8,0-1.48-0.21-2.02-0.63c-0.54-0.42-0.94-0.97-1.19-1.65c-0.26-0.68-0.38-1.42-0.38-2.2c0-0.38,0.03-0.76,0.09-1.14
		c-1.53,0.02-3.06,0.04-4.59,0.06c-0.07,0.48-0.11,0.95-0.11,1.44c0,1.06,0.16,2.07,0.48,3.04c0.32,0.97,0.79,1.84,1.41,2.59
		c0.62,0.76,1.39,1.36,2.3,1.8c0.91,0.45,1.97,0.67,3.15,0.67c1.23,0,2.41-0.21,3.55-0.64c1.14-0.43,2.2-1.01,3.18-1.75
		c0.98-0.74,1.83-1.6,2.55-2.58c0.72-0.98,1.28-2.03,1.69-3.15c0.22-0.6,0.37-1.21,0.47-1.82c-1.54,0.05-3.08,0.09-4.61,0.14
		C30.26,35.47,30.17,35.83,30.06,36.18z"/>
	<path class="st2" d="M18.45,30.22c-0.72,0.98-1.29,2.04-1.7,3.17c-0.17,0.47-0.3,0.94-0.4,1.41c1.55-0.07,3.09-0.14,4.64-0.21
		c0.05-0.2,0.11-0.41,0.18-0.61c0.28-0.85,0.69-1.62,1.22-2.33c0.53-0.71,1.17-1.28,1.92-1.72c0.75-0.44,1.59-0.66,2.52-0.66
		c0.84,0,1.53,0.2,2.06,0.61c0.53,0.41,0.92,0.95,1.18,1.62c0.26,0.67,0.38,1.4,0.38,2.18c0,0.13,0,0.25-0.01,0.38
		c1.54-0.09,3.07-0.19,4.61-0.29c0.01-0.13,0.01-0.26,0.01-0.39c0-1.06-0.16-2.07-0.47-3.03c-0.31-0.96-0.78-1.83-1.4-2.59
		c-0.62-0.76-1.39-1.37-2.3-1.82c-0.91-0.45-1.96-0.67-3.13-0.67c-1.23,0-2.41,0.21-3.57,0.63c-1.15,0.42-2.22,1-3.2,1.73
		C20.03,28.37,19.18,29.23,18.45,30.22z"/>
	<path class="st2" d="M42.5,31.64c0.53-0.71,1.17-1.28,1.92-1.72c0.75-0.44,1.59-0.66,2.52-0.66c0.84,0,1.53,0.2,2.06,0.61
		c0.53,0.41,0.92,0.95,1.18,1.62c0.13,0.35,0.23,0.73,0.3,1.11c0.22-0.02,0.43-0.04,0.65-0.07c1.25-0.12,2.49-0.28,3.74-0.42
		c0.08-0.01,0.15-0.02,0.23-0.03c-0.08-0.6-0.2-1.18-0.38-1.74c-0.31-0.96-0.78-1.83-1.4-2.59c-0.62-0.76-1.39-1.37-2.3-1.82
		c-0.92-0.45-1.96-0.67-3.13-0.67c-1.23,0-2.41,0.21-3.57,0.63c-1.15,0.42-2.22,1-3.2,1.73c-0.98,0.74-1.83,1.6-2.55,2.58
		c-0.72,0.98-1.29,2.04-1.7,3.17c-0.03,0.09-0.06,0.19-0.1,0.28c1.59-0.11,3.17-0.22,4.76-0.33C41.78,32.73,42.11,32.16,42.5,31.64z
		"/>
	<path class="st2" d="M51.27,34.28c-0.25,0.02-0.49,0.03-0.74,0.05c-0.05,0.61-0.17,1.23-0.37,1.86c-0.27,0.85-0.67,1.63-1.21,2.35
		c-0.54,0.72-1.18,1.3-1.93,1.75c-0.75,0.45-1.61,0.67-2.58,0.67c-0.81,0-1.48-0.21-2.02-0.63c-0.54-0.42-0.94-0.97-1.19-1.65
		c-0.26-0.68-0.38-1.42-0.38-2.2c0-0.56,0.07-1.12,0.2-1.7c-1.54,0.06-3.08,0.12-4.62,0.17c-0.12,0.62-0.18,1.25-0.18,1.88
		c0,1.06,0.16,2.07,0.48,3.04c0.32,0.97,0.79,1.84,1.41,2.59c0.62,0.76,1.39,1.36,2.3,1.8c0.91,0.45,1.97,0.67,3.15,0.67
		c1.23,0,2.41-0.21,3.55-0.64c1.14-0.43,2.2-1.01,3.18-1.75c0.98-0.74,1.83-1.6,2.55-2.58c0.72-0.98,1.28-2.03,1.69-3.15
		c0.33-0.93,0.53-1.88,0.58-2.84c-0.03,0-0.06,0.01-0.09,0.01C53.8,34.08,52.54,34.2,51.27,34.28z"/>
	<path class="st2" d="M65.99,30.36c0.21-0.04,0.42-0.09,0.63-0.13l0.19-0.89h3.94c0.56-0.13,1.13-0.26,1.69-0.4l0.74-3.54H57.56
		l-0.85,3.93h5.6l-0.38,1.75c0.12-0.02,0.24-0.04,0.36-0.06C63.53,30.83,64.76,30.58,65.99,30.36z"/>
	<path class="st2" d="M61.46,33.27L58.99,44.8h4.5l2.62-12.2c-1.16,0.18-2.33,0.37-3.49,0.51C62.23,33.17,61.85,33.22,61.46,33.27z"
		/>
	<path class="st2" d="M88.24,27.23l-2.23,4.43l-0.29-3.62c-1.29,0.4-2.58,0.79-3.88,1.15l0.66,5.25l-2.77,5.22l-0.98-9.65
		c-1.47,0.37-2.94,0.71-4.42,1.04L76.6,44.8h3.73l4.47-7.59l1.23,7.59h3.76l11.49-19.39h-4.91l-7.52,14.26l-0.6-5.22l5.02-9.01
		h-0.13c-1.51,0.6-3.03,1.16-4.56,1.68C88.47,27.15,88.35,27.19,88.24,27.23z"/>
	<path class="st2" d="M81.37,25.44l0.12,0.98c0.99-0.32,1.97-0.64,2.95-0.98H81.37z"/>
	<path class="st2" d="M78.27,25.41h-4.88l0.52,3.17c1.53-0.39,3.04-0.8,4.56-1.24L78.27,25.41z"/>
	<polygon class="st2" points="112.24,36.74 113.03,33.11 105.93,33.11 106.72,29.34 115.01,29.34 115.86,25.41 103.05,25.41 
		98.9,44.8 111.96,44.8 112.78,40.87 104.25,40.87 105.13,36.74 	"/>
	<path class="st2" d="M119.82,40.46h5.71l0.32,4.34h4.61l-2.52-19.39h-4.09L113.03,44.8h4.61L119.82,40.46z M124.8,30.52l0.5,6.88
		h-3.95L124.8,30.52z"/>
	<path class="st2" d="M138.1,38.55h2.55l2.11,6.25h5.1l-2.5-7.21c0.62-0.33,1.19-0.73,1.71-1.22c0.52-0.48,0.97-1.02,1.36-1.62
		c0.38-0.6,0.68-1.23,0.88-1.88c0.2-0.66,0.3-1.32,0.3-1.99c0-0.93-0.19-1.81-0.56-2.64c-0.38-0.83-0.92-1.51-1.65-2.03
		c-0.72-0.53-1.59-0.79-2.59-0.79h-8.39l-4.14,19.39h4.5L138.1,38.55z M140.11,29.34h3.57c0.24,0,0.46,0.08,0.66,0.25
		c0.2,0.16,0.36,0.39,0.48,0.68c0.12,0.29,0.18,0.65,0.18,1.07c0,0.44-0.07,0.86-0.21,1.27c-0.14,0.41-0.32,0.76-0.55,1.07
		c-0.23,0.3-0.48,0.53-0.75,0.7c-0.27,0.16-0.54,0.25-0.8,0.25h-3.7L140.11,29.34z"/>
	<path class="st0" d="M47.48,34.5l1.9-0.1c0.39-0.02,0.77-0.05,1.16-0.08c0.02-0.22,0.03-0.43,0.03-0.64c0-0.37-0.03-0.73-0.09-1.07
		c-0.41,0.04-0.82,0.08-1.22,0.12l-1.87,0.16c-1.25,0.11-2.51,0.19-3.76,0.29c-0.7,0.05-1.4,0.1-2.1,0.15
		c-0.09,0.21-0.17,0.42-0.24,0.64c-0.09,0.27-0.16,0.54-0.23,0.8c0.88-0.03,1.77-0.07,2.65-0.1C44.96,34.61,46.22,34.57,47.48,34.5z
		"/>
	<path class="st0" d="M36.43,34.94c0.08-0.43,0.2-0.85,0.34-1.28c-0.57,0.04-1.14,0.08-1.71,0.11c-0.02,0.41-0.06,0.81-0.12,1.21
		C35.43,34.97,35.93,34.96,36.43,34.94z"/>
	<path class="st0" d="M81.28,29.36c0.19-0.05,0.38-0.11,0.56-0.16l-0.35-2.78c-0.33,0.1-0.65,0.21-0.98,0.31
		c-0.68,0.21-1.36,0.41-2.05,0.61l0.27,2.68C79.59,29.8,80.44,29.59,81.28,29.36z"/>
	<path class="st0" d="M28.59,35.17c0.58-0.01,1.16-0.03,1.73-0.05c0.07-0.36,0.11-0.71,0.12-1.06c-0.63,0.04-1.27,0.08-1.9,0.11
		c-2.52,0.15-5.04,0.28-7.56,0.4c-0.06,0.25-0.11,0.5-0.15,0.75C23.42,35.29,26,35.24,28.59,35.17z"/>
	<path class="st0" d="M85.72,28.05c0.84-0.26,1.68-0.54,2.51-0.82l0.9-1.79h4.01c0.87-0.34,1.74-0.7,2.6-1.07
		c2.36-1.01,4.68-2.11,6.95-3.33c2.38-1.28,4.79-2.73,7.11-4.33l4.2-5.98l-1.13-1.51c-3.38,3.35-7.66,6.35-11.87,8.78
		c-2.13,1.23-4.33,2.37-6.57,3.41c-2.24,1.05-4.53,2.01-6.86,2.89c-1.04,0.39-2.08,0.77-3.13,1.13h1.07L85.72,28.05z"/>
	<path class="st0" d="M13.67,34.91l-0.11,0.51c0.89-0.01,1.78-0.02,2.67-0.02c0.03-0.2,0.06-0.4,0.11-0.59
		C15.46,34.83,14.57,34.87,13.67,34.91z"/>
	<path class="st0" d="M55.16,33.97c0.6-0.05,1.2-0.12,1.8-0.18c0.63-0.06,1.26-0.12,1.89-0.2l1.89-0.22
		c0.25-0.03,0.49-0.06,0.73-0.1l0.47-2.18c-0.5,0.08-0.99,0.17-1.49,0.25l-1.86,0.28c-0.62,0.1-1.24,0.18-1.86,0.26
		c-0.54,0.07-1.09,0.15-1.63,0.22c0.05,0.42,0.08,0.85,0.08,1.29C55.17,33.58,55.17,33.77,55.16,33.97z"/>
	<path class="st0" d="M70.74,29.34c-1.37,0.31-2.75,0.61-4.13,0.89l-0.51,2.37c0.09-0.01,0.18-0.03,0.27-0.04
		c2.5-0.41,5-0.87,7.49-1.4c0.15-0.03,0.31-0.07,0.46-0.1l-0.41-2.48c-0.2,0.05-0.41,0.11-0.61,0.16c-0.29,0.07-0.58,0.14-0.87,0.21
		l-0.08,0.4H70.74z"/>
	<path class="st0" d="M2.45,35.27L2.42,35.4c3.71,0.03,7.43,0.03,11.15,0.01l0.11-0.51C9.94,35.06,6.19,35.18,2.45,35.27z"/>
	<path class="st2" d="M30.32,35.12c1.54-0.04,3.08-0.09,4.61-0.14c0.07-0.4,0.11-0.81,0.12-1.21c-1.54,0.1-3.07,0.2-4.61,0.29
		C30.43,34.42,30.39,34.77,30.32,35.12z"/>
	<path class="st0" d="M20.99,34.58c-1.55,0.08-3.09,0.15-4.64,0.21c-0.04,0.2-0.08,0.39-0.11,0.59c1.53-0.02,3.06-0.03,4.59-0.06
		C20.88,35.08,20.93,34.83,20.99,34.58z"/>
	<path class="st0" d="M51.13,32.54c-0.22,0.02-0.43,0.04-0.65,0.07c0.06,0.35,0.09,0.7,0.09,1.07c0,0.21-0.01,0.43-0.03,0.64
		c0.25-0.02,0.49-0.03,0.74-0.05c1.26-0.08,2.52-0.2,3.79-0.3c0.03,0,0.06-0.01,0.09-0.01c0.01-0.19,0.02-0.39,0.02-0.58
		c0-0.44-0.03-0.87-0.08-1.29c-0.08,0.01-0.15,0.02-0.23,0.03C53.62,32.27,52.37,32.43,51.13,32.54z"/>
	<path class="st2" d="M41.05,34.77c0.06-0.27,0.14-0.53,0.23-0.8c0.07-0.22,0.15-0.43,0.24-0.64c-1.58,0.11-3.17,0.23-4.76,0.33
		c-0.14,0.42-0.25,0.85-0.34,1.28C37.97,34.89,39.51,34.83,41.05,34.77z"/>
	<path class="st0" d="M72.35,29.34l0.08-0.4c-0.56,0.14-1.12,0.27-1.69,0.4H72.35z"/>
	<path class="st0" d="M62.61,33.11c1.17-0.15,2.33-0.34,3.49-0.51l0.51-2.37c-0.21,0.04-0.42,0.09-0.63,0.13
		c-1.23,0.22-2.46,0.47-3.69,0.67c-0.12,0.02-0.24,0.04-0.36,0.06l-0.47,2.18C61.85,33.22,62.23,33.17,62.61,33.11z"/>
	<path class="st0" d="M78.74,30.02l-0.27-2.68c-1.51,0.44-3.03,0.85-4.56,1.24l0.41,2.48C75.8,30.73,77.27,30.39,78.74,30.02z"/>
	<path class="st0" d="M88.24,27.23c0.12-0.04,0.24-0.08,0.35-0.12c1.53-0.52,3.05-1.08,4.56-1.68h-4.01L88.24,27.23z"/>
	<path class="st0" d="M85.72,28.05l-0.21-2.61h-1.07c-0.98,0.34-1.97,0.67-2.95,0.98l0.35,2.78C83.14,28.83,84.43,28.45,85.72,28.05
		z"/>
	<polygon class="st2" points="121.63,8.12 121.49,0.06 118.3,10.48 	"/>
	<polygon class="st2" points="121.71,13.09 129.32,10.48 121.71,13.09 	"/>
	<path class="st2" d="M121.7,13.09L121.7,13.09L121.7,13.09l7.62-2.61l-11.01,0.01C119.44,11.35,120.57,12.22,121.7,13.09z"/>
	<polygon class="st2" points="118.3,10.48 117,14.71 121.84,21.14 118.31,10.48 	"/>
	<path class="st2" d="M118.29,10.48L118.29,10.48l-3.75,0.21l1.22,1.26c-1.83,1.71-3.85,3.3-5.96,4.75l-0.43,0.61L118.29,10.48
		L118.29,10.48z"/>
	<path class="st2" d="M114.54,10.7l-0.53,0.03l-4.2,5.98c2.1-1.46,4.12-3.04,5.96-4.75L114.54,10.7z"/>
	<polygon class="st2" points="118.3,10.48 118.3,10.48 118.29,10.48 	"/>
	<polygon class="st2" points="118.3,10.47 116.87,6.65 109.17,4.29 118.3,10.48 	"/>
	<rect x="118.3" y="10.47" transform="matrix(0.9412 -0.3379 0.3379 0.9412 3.4174 40.5857)" class="st2" width="0" height="0.01"/>
	<polygon class="st0" points="118.3,10.48 129.32,10.48 121.63,8.12 118.3,10.48 	"/>
	<polygon class="st0" points="118.31,10.48 129.32,10.48 118.3,10.48 	"/>
	<polygon class="st0" points="118.31,10.48 118.3,10.48 118.3,10.48 	"/>
	<rect x="118.3" y="10.48" class="st0" width="0" height="0.01"/>
	<polygon class="st0" points="118.3,10.48 118.3,10.48 118.3,10.48 	"/>
	<polygon class="st0" points="118.31,10.48 118.3,10.48 118.31,10.48 	"/>
	<polygon class="st0" points="118.3,10.48 109.38,17.32 117,14.71 118.3,10.48 	"/>
	<polygon class="st0" points="118.3,10.48 118.3,10.48 118.3,10.48 	"/>
	<path class="st0" d="M114.54,10.7l3.75-0.22l0,0l-9.13-6.18l3.7,4.93c0.04-0.04,0.08-0.08,0.12-0.11L114.54,10.7z"/>
	<path class="st0" d="M114.54,10.7l-1.55-1.59c-0.04,0.04-0.08,0.08-0.12,0.11l1.13,1.51L114.54,10.7z"/>
	<rect x="118.3" y="10.48" transform="matrix(0.5665 -0.824 0.824 0.5665 42.6445 102.0258)" class="st0" width="0" height="0.01"/>
	<polygon class="st0" points="118.3,10.48 118.3,10.48 118.3,10.48 	"/>
	<polygon class="st0" points="121.49,0.06 116.87,6.65 118.3,10.47 	"/>
	<polygon class="st0" points="118.3,10.48 118.3,10.48 121.49,0.06 118.3,10.47 	"/>
	<polygon class="st0" points="118.3,10.48 118.3,10.48 118.3,10.48 	"/>
</g>
</svg>
