<svg id="Layer_1" data-name="Layer 1" xmlns="http://www.w3.org/2000/svg" xmlns:xlink="http://www.w3.org/1999/xlink" viewBox="0 0 2000 1566"><defs><style>.cls-1{fill:none;}.cls-2{clip-path:url(#clip-path);}.cls-3{fill:#93b8d9;}.cls-4{fill:#516b8c;}.cls-5{fill:#a7b8d9;}.cls-6{fill:url(#linear-gradient);}.cls-7{fill:url(#linear-gradient-2);}.cls-8{fill:#122a40;}.cls-9{fill:url(#linear-gradient-3);}.cls-10{fill:url(#linear-gradient-4);}.cls-11{fill:#5b2807;}.cls-11,.cls-12,.cls-13,.cls-14{stroke:#000;stroke-miterlimit:10;}.cls-12{fill:#459f2c;}.cls-13{fill:#008837;}.cls-14{fill:#046029;}</style><clipPath id="clip-path"><rect class="cls-1" y="-434" width="2000" height="2000"/></clipPath><linearGradient id="linear-gradient" x1="498" y1="1304" x2="2000" y2="1304" gradientUnits="userSpaceOnUse"><stop offset="0" stop-color="#a7b8d9"/><stop offset="0.19" stop-color="#a2b4d5"/><stop offset="0.43" stop-color="#93a7c8"/><stop offset="0.68" stop-color="#7b91b2"/><stop offset="0.94" stop-color="#5a7394"/><stop offset="1" stop-color="#516b8c"/></linearGradient><linearGradient id="linear-gradient-2" x1="421" y1="583.15" x2="871.37" y2="583.15" gradientUnits="userSpaceOnUse"><stop offset="0" stop-color="#122a40"/><stop offset="1" stop-color="#516b8c"/></linearGradient><linearGradient id="linear-gradient-3" y1="1338.93" x2="2000" y2="1338.93" gradientUnits="userSpaceOnUse"><stop offset="0" stop-color="#a7b8d9"/><stop offset="1" stop-color="#516b8c"/></linearGradient><linearGradient id="linear-gradient-4" x1="858.09" y1="1484.15" x2="1162.09" y2="1326.82" gradientUnits="userSpaceOnUse"><stop offset="0" stop-color="#122a40"/><stop offset="0.43" stop-color="#1a334a" stop-opacity="0.94"/><stop offset="0.78" stop-color="#354e6a" stop-opacity="0.73"/><stop offset="1" stop-color="#516b8c" stop-opacity="0.52"/></linearGradient></defs><g class="cls-2"><path class="cls-3" d="M1052,717c45.33-19,71-62,114-94,0,0,22-10.7,46-39.85S1233,557,1233,557h0c1.46,32.77,85,93,85,93,33.9,24.44,34.1,22.91,47,34,9.6,8.25,35.85,30.81,53,58,28.25,44.8,22.36,61.45,42,105,28.12,62.36,94.4,57.19,129,122,7.21,13.51,14.68,40.31,24,88,5.91,30.21-23.37,31.88-24,34-7,23.85-75.53,38.19-323,7l-164-52C1078,924,1076,839,1052,717Z"/><path class="cls-4" d="M1230,561.09l0-.09s0,.08,0,.12Z"/><path class="cls-4" d="M1163,627c-43,32-68.67,75-114,94,3,15.53,5.75,30.45,8.18,44.94L1213,1066l216-5a214.62,214.62,0,0,0-6-37c-6.14-24.18-13.91-36.89-26-64-18-40.33-11.48-36.2-24-61-20.56-40.74-30.9-37.63-43-71-5.85-16.14-6.92-26.51-17-48a249,249,0,0,0-18-32l22-2-18-4c-9.18-19.29-18.23-39.63-27-61-15.28-37.27-27.8-73.11-38.11-107a33.57,33.57,0,0,1-3.88-12.92c-.59.91-4.08,5.46-21,26C1185,616.3,1163,627,1163,627Z"/><path class="cls-5" d="M421,481,581,257s32-40,74-61,62-77,62-77,3-11,15-10S845,245,845,245s-11,31,0,43,52.67,7,52.67,7L1395,1054l-559.5,57.87Z"/><path class="cls-6" d="M525,1135a4104.64,4104.64,0,0,1,1475-48v479H498Z"/><path class="cls-7" d="M717,119s-20,56-62,77-74,61-74,61L421,481l378.69,576.36C826.84,926.41,876.1,682.93,871,664c-7-26-53-21-73-47s50.5-164.5,50.5-164.5L742,421l69-53L694,358V305l86-61s-40-17-43-21-17-45-18-64,13-50,13-50C720,108,717,119,717,119Z"/><path class="cls-4" d="M0,820C189.75,600.49,260.6,522.9,283,502c13.86-12.93,17.92-21.35,30-35,13.17-14.89,26.1-35.2,27-60,.38-10.45-1.64-14.38,0-16,8.26-8.14,93.43,57.25,375,318-3,42-2.19,107.6,26,178,43.79,109.38,166.82,209.67,156,255-7.2,30.15-100.27,2.24-294,14L0,1162Z"/><path class="cls-8" d="M339.9,399.84q0-4.45.1-8.84l-.27.34C338.93,392.63,339.58,395.06,339.9,399.84Z"/><path class="cls-8" d="M571,1138c.26-4.86-6.89-8.74-16-26-15.2-28.79-16.49-58.1-15-79-128.48-30-214.76-81.5-230-116-15.15-34.29-10-63-10-63a90.82,90.82,0,0,1,7-22c20.13-44.33,100.06-165,110-180q-7.2-9.59-14-20c-48.46-74.45-62.27-155.73-63.07-223.61-1.33,24.17-14,44-26.93,58.61-12.08,13.65-16.14,22.07-30,35-22.4,20.9-93.25,98.49-283,318v342l523.85-5.21C557.58,1150.81,570.66,1144.4,571,1138Z"/><path class="cls-9" d="M0,1125.21c157.59-9.17,643.3-33,1113,19.85,163.29,18.36,300.86,47,576,104.2,45.64,9.49,124,31.42,222,67,39,14.13,68.24,31.11,89,42.17V1566H0Z"/><path class="cls-10" d="M1136,1512c42.29-53.76,54-103.13,58-129,3.82-25,7.57-52.17-8-77-16.65-26.56-46.54-36.32-52-38-12.75-3.93-35.83-6.62-82-12-5-.59-17.49-2-18-6-.4-3.08,5.73-7,7-8,10-8,83.56-21.66,142-88l-7-1c-59.32,47.6-142.37,68.59-162,79-3.92,2.08-25.7,11-27,21-1.23,9.45,16.5,16.74,21,18,32,9,56,9,96,29,9.28,4.64,23.85,15.22,27,31,4.69,23.5-20.08,45.9-60,81-43.82,38.54-81.56,71-111,96"/><path class="cls-8" d="M0,1403c143,41,204.91-19.07,424-35,173.26-12.6,201.94,37.46,354,79,205,56,294.12,65.77,542,44,148-13,388.94-118.9,564-68a579,579,0,0,1,116,48v95H0Z"/><rect class="cls-11" x="10.56" y="1384.15" width="29.02" height="29.02"/><path class="cls-12" d="M35.26,1279.85c19.05-23.21,28.53-71.49-15.66-182.29a6.1,6.1,0,0,0-.65,1.11L-27.27,1199a6.79,6.79,0,0,0,6.16,9.63H-4.42L-40,1288.14a6.79,6.79,0,0,0,6.2,9.56h17.6l-32.09,78.46a6.79,6.79,0,0,0,6.28,9.36h28.14a156.29,156.29,0,0,1,9.51-45.68C7.85,1307.24,27.56,1289.23,35.26,1279.85Z"/><path class="cls-13" d="M98.49,1376.16,66.4,1297.7H84a6.79,6.79,0,0,0,6.2-9.56l-35.56-79.5H71.33a6.79,6.79,0,0,0,6.16-9.63L31.27,1098.67a6.78,6.78,0,0,0-11.67-1.11c44.19,110.8,34.71,159.08,15.66,182.29-7.7,9.38-27.41,27.39-39.6,60a156.29,156.29,0,0,0-9.51,45.68H92.21A6.79,6.79,0,0,0,98.49,1376.16Z"/><path class="cls-14" d="M32.88,1124.88l1.24-2.14a4,4,0,0,0-3.5-6.06H28.15a4,4,0,0,0-3.5,6.06l1.23,2.14A4,4,0,0,0,32.88,1124.88Z"/><path class="cls-14" d="M4.65,1152.33l1.23-2.14a4,4,0,0,0-3.5-6.06H-.09a4,4,0,0,0-3.5,6.06l1.24,2.14A4,4,0,0,0,4.65,1152.33Z"/><path class="cls-14" d="M58,1182.52l1.23-2.14a4,4,0,0,0-3.5-6.06H53.24a4,4,0,0,0-3.5,6.06l1.24,2.14A4,4,0,0,0,58,1182.52Z"/><path class="cls-14" d="M1.51,1204.09,2.75,1202a4,4,0,0,0-3.5-6.06H-3.22a4,4,0,0,0-3.5,6.06l1.23,2.14A4,4,0,0,0,1.51,1204.09Z"/><path class="cls-14" d="M54.84,1239.77l1.23-2.14a4,4,0,0,0-3.5-6.06H50.1a4,4,0,0,0-3.5,6.06l1.24,2.14A4,4,0,0,0,54.84,1239.77Z"/><path class="cls-14" d="M32.88,1213.89l1.24-2.14a4,4,0,0,0-3.5-6.06H28.15a4,4,0,0,0-3.5,6.06l1.23,2.14A4,4,0,0,0,32.88,1213.89Z"/><path class="cls-14" d="M11.71,1263.3l1.23-2.14a4,4,0,0,0-3.5-6.06H7a4,4,0,0,0-3.5,6.06l1.24,2.14A4,4,0,0,0,11.71,1263.3Z"/><path class="cls-14" d="M46.21,1282.9l1.24-2.14a4,4,0,0,0-3.5-6.06H41.48a4,4,0,0,0-3.5,6.06l1.23,2.14A4,4,0,0,0,46.21,1282.9Z"/><path class="cls-14" d="M83.07,1291.53l1.24-2.14a4,4,0,0,0-3.5-6.06H78.34a4,4,0,0,0-3.5,6.06l1.23,2.14A4,4,0,0,0,83.07,1291.53Z"/><path class="cls-14" d="M32.88,1317.41l1.24-2.14a4,4,0,0,0-3.5-6.06H28.15a4,4,0,0,0-3.5,6.06l1.23,2.14A4,4,0,0,0,32.88,1317.41Z"/><path class="cls-14" d="M36,1355.05l1.23-2.14a4,4,0,0,0-3.5-6.06H31.28a4,4,0,0,0-3.5,6.06l1.24,2.14A4,4,0,0,0,36,1355.05Z"/><path class="cls-14" d="M72.09,1345.64l1.24-2.14a4,4,0,0,0-3.5-6.06H67.36a4,4,0,0,0-3.5,6.06l1.23,2.14A4,4,0,0,0,72.09,1345.64Z"/><path class="cls-14" d="M79.15,1374.26l1.23-2.14a4,4,0,0,0-3.5-6.06H74.41a4,4,0,0,0-3.5,6.06l1.24,2.14A4,4,0,0,0,79.15,1374.26Z"/><path class="cls-12" d="M32.26,1540.85c19.05-23.21,28.53-71.49-15.66-182.29a6.1,6.1,0,0,0-.65,1.11L-30.27,1460a6.79,6.79,0,0,0,6.16,9.63H-7.42L-43,1549.14a6.79,6.79,0,0,0,6.2,9.56h17.6l-32.09,78.46a6.79,6.79,0,0,0,6.28,9.36h28.14a156.29,156.29,0,0,1,9.51-45.68C4.85,1568.24,24.56,1550.23,32.26,1540.85Z"/><path class="cls-13" d="M95.49,1637.16,63.4,1558.7H81a6.79,6.79,0,0,0,6.2-9.56l-35.56-79.5H68.33a6.79,6.79,0,0,0,6.16-9.63L28.27,1359.67a6.78,6.78,0,0,0-11.67-1.11c44.19,110.8,34.71,159.08,15.66,182.29-7.7,9.38-27.41,27.39-39.6,60a156.29,156.29,0,0,0-9.51,45.68H89.21A6.79,6.79,0,0,0,95.49,1637.16Z"/><path class="cls-14" d="M29.88,1385.88l1.24-2.14a4,4,0,0,0-3.5-6.06H25.15a4,4,0,0,0-3.5,6.06l1.23,2.14A4,4,0,0,0,29.88,1385.88Z"/><path class="cls-14" d="M1.65,1413.33l1.23-2.14a4,4,0,0,0-3.5-6.06H-3.09a4,4,0,0,0-3.5,6.06l1.24,2.14A4,4,0,0,0,1.65,1413.33Z"/><path class="cls-14" d="M55,1443.52l1.23-2.14a4,4,0,0,0-3.5-6.06H50.24a4,4,0,0,0-3.5,6.06l1.24,2.14A4,4,0,0,0,55,1443.52Z"/><path class="cls-14" d="M-1.49,1465.09-.25,1463a4,4,0,0,0-3.5-6.06H-6.22a4,4,0,0,0-3.5,6.06l1.23,2.14A4,4,0,0,0-1.49,1465.09Z"/><path class="cls-14" d="M51.84,1500.77l1.23-2.14a4,4,0,0,0-3.5-6.06H47.1a4,4,0,0,0-3.5,6.06l1.24,2.14A4,4,0,0,0,51.84,1500.77Z"/><path class="cls-14" d="M29.88,1474.89l1.24-2.14a4,4,0,0,0-3.5-6.06H25.15a4,4,0,0,0-3.5,6.06l1.23,2.14A4,4,0,0,0,29.88,1474.89Z"/><path class="cls-14" d="M8.71,1524.3l1.23-2.14a4,4,0,0,0-3.5-6.06H4a4,4,0,0,0-3.5,6.06l1.24,2.14A4,4,0,0,0,8.71,1524.3Z"/><path class="cls-14" d="M43.21,1543.9l1.24-2.14a4,4,0,0,0-3.5-6.06H38.48a4,4,0,0,0-3.5,6.06l1.23,2.14A4,4,0,0,0,43.21,1543.9Z"/><path class="cls-14" d="M80.07,1552.53l1.24-2.14a4,4,0,0,0-3.5-6.06H75.34a4,4,0,0,0-3.5,6.06l1.23,2.14A4,4,0,0,0,80.07,1552.53Z"/><rect class="cls-11" x="67.56" y="1463.15" width="29.02" height="29.02"/><path class="cls-12" d="M92.26,1358.85c19-23.21,28.53-71.49-15.66-182.29a6.1,6.1,0,0,0-.65,1.11L29.73,1278a6.79,6.79,0,0,0,6.16,9.63H52.58L17,1367.14a6.79,6.79,0,0,0,6.2,9.56h17.6L8.73,1455.16a6.79,6.79,0,0,0,6.28,9.36H43.15a156.29,156.29,0,0,1,9.51-45.68C64.85,1386.24,84.56,1368.23,92.26,1358.85Z"/><path class="cls-13" d="M155.49,1455.16,123.4,1376.7H141a6.79,6.79,0,0,0,6.2-9.56l-35.56-79.5h16.69a6.79,6.79,0,0,0,6.16-9.63L88.27,1177.67a6.78,6.78,0,0,0-11.67-1.11c44.19,110.8,34.71,159.08,15.66,182.29-7.7,9.38-27.41,27.39-39.6,60a156.29,156.29,0,0,0-9.51,45.68H149.21A6.79,6.79,0,0,0,155.49,1455.16Z"/><path class="cls-14" d="M89.88,1203.88l1.24-2.14a4,4,0,0,0-3.5-6.06H85.15a4,4,0,0,0-3.5,6.06l1.23,2.14A4,4,0,0,0,89.88,1203.88Z"/><path class="cls-14" d="M61.65,1231.33l1.23-2.14a4,4,0,0,0-3.5-6.06H56.91a4,4,0,0,0-3.5,6.06l1.24,2.14A4,4,0,0,0,61.65,1231.33Z"/><path class="cls-14" d="M115,1261.52l1.23-2.14a4,4,0,0,0-3.5-6.06h-2.47a4,4,0,0,0-3.5,6.06l1.24,2.14A4,4,0,0,0,115,1261.52Z"/><path class="cls-14" d="M58.51,1283.09l1.24-2.14a4,4,0,0,0-3.5-6.06H53.78a4,4,0,0,0-3.5,6.06l1.23,2.14A4,4,0,0,0,58.51,1283.09Z"/><path class="cls-14" d="M111.84,1318.77l1.23-2.14a4,4,0,0,0-3.5-6.06H107.1a4,4,0,0,0-3.5,6.06l1.24,2.14A4,4,0,0,0,111.84,1318.77Z"/><path class="cls-14" d="M89.88,1292.89l1.24-2.14a4,4,0,0,0-3.5-6.06H85.15a4,4,0,0,0-3.5,6.06l1.23,2.14A4,4,0,0,0,89.88,1292.89Z"/><path class="cls-14" d="M33,1361.9l1.24-2.14a4,4,0,0,0-3.5-6.06H28.29a4,4,0,0,0-3.5,6.06L26,1361.9A4,4,0,0,0,33,1361.9Z"/><path class="cls-14" d="M68.71,1342.3l1.23-2.14a4,4,0,0,0-3.5-6.06H64a4,4,0,0,0-3.5,6.06l1.24,2.14A4,4,0,0,0,68.71,1342.3Z"/><path class="cls-14" d="M103.21,1361.9l1.24-2.14a4,4,0,0,0-3.5-6.06H98.48a4,4,0,0,0-3.5,6.06l1.23,2.14A4,4,0,0,0,103.21,1361.9Z"/><path class="cls-14" d="M140.07,1370.53l1.24-2.14a4,4,0,0,0-3.5-6.06h-2.47a4,4,0,0,0-3.5,6.06l1.23,2.14A4,4,0,0,0,140.07,1370.53Z"/><path class="cls-14" d="M89.88,1396.41l1.24-2.14a4,4,0,0,0-3.5-6.06H85.15a4,4,0,0,0-3.5,6.06l1.23,2.14A4,4,0,0,0,89.88,1396.41Z"/><path class="cls-14" d="M54.59,1402.68l1.24-2.14a4,4,0,0,0-3.5-6.06H49.86a4,4,0,0,0-3.5,6.06l1.23,2.14A4,4,0,0,0,54.59,1402.68Z"/><path class="cls-14" d="M93,1434.05l1.23-2.14a4,4,0,0,0-3.5-6.06H88.28a4,4,0,0,0-3.5,6.06l1.24,2.14A4,4,0,0,0,93,1434.05Z"/><path class="cls-14" d="M129.09,1424.64l1.24-2.14a4,4,0,0,0-3.5-6.06h-2.47a4,4,0,0,0-3.5,6.06l1.23,2.14A4,4,0,0,0,129.09,1424.64Z"/><path class="cls-14" d="M136.15,1453.26l1.23-2.14a4,4,0,0,0-3.5-6.06h-2.47a4,4,0,0,0-3.5,6.06l1.24,2.14A4,4,0,0,0,136.15,1453.26Z"/><path class="cls-14" d="M40.08,1450.91l1.24-2.14a4,4,0,0,0-3.5-6.06H35.35a4,4,0,0,0-3.5,6.06l1.23,2.14A4,4,0,0,0,40.08,1450.91Z"/><rect class="cls-11" x="14.56" y="1497.15" width="29.02" height="29.02"/><path class="cls-12" d="M39.26,1392.85c19.05-23.21,28.53-71.49-15.66-182.29a6.1,6.1,0,0,0-.65,1.11L-23.27,1312a6.79,6.79,0,0,0,6.16,9.63H-.42L-36,1401.14a6.79,6.79,0,0,0,6.2,9.56h17.6l-32.09,78.46a6.79,6.79,0,0,0,6.28,9.36H-9.85a156.29,156.29,0,0,1,9.51-45.68C11.85,1420.24,31.56,1402.23,39.26,1392.85Z"/><path class="cls-13" d="M102.49,1489.16,70.4,1410.7H88a6.79,6.79,0,0,0,6.2-9.56l-35.56-79.5H75.33a6.79,6.79,0,0,0,6.16-9.63L35.27,1211.67a6.78,6.78,0,0,0-11.67-1.11c44.19,110.8,34.71,159.08,15.66,182.29-7.7,9.38-27.41,27.39-39.6,60a156.29,156.29,0,0,0-9.51,45.68H96.21A6.79,6.79,0,0,0,102.49,1489.16Z"/><path class="cls-14" d="M36.88,1237.88l1.24-2.14a4,4,0,0,0-3.5-6.06H32.15a4,4,0,0,0-3.5,6.06l1.23,2.14A4,4,0,0,0,36.88,1237.88Z"/><path class="cls-14" d="M8.65,1265.33l1.23-2.14a4,4,0,0,0-3.5-6.06H3.91a4,4,0,0,0-3.5,6.06l1.24,2.14A4,4,0,0,0,8.65,1265.33Z"/><path class="cls-14" d="M62,1295.52l1.23-2.14a4,4,0,0,0-3.5-6.06H57.24a4,4,0,0,0-3.5,6.06l1.24,2.14A4,4,0,0,0,62,1295.52Z"/><path class="cls-14" d="M5.51,1317.09,6.75,1315a4,4,0,0,0-3.5-6.06H.78a4,4,0,0,0-3.5,6.06l1.23,2.14A4,4,0,0,0,5.51,1317.09Z"/><path class="cls-14" d="M58.84,1352.77l1.23-2.14a4,4,0,0,0-3.5-6.06H54.1a4,4,0,0,0-3.5,6.06l1.24,2.14A4,4,0,0,0,58.84,1352.77Z"/><path class="cls-14" d="M36.88,1326.89l1.24-2.14a4,4,0,0,0-3.5-6.06H32.15a4,4,0,0,0-3.5,6.06l1.23,2.14A4,4,0,0,0,36.88,1326.89Z"/><path class="cls-14" d="M15.71,1376.3l1.23-2.14a4,4,0,0,0-3.5-6.06H11a4,4,0,0,0-3.5,6.06l1.24,2.14A4,4,0,0,0,15.71,1376.3Z"/><path class="cls-14" d="M50.21,1395.9l1.24-2.14a4,4,0,0,0-3.5-6.06H45.48a4,4,0,0,0-3.5,6.06l1.23,2.14A4,4,0,0,0,50.21,1395.9Z"/><path class="cls-14" d="M87.07,1404.53l1.24-2.14a4,4,0,0,0-3.5-6.06H82.34a4,4,0,0,0-3.5,6.06l1.23,2.14A4,4,0,0,0,87.07,1404.53Z"/><path class="cls-14" d="M36.88,1430.41l1.24-2.14a4,4,0,0,0-3.5-6.06H32.15a4,4,0,0,0-3.5,6.06l1.23,2.14A4,4,0,0,0,36.88,1430.41Z"/><path class="cls-14" d="M1.59,1436.68l1.24-2.14a4,4,0,0,0-3.5-6.06H-3.14a4,4,0,0,0-3.5,6.06l1.23,2.14A4,4,0,0,0,1.59,1436.68Z"/><path class="cls-14" d="M40,1468.05l1.23-2.14a4,4,0,0,0-3.5-6.06H35.28a4,4,0,0,0-3.5,6.06l1.24,2.14A4,4,0,0,0,40,1468.05Z"/><path class="cls-14" d="M76.09,1458.64l1.24-2.14a4,4,0,0,0-3.5-6.06H71.36a4,4,0,0,0-3.5,6.06l1.23,2.14A4,4,0,0,0,76.09,1458.64Z"/><path class="cls-14" d="M83.15,1487.26l1.23-2.14a4,4,0,0,0-3.5-6.06H78.41a4,4,0,0,0-3.5,6.06l1.24,2.14A4,4,0,0,0,83.15,1487.26Z"/><rect class="cls-11" x="108.56" y="1508.15" width="29.02" height="29.02"/><path class="cls-12" d="M133.26,1403.85c19.05-23.21,28.53-71.49-15.66-182.29a6.1,6.1,0,0,0-.65,1.11L70.73,1323a6.79,6.79,0,0,0,6.16,9.63H93.58L58,1412.14a6.79,6.79,0,0,0,6.2,9.56h17.6l-32.09,78.46a6.79,6.79,0,0,0,6.28,9.36H84.15a156.29,156.29,0,0,1,9.51-45.68C105.85,1431.24,125.56,1413.23,133.26,1403.85Z"/><path class="cls-13" d="M196.49,1500.16,164.4,1421.7H182a6.79,6.79,0,0,0,6.2-9.56l-35.56-79.5h16.69a6.79,6.79,0,0,0,6.16-9.63l-46.22-100.34a6.78,6.78,0,0,0-11.67-1.11c44.19,110.8,34.71,159.08,15.66,182.29-7.7,9.38-27.41,27.39-39.6,60a156.29,156.29,0,0,0-9.51,45.68H190.21A6.79,6.79,0,0,0,196.49,1500.16Z"/><path class="cls-14" d="M130.88,1248.88l1.24-2.14a4,4,0,0,0-3.5-6.06h-2.47a4,4,0,0,0-3.5,6.06l1.23,2.14A4,4,0,0,0,130.88,1248.88Z"/><path class="cls-14" d="M102.65,1276.33l1.23-2.14a4,4,0,0,0-3.5-6.06H97.91a4,4,0,0,0-3.5,6.06l1.24,2.14A4,4,0,0,0,102.65,1276.33Z"/><path class="cls-14" d="M156,1306.52l1.23-2.14a4,4,0,0,0-3.5-6.06h-2.47a4,4,0,0,0-3.5,6.06l1.24,2.14A4,4,0,0,0,156,1306.52Z"/><path class="cls-14" d="M99.51,1328.09l1.24-2.14a4,4,0,0,0-3.5-6.06H94.78a4,4,0,0,0-3.5,6.06l1.23,2.14A4,4,0,0,0,99.51,1328.09Z"/><path class="cls-14" d="M152.84,1363.77l1.23-2.14a4,4,0,0,0-3.5-6.06H148.1a4,4,0,0,0-3.5,6.06l1.24,2.14A4,4,0,0,0,152.84,1363.77Z"/><path class="cls-14" d="M130.88,1337.89l1.24-2.14a4,4,0,0,0-3.5-6.06h-2.47a4,4,0,0,0-3.5,6.06l1.23,2.14A4,4,0,0,0,130.88,1337.89Z"/><path class="cls-14" d="M74,1406.9l1.24-2.14a4,4,0,0,0-3.5-6.06H69.29a4,4,0,0,0-3.5,6.06L67,1406.9A4,4,0,0,0,74,1406.9Z"/><path class="cls-14" d="M109.71,1387.3l1.23-2.14a4,4,0,0,0-3.5-6.06H105a4,4,0,0,0-3.5,6.06l1.24,2.14A4,4,0,0,0,109.71,1387.3Z"/><path class="cls-14" d="M144.21,1406.9l1.24-2.14a4,4,0,0,0-3.5-6.06h-2.47a4,4,0,0,0-3.5,6.06l1.23,2.14A4,4,0,0,0,144.21,1406.9Z"/><path class="cls-14" d="M181.07,1415.53l1.24-2.14a4,4,0,0,0-3.5-6.06h-2.47a4,4,0,0,0-3.5,6.06l1.23,2.14A4,4,0,0,0,181.07,1415.53Z"/><path class="cls-14" d="M130.88,1441.41l1.24-2.14a4,4,0,0,0-3.5-6.06h-2.47a4,4,0,0,0-3.5,6.06l1.23,2.14A4,4,0,0,0,130.88,1441.41Z"/><path class="cls-14" d="M95.59,1447.68l1.24-2.14a4,4,0,0,0-3.5-6.06H90.86a4,4,0,0,0-3.5,6.06l1.23,2.14A4,4,0,0,0,95.59,1447.68Z"/><path class="cls-14" d="M134,1479.05l1.23-2.14a4,4,0,0,0-3.5-6.06h-2.47a4,4,0,0,0-3.5,6.06l1.24,2.14A4,4,0,0,0,134,1479.05Z"/><path class="cls-14" d="M170.09,1469.64l1.24-2.14a4,4,0,0,0-3.5-6.06h-2.47a4,4,0,0,0-3.5,6.06l1.23,2.14A4,4,0,0,0,170.09,1469.64Z"/><path class="cls-14" d="M177.15,1498.26l1.23-2.14a4,4,0,0,0-3.5-6.06h-2.47a4,4,0,0,0-3.5,6.06l1.24,2.14A4,4,0,0,0,177.15,1498.26Z"/><path class="cls-14" d="M81.08,1495.91l1.24-2.14a4,4,0,0,0-3.5-6.06H76.35a4,4,0,0,0-3.5,6.06l1.23,2.14A4,4,0,0,0,81.08,1495.91Z"/><rect class="cls-11" x="161.56" y="1518.15" width="29.02" height="29.02"/><path class="cls-12" d="M186.26,1413.85c19.05-23.21,28.53-71.49-15.66-182.29a6.1,6.1,0,0,0-.65,1.11L123.73,1333a6.79,6.79,0,0,0,6.16,9.63h16.69L111,1422.14a6.79,6.79,0,0,0,6.2,9.56h17.6l-32.09,78.46a6.79,6.79,0,0,0,6.28,9.36h28.14a156.29,156.29,0,0,1,9.51-45.68C158.85,1441.24,178.56,1423.23,186.26,1413.85Z"/><path class="cls-13" d="M249.49,1510.16,217.4,1431.7H235a6.79,6.79,0,0,0,6.2-9.56l-35.56-79.5h16.69a6.79,6.79,0,0,0,6.16-9.63l-46.22-100.34a6.78,6.78,0,0,0-11.67-1.11c44.19,110.8,34.71,159.08,15.66,182.29-7.7,9.38-27.41,27.39-39.6,60a156.29,156.29,0,0,0-9.51,45.68H243.21A6.79,6.79,0,0,0,249.49,1510.16Z"/><path class="cls-14" d="M183.88,1258.88l1.24-2.14a4,4,0,0,0-3.5-6.06h-2.47a4,4,0,0,0-3.5,6.06l1.23,2.14A4,4,0,0,0,183.88,1258.88Z"/><path class="cls-14" d="M155.65,1286.33l1.23-2.14a4,4,0,0,0-3.5-6.06h-2.47a4,4,0,0,0-3.5,6.06l1.24,2.14A4,4,0,0,0,155.65,1286.33Z"/><path class="cls-14" d="M209,1316.52l1.23-2.14a4,4,0,0,0-3.5-6.06h-2.47a4,4,0,0,0-3.5,6.06l1.24,2.14A4,4,0,0,0,209,1316.52Z"/><path class="cls-14" d="M152.51,1338.09l1.24-2.14a4,4,0,0,0-3.5-6.06h-2.47a4,4,0,0,0-3.5,6.06l1.23,2.14A4,4,0,0,0,152.51,1338.09Z"/><path class="cls-14" d="M205.84,1373.77l1.23-2.14a4,4,0,0,0-3.5-6.06H201.1a4,4,0,0,0-3.5,6.06l1.24,2.14A4,4,0,0,0,205.84,1373.77Z"/><path class="cls-14" d="M183.88,1347.89l1.24-2.14a4,4,0,0,0-3.5-6.06h-2.47a4,4,0,0,0-3.5,6.06l1.23,2.14A4,4,0,0,0,183.88,1347.89Z"/><path class="cls-14" d="M127,1416.9l1.24-2.14a4,4,0,0,0-3.5-6.06h-2.47a4,4,0,0,0-3.5,6.06l1.24,2.14A4,4,0,0,0,127,1416.9Z"/><path class="cls-14" d="M162.71,1397.3l1.23-2.14a4,4,0,0,0-3.5-6.06H158a4,4,0,0,0-3.5,6.06l1.24,2.14A4,4,0,0,0,162.71,1397.3Z"/><path class="cls-14" d="M197.21,1416.9l1.24-2.14a4,4,0,0,0-3.5-6.06h-2.47a4,4,0,0,0-3.5,6.06l1.23,2.14A4,4,0,0,0,197.21,1416.9Z"/><path class="cls-14" d="M234.07,1425.53l1.24-2.14a4,4,0,0,0-3.5-6.06h-2.47a4,4,0,0,0-3.5,6.06l1.23,2.14A4,4,0,0,0,234.07,1425.53Z"/><path class="cls-14" d="M183.88,1451.41l1.24-2.14a4,4,0,0,0-3.5-6.06h-2.47a4,4,0,0,0-3.5,6.06l1.23,2.14A4,4,0,0,0,183.88,1451.41Z"/><path class="cls-14" d="M148.59,1457.68l1.24-2.14a4,4,0,0,0-3.5-6.06h-2.47a4,4,0,0,0-3.5,6.06l1.23,2.14A4,4,0,0,0,148.59,1457.68Z"/><path class="cls-14" d="M187,1489.05l1.23-2.14a4,4,0,0,0-3.5-6.06h-2.47a4,4,0,0,0-3.5,6.06l1.24,2.14A4,4,0,0,0,187,1489.05Z"/><path class="cls-14" d="M223.09,1479.64l1.24-2.14a4,4,0,0,0-3.5-6.06h-2.47a4,4,0,0,0-3.5,6.06l1.23,2.14A4,4,0,0,0,223.09,1479.64Z"/><path class="cls-14" d="M230.15,1508.26l1.23-2.14a4,4,0,0,0-3.5-6.06h-2.47a4,4,0,0,0-3.5,6.06l1.24,2.14A4,4,0,0,0,230.15,1508.26Z"/><path class="cls-14" d="M134.08,1505.91l1.24-2.14a4,4,0,0,0-3.5-6.06h-2.47a4,4,0,0,0-3.5,6.06l1.23,2.14A4,4,0,0,0,134.08,1505.91Z"/><path class="cls-12" d="M186.26,1604.85c19.05-23.21,28.53-71.49-15.66-182.29a6.1,6.1,0,0,0-.65,1.11L123.73,1524a6.79,6.79,0,0,0,6.16,9.63h16.69L111,1613.14a6.79,6.79,0,0,0,6.2,9.56h17.6l-32.09,78.46a6.79,6.79,0,0,0,6.28,9.36h28.14a156.29,156.29,0,0,1,9.51-45.68C158.85,1632.24,178.56,1614.23,186.26,1604.85Z"/><path class="cls-13" d="M249.49,1701.16,217.4,1622.7H235a6.79,6.79,0,0,0,6.2-9.56l-35.56-79.5h16.69a6.79,6.79,0,0,0,6.16-9.63l-46.22-100.34a6.78,6.78,0,0,0-11.67-1.11c44.19,110.8,34.71,159.08,15.66,182.29-7.7,9.38-27.41,27.39-39.6,60a156.29,156.29,0,0,0-9.51,45.68H243.21A6.79,6.79,0,0,0,249.49,1701.16Z"/><path class="cls-14" d="M183.88,1449.88l1.24-2.14a4,4,0,0,0-3.5-6.06h-2.47a4,4,0,0,0-3.5,6.06l1.23,2.14A4,4,0,0,0,183.88,1449.88Z"/><path class="cls-14" d="M155.65,1477.33l1.23-2.14a4,4,0,0,0-3.5-6.06h-2.47a4,4,0,0,0-3.5,6.06l1.24,2.14A4,4,0,0,0,155.65,1477.33Z"/><path class="cls-14" d="M209,1507.52l1.23-2.14a4,4,0,0,0-3.5-6.06h-2.47a4,4,0,0,0-3.5,6.06l1.24,2.14A4,4,0,0,0,209,1507.52Z"/><path class="cls-14" d="M152.51,1529.09l1.24-2.14a4,4,0,0,0-3.5-6.06h-2.47a4,4,0,0,0-3.5,6.06l1.23,2.14A4,4,0,0,0,152.51,1529.09Z"/><path class="cls-14" d="M205.84,1564.77l1.23-2.14a4,4,0,0,0-3.5-6.06H201.1a4,4,0,0,0-3.5,6.06l1.24,2.14A4,4,0,0,0,205.84,1564.77Z"/><path class="cls-14" d="M183.88,1538.89l1.24-2.14a4,4,0,0,0-3.5-6.06h-2.47a4,4,0,0,0-3.5,6.06l1.23,2.14A4,4,0,0,0,183.88,1538.89Z"/><path class="cls-12" d="M311.26,1463.85c19.05-23.21,28.53-71.49-15.66-182.29a6.1,6.1,0,0,0-.65,1.11L248.73,1383a6.79,6.79,0,0,0,6.16,9.63h16.69L236,1472.14a6.79,6.79,0,0,0,6.2,9.56h17.6l-32.09,78.46a6.79,6.79,0,0,0,6.28,9.36h28.14a156.29,156.29,0,0,1,9.51-45.68C283.85,1491.24,303.56,1473.23,311.26,1463.85Z"/><path class="cls-13" d="M374.49,1560.16,342.4,1481.7H360a6.79,6.79,0,0,0,6.2-9.56l-35.56-79.5h16.69a6.79,6.79,0,0,0,6.16-9.63l-46.22-100.34a6.78,6.78,0,0,0-11.67-1.11c44.19,110.8,34.71,159.08,15.66,182.29-7.7,9.38-27.41,27.39-39.6,60a156.29,156.29,0,0,0-9.51,45.68H368.21A6.79,6.79,0,0,0,374.49,1560.16Z"/><path class="cls-14" d="M308.88,1308.88l1.24-2.14a4,4,0,0,0-3.5-6.06h-2.47a4,4,0,0,0-3.5,6.06l1.23,2.14A4,4,0,0,0,308.88,1308.88Z"/><path class="cls-14" d="M280.65,1336.33l1.23-2.14a4,4,0,0,0-3.5-6.06h-2.47a4,4,0,0,0-3.5,6.06l1.24,2.14A4,4,0,0,0,280.65,1336.33Z"/><path class="cls-14" d="M334,1366.52l1.23-2.14a4,4,0,0,0-3.5-6.06h-2.47a4,4,0,0,0-3.5,6.06l1.24,2.14A4,4,0,0,0,334,1366.52Z"/><path class="cls-14" d="M277.51,1388.09l1.24-2.14a4,4,0,0,0-3.5-6.06h-2.47a4,4,0,0,0-3.5,6.06l1.23,2.14A4,4,0,0,0,277.51,1388.09Z"/><path class="cls-14" d="M330.84,1423.77l1.23-2.14a4,4,0,0,0-3.5-6.06H326.1a4,4,0,0,0-3.5,6.06l1.24,2.14A4,4,0,0,0,330.84,1423.77Z"/><path class="cls-14" d="M308.88,1397.89l1.24-2.14a4,4,0,0,0-3.5-6.06h-2.47a4,4,0,0,0-3.5,6.06l1.23,2.14A4,4,0,0,0,308.88,1397.89Z"/><path class="cls-14" d="M252,1466.9l1.24-2.14a4,4,0,0,0-3.5-6.06h-2.47a4,4,0,0,0-3.5,6.06l1.24,2.14A4,4,0,0,0,252,1466.9Z"/><path class="cls-14" d="M287.71,1447.3l1.23-2.14a4,4,0,0,0-3.5-6.06H283a4,4,0,0,0-3.5,6.06l1.24,2.14A4,4,0,0,0,287.71,1447.3Z"/><path class="cls-14" d="M322.21,1466.9l1.24-2.14a4,4,0,0,0-3.5-6.06h-2.47a4,4,0,0,0-3.5,6.06l1.23,2.14A4,4,0,0,0,322.21,1466.9Z"/><path class="cls-14" d="M359.07,1475.53l1.24-2.14a4,4,0,0,0-3.5-6.06h-2.47a4,4,0,0,0-3.5,6.06l1.23,2.14A4,4,0,0,0,359.07,1475.53Z"/><path class="cls-14" d="M308.88,1501.41l1.24-2.14a4,4,0,0,0-3.5-6.06h-2.47a4,4,0,0,0-3.5,6.06l1.23,2.14A4,4,0,0,0,308.88,1501.41Z"/><path class="cls-14" d="M273.59,1507.68l1.24-2.14a4,4,0,0,0-3.5-6.06h-2.47a4,4,0,0,0-3.5,6.06l1.23,2.14A4,4,0,0,0,273.59,1507.68Z"/><path class="cls-14" d="M312,1539.05l1.23-2.14a4,4,0,0,0-3.5-6.06h-2.47a4,4,0,0,0-3.5,6.06l1.24,2.14A4,4,0,0,0,312,1539.05Z"/><path class="cls-14" d="M348.09,1529.64l1.24-2.14a4,4,0,0,0-3.5-6.06h-2.47a4,4,0,0,0-3.5,6.06l1.23,2.14A4,4,0,0,0,348.09,1529.64Z"/><path class="cls-14" d="M355.15,1558.26l1.23-2.14a4,4,0,0,0-3.5-6.06h-2.47a4,4,0,0,0-3.5,6.06l1.24,2.14A4,4,0,0,0,355.15,1558.26Z"/><path class="cls-14" d="M259.08,1555.91l1.24-2.14a4,4,0,0,0-3.5-6.06h-2.47a4,4,0,0,0-3.5,6.06l1.23,2.14A4,4,0,0,0,259.08,1555.91Z"/><path class="cls-12" d="M250.26,1462.85c19.05-23.21,28.53-71.49-15.66-182.29a6.1,6.1,0,0,0-.65,1.11L187.73,1382a6.79,6.79,0,0,0,6.16,9.63h16.69L175,1471.14a6.79,6.79,0,0,0,6.2,9.56h17.6l-32.09,78.46a6.79,6.79,0,0,0,6.28,9.36h28.14a156.29,156.29,0,0,1,9.51-45.68C222.85,1490.24,242.56,1472.23,250.26,1462.85Z"/><path class="cls-13" d="M313.49,1559.16,281.4,1480.7H299a6.79,6.79,0,0,0,6.2-9.56l-35.56-79.5h16.69a6.79,6.79,0,0,0,6.16-9.63l-46.22-100.34a6.78,6.78,0,0,0-11.67-1.11c44.19,110.8,34.71,159.08,15.66,182.29-7.7,9.38-27.41,27.39-39.6,60a156.29,156.29,0,0,0-9.51,45.68H307.21A6.79,6.79,0,0,0,313.49,1559.16Z"/><path class="cls-14" d="M247.88,1307.88l1.24-2.14a4,4,0,0,0-3.5-6.06h-2.47a4,4,0,0,0-3.5,6.06l1.23,2.14A4,4,0,0,0,247.88,1307.88Z"/><path class="cls-14" d="M219.65,1335.33l1.23-2.14a4,4,0,0,0-3.5-6.06h-2.47a4,4,0,0,0-3.5,6.06l1.24,2.14A4,4,0,0,0,219.65,1335.33Z"/><path class="cls-14" d="M273,1365.52l1.23-2.14a4,4,0,0,0-3.5-6.06h-2.47a4,4,0,0,0-3.5,6.06l1.24,2.14A4,4,0,0,0,273,1365.52Z"/><path class="cls-14" d="M216.51,1387.09l1.24-2.14a4,4,0,0,0-3.5-6.06h-2.47a4,4,0,0,0-3.5,6.06l1.23,2.14A4,4,0,0,0,216.51,1387.09Z"/><path class="cls-14" d="M269.84,1422.77l1.23-2.14a4,4,0,0,0-3.5-6.06H265.1a4,4,0,0,0-3.5,6.06l1.24,2.14A4,4,0,0,0,269.84,1422.77Z"/><path class="cls-14" d="M247.88,1396.89l1.24-2.14a4,4,0,0,0-3.5-6.06h-2.47a4,4,0,0,0-3.5,6.06l1.23,2.14A4,4,0,0,0,247.88,1396.89Z"/><path class="cls-14" d="M191,1465.9l1.24-2.14a4,4,0,0,0-3.5-6.06h-2.47a4,4,0,0,0-3.5,6.06l1.24,2.14A4,4,0,0,0,191,1465.9Z"/><path class="cls-14" d="M226.71,1446.3l1.23-2.14a4,4,0,0,0-3.5-6.06H222a4,4,0,0,0-3.5,6.06l1.24,2.14A4,4,0,0,0,226.71,1446.3Z"/><path class="cls-14" d="M261.21,1465.9l1.24-2.14a4,4,0,0,0-3.5-6.06h-2.47a4,4,0,0,0-3.5,6.06l1.23,2.14A4,4,0,0,0,261.21,1465.9Z"/><path class="cls-14" d="M298.07,1474.53l1.24-2.14a4,4,0,0,0-3.5-6.06h-2.47a4,4,0,0,0-3.5,6.06l1.23,2.14A4,4,0,0,0,298.07,1474.53Z"/><path class="cls-14" d="M247.88,1500.41l1.24-2.14a4,4,0,0,0-3.5-6.06h-2.47a4,4,0,0,0-3.5,6.06l1.23,2.14A4,4,0,0,0,247.88,1500.41Z"/><path class="cls-14" d="M212.59,1506.68l1.24-2.14a4,4,0,0,0-3.5-6.06h-2.47a4,4,0,0,0-3.5,6.06l1.23,2.14A4,4,0,0,0,212.59,1506.68Z"/><path class="cls-14" d="M251,1538.05l1.23-2.14a4,4,0,0,0-3.5-6.06h-2.47a4,4,0,0,0-3.5,6.06l1.24,2.14A4,4,0,0,0,251,1538.05Z"/><path class="cls-14" d="M287.09,1528.64l1.24-2.14a4,4,0,0,0-3.5-6.06h-2.47a4,4,0,0,0-3.5,6.06l1.23,2.14A4,4,0,0,0,287.09,1528.64Z"/><path class="cls-14" d="M294.15,1557.26l1.23-2.14a4,4,0,0,0-3.5-6.06h-2.47a4,4,0,0,0-3.5,6.06l1.24,2.14A4,4,0,0,0,294.15,1557.26Z"/><path class="cls-14" d="M198.08,1554.91l1.24-2.14a4,4,0,0,0-3.5-6.06h-2.47a4,4,0,0,0-3.5,6.06l1.23,2.14A4,4,0,0,0,198.08,1554.91Z"/><rect class="cls-11" x="1731.56" y="1505.15" width="29.02" height="29.02"/><path class="cls-12" d="M1756.26,1400.85c19-23.21,28.53-71.49-15.66-182.29a6.1,6.1,0,0,0-.65,1.11L1693.73,1320a6.79,6.79,0,0,0,6.16,9.63h16.69l-35.56,79.5a6.79,6.79,0,0,0,6.2,9.56h17.6l-32.09,78.46a6.79,6.79,0,0,0,6.28,9.36h28.14a156.29,156.29,0,0,1,9.51-45.68C1728.85,1428.24,1748.56,1410.23,1756.26,1400.85Z"/><path class="cls-13" d="M1819.49,1497.16l-32.09-78.46H1805a6.79,6.79,0,0,0,6.2-9.56l-35.56-79.5h16.69a6.79,6.79,0,0,0,6.16-9.63l-46.22-100.34a6.78,6.78,0,0,0-11.67-1.11c44.19,110.8,34.71,159.08,15.66,182.29-7.7,9.38-27.41,27.39-39.6,60a156.29,156.29,0,0,0-9.51,45.68h106.06A6.79,6.79,0,0,0,1819.49,1497.16Z"/><path class="cls-14" d="M1753.88,1245.88l1.24-2.14a4,4,0,0,0-3.5-6.06h-2.47a4,4,0,0,0-3.5,6.06l1.23,2.14A4,4,0,0,0,1753.88,1245.88Z"/><path class="cls-14" d="M1725.65,1273.33l1.23-2.14a4,4,0,0,0-3.5-6.06h-2.47a4,4,0,0,0-3.5,6.06l1.24,2.14A4,4,0,0,0,1725.65,1273.33Z"/><path class="cls-14" d="M1779,1303.52l1.23-2.14a4,4,0,0,0-3.5-6.06h-2.47a4,4,0,0,0-3.5,6.06l1.24,2.14A4,4,0,0,0,1779,1303.52Z"/><path class="cls-14" d="M1722.51,1325.09l1.24-2.14a4,4,0,0,0-3.5-6.06h-2.47a4,4,0,0,0-3.5,6.06l1.23,2.14A4,4,0,0,0,1722.51,1325.09Z"/><path class="cls-14" d="M1775.84,1360.77l1.23-2.14a4,4,0,0,0-3.5-6.06h-2.47a4,4,0,0,0-3.5,6.06l1.24,2.14A4,4,0,0,0,1775.84,1360.77Z"/><path class="cls-14" d="M1753.88,1334.89l1.24-2.14a4,4,0,0,0-3.5-6.06h-2.47a4,4,0,0,0-3.5,6.06l1.23,2.14A4,4,0,0,0,1753.88,1334.89Z"/><path class="cls-14" d="M1697,1403.9l1.24-2.14a4,4,0,0,0-3.5-6.06h-2.47a4,4,0,0,0-3.5,6.06l1.24,2.14A4,4,0,0,0,1697,1403.9Z"/><path class="cls-14" d="M1732.71,1384.3l1.23-2.14a4,4,0,0,0-3.5-6.06H1728a4,4,0,0,0-3.5,6.06l1.24,2.14A4,4,0,0,0,1732.71,1384.3Z"/><path class="cls-14" d="M1767.21,1403.9l1.24-2.14a4,4,0,0,0-3.5-6.06h-2.47a4,4,0,0,0-3.5,6.06l1.23,2.14A4,4,0,0,0,1767.21,1403.9Z"/><path class="cls-14" d="M1804.07,1412.53l1.24-2.14a4,4,0,0,0-3.5-6.06h-2.47a4,4,0,0,0-3.5,6.06l1.23,2.14A4,4,0,0,0,1804.07,1412.53Z"/><path class="cls-14" d="M1753.88,1438.41l1.24-2.14a4,4,0,0,0-3.5-6.06h-2.47a4,4,0,0,0-3.5,6.06l1.23,2.14A4,4,0,0,0,1753.88,1438.41Z"/><path class="cls-14" d="M1718.59,1444.68l1.24-2.14a4,4,0,0,0-3.5-6.06h-2.47a4,4,0,0,0-3.5,6.06l1.23,2.14A4,4,0,0,0,1718.59,1444.68Z"/><path class="cls-14" d="M1757,1476.05l1.23-2.14a4,4,0,0,0-3.5-6.06h-2.47a4,4,0,0,0-3.5,6.06l1.24,2.14A4,4,0,0,0,1757,1476.05Z"/><path class="cls-14" d="M1793.09,1466.64l1.24-2.14a4,4,0,0,0-3.5-6.06h-2.47a4,4,0,0,0-3.5,6.06l1.23,2.14A4,4,0,0,0,1793.09,1466.64Z"/><path class="cls-14" d="M1800.15,1495.26l1.23-2.14a4,4,0,0,0-3.5-6.06h-2.47a4,4,0,0,0-3.5,6.06l1.24,2.14A4,4,0,0,0,1800.15,1495.26Z"/><path class="cls-14" d="M1704.08,1492.91l1.24-2.14a4,4,0,0,0-3.5-6.06h-2.47a4,4,0,0,0-3.5,6.06l1.23,2.14A4,4,0,0,0,1704.08,1492.91Z"/><rect class="cls-11" x="1665.56" y="1498.15" width="29.02" height="29.02"/><path class="cls-12" d="M1690.26,1393.85c19-23.21,28.53-71.49-15.66-182.29a6.1,6.1,0,0,0-.65,1.11L1627.73,1313a6.79,6.79,0,0,0,6.16,9.63h16.69l-35.56,79.5a6.79,6.79,0,0,0,6.2,9.56h17.6l-32.09,78.46a6.79,6.79,0,0,0,6.28,9.36h28.14a156.29,156.29,0,0,1,9.51-45.68C1662.85,1421.24,1682.56,1403.23,1690.26,1393.85Z"/><path class="cls-13" d="M1753.49,1490.16l-32.09-78.46H1739a6.79,6.79,0,0,0,6.2-9.56l-35.56-79.5h16.69a6.79,6.79,0,0,0,6.16-9.63l-46.22-100.34a6.78,6.78,0,0,0-11.67-1.11c44.19,110.8,34.71,159.08,15.66,182.29-7.7,9.38-27.41,27.39-39.6,60a156.29,156.29,0,0,0-9.51,45.68h106.06A6.79,6.79,0,0,0,1753.49,1490.16Z"/><path class="cls-14" d="M1687.88,1238.88l1.24-2.14a4,4,0,0,0-3.5-6.06h-2.47a4,4,0,0,0-3.5,6.06l1.23,2.14A4,4,0,0,0,1687.88,1238.88Z"/><path class="cls-14" d="M1659.65,1266.33l1.23-2.14a4,4,0,0,0-3.5-6.06h-2.47a4,4,0,0,0-3.5,6.06l1.24,2.14A4,4,0,0,0,1659.65,1266.33Z"/><path class="cls-14" d="M1713,1296.52l1.23-2.14a4,4,0,0,0-3.5-6.06h-2.47a4,4,0,0,0-3.5,6.06l1.24,2.14A4,4,0,0,0,1713,1296.52Z"/><path class="cls-14" d="M1656.51,1318.09l1.24-2.14a4,4,0,0,0-3.5-6.06h-2.47a4,4,0,0,0-3.5,6.06l1.23,2.14A4,4,0,0,0,1656.51,1318.09Z"/><path class="cls-14" d="M1709.84,1353.77l1.23-2.14a4,4,0,0,0-3.5-6.06h-2.47a4,4,0,0,0-3.5,6.06l1.24,2.14A4,4,0,0,0,1709.84,1353.77Z"/><path class="cls-14" d="M1687.88,1327.89l1.24-2.14a4,4,0,0,0-3.5-6.06h-2.47a4,4,0,0,0-3.5,6.06l1.23,2.14A4,4,0,0,0,1687.88,1327.89Z"/><path class="cls-14" d="M1631,1396.9l1.24-2.14a4,4,0,0,0-3.5-6.06h-2.47a4,4,0,0,0-3.5,6.06l1.24,2.14A4,4,0,0,0,1631,1396.9Z"/><path class="cls-14" d="M1666.71,1377.3l1.23-2.14a4,4,0,0,0-3.5-6.06H1662a4,4,0,0,0-3.5,6.06l1.24,2.14A4,4,0,0,0,1666.71,1377.3Z"/><path class="cls-14" d="M1701.21,1396.9l1.24-2.14a4,4,0,0,0-3.5-6.06h-2.47a4,4,0,0,0-3.5,6.06l1.23,2.14A4,4,0,0,0,1701.21,1396.9Z"/><path class="cls-14" d="M1738.07,1405.53l1.24-2.14a4,4,0,0,0-3.5-6.06h-2.47a4,4,0,0,0-3.5,6.06l1.23,2.14A4,4,0,0,0,1738.07,1405.53Z"/><path class="cls-14" d="M1687.88,1431.41l1.24-2.14a4,4,0,0,0-3.5-6.06h-2.47a4,4,0,0,0-3.5,6.06l1.23,2.14A4,4,0,0,0,1687.88,1431.41Z"/><path class="cls-14" d="M1652.59,1437.68l1.24-2.14a4,4,0,0,0-3.5-6.06h-2.47a4,4,0,0,0-3.5,6.06l1.23,2.14A4,4,0,0,0,1652.59,1437.68Z"/><path class="cls-14" d="M1691,1469.05l1.23-2.14a4,4,0,0,0-3.5-6.06h-2.47a4,4,0,0,0-3.5,6.06l1.24,2.14A4,4,0,0,0,1691,1469.05Z"/><path class="cls-14" d="M1727.09,1459.64l1.24-2.14a4,4,0,0,0-3.5-6.06h-2.47a4,4,0,0,0-3.5,6.06l1.23,2.14A4,4,0,0,0,1727.09,1459.64Z"/><path class="cls-14" d="M1734.15,1488.26l1.23-2.14a4,4,0,0,0-3.5-6.06h-2.47a4,4,0,0,0-3.5,6.06l1.24,2.14A4,4,0,0,0,1734.15,1488.26Z"/><path class="cls-14" d="M1638.08,1485.91l1.24-2.14a4,4,0,0,0-3.5-6.06h-2.47a4,4,0,0,0-3.5,6.06l1.23,2.14A4,4,0,0,0,1638.08,1485.91Z"/><rect class="cls-11" x="1814.56" y="1458.15" width="29.02" height="29.02"/><path class="cls-12" d="M1839.26,1353.85c19-23.21,28.53-71.49-15.66-182.29a6.1,6.1,0,0,0-.65,1.11L1776.73,1273a6.79,6.79,0,0,0,6.16,9.63h16.69l-35.56,79.5a6.79,6.79,0,0,0,6.2,9.56h17.6l-32.09,78.46a6.79,6.79,0,0,0,6.28,9.36h28.14a156.29,156.29,0,0,1,9.51-45.68C1811.85,1381.24,1831.56,1363.23,1839.26,1353.85Z"/><path class="cls-13" d="M1902.49,1450.16l-32.09-78.46H1888a6.79,6.79,0,0,0,6.2-9.56l-35.56-79.5h16.69a6.79,6.79,0,0,0,6.16-9.63l-46.22-100.34a6.78,6.78,0,0,0-11.67-1.11c44.19,110.8,34.71,159.08,15.66,182.29-7.7,9.38-27.41,27.39-39.6,60a156.29,156.29,0,0,0-9.51,45.68h106.06A6.79,6.79,0,0,0,1902.49,1450.16Z"/><path class="cls-14" d="M1836.88,1198.88l1.24-2.14a4,4,0,0,0-3.5-6.06h-2.47a4,4,0,0,0-3.5,6.06l1.23,2.14A4,4,0,0,0,1836.88,1198.88Z"/><path class="cls-14" d="M1808.65,1226.33l1.23-2.14a4,4,0,0,0-3.5-6.06h-2.47a4,4,0,0,0-3.5,6.06l1.24,2.14A4,4,0,0,0,1808.65,1226.33Z"/><path class="cls-14" d="M1862,1256.52l1.23-2.14a4,4,0,0,0-3.5-6.06h-2.47a4,4,0,0,0-3.5,6.06l1.24,2.14A4,4,0,0,0,1862,1256.52Z"/><path class="cls-14" d="M1805.51,1278.09l1.24-2.14a4,4,0,0,0-3.5-6.06h-2.47a4,4,0,0,0-3.5,6.06l1.23,2.14A4,4,0,0,0,1805.51,1278.09Z"/><path class="cls-14" d="M1858.84,1313.77l1.23-2.14a4,4,0,0,0-3.5-6.06h-2.47a4,4,0,0,0-3.5,6.06l1.24,2.14A4,4,0,0,0,1858.84,1313.77Z"/><path class="cls-14" d="M1836.88,1287.89l1.24-2.14a4,4,0,0,0-3.5-6.06h-2.47a4,4,0,0,0-3.5,6.06l1.23,2.14A4,4,0,0,0,1836.88,1287.89Z"/><path class="cls-14" d="M1780,1356.9l1.24-2.14a4,4,0,0,0-3.5-6.06h-2.47a4,4,0,0,0-3.5,6.06l1.24,2.14A4,4,0,0,0,1780,1356.9Z"/><path class="cls-14" d="M1815.71,1337.3l1.23-2.14a4,4,0,0,0-3.5-6.06H1811a4,4,0,0,0-3.5,6.06l1.24,2.14A4,4,0,0,0,1815.71,1337.3Z"/><path class="cls-14" d="M1850.21,1356.9l1.24-2.14a4,4,0,0,0-3.5-6.06h-2.47a4,4,0,0,0-3.5,6.06l1.23,2.14A4,4,0,0,0,1850.21,1356.9Z"/><path class="cls-14" d="M1887.07,1365.53l1.24-2.14a4,4,0,0,0-3.5-6.06h-2.47a4,4,0,0,0-3.5,6.06l1.23,2.14A4,4,0,0,0,1887.07,1365.53Z"/><path class="cls-14" d="M1836.88,1391.41l1.24-2.14a4,4,0,0,0-3.5-6.06h-2.47a4,4,0,0,0-3.5,6.06l1.23,2.14A4,4,0,0,0,1836.88,1391.41Z"/><path class="cls-14" d="M1801.59,1397.68l1.24-2.14a4,4,0,0,0-3.5-6.06h-2.47a4,4,0,0,0-3.5,6.06l1.23,2.14A4,4,0,0,0,1801.59,1397.68Z"/><path class="cls-14" d="M1840,1429.05l1.23-2.14a4,4,0,0,0-3.5-6.06h-2.47a4,4,0,0,0-3.5,6.06l1.24,2.14A4,4,0,0,0,1840,1429.05Z"/><path class="cls-14" d="M1876.09,1419.64l1.24-2.14a4,4,0,0,0-3.5-6.06h-2.47a4,4,0,0,0-3.5,6.06l1.23,2.14A4,4,0,0,0,1876.09,1419.64Z"/><path class="cls-14" d="M1883.15,1448.26l1.23-2.14a4,4,0,0,0-3.5-6.06h-2.47a4,4,0,0,0-3.5,6.06l1.24,2.14A4,4,0,0,0,1883.15,1448.26Z"/><path class="cls-14" d="M1787.08,1445.91l1.24-2.14a4,4,0,0,0-3.5-6.06h-2.47a4,4,0,0,0-3.5,6.06l1.23,2.14A4,4,0,0,0,1787.08,1445.91Z"/><rect class="cls-11" x="1873.56" y="1406.15" width="29.02" height="29.02"/><path class="cls-12" d="M1898.26,1301.85c19-23.21,28.53-71.49-15.66-182.29a6.1,6.1,0,0,0-.65,1.11L1835.73,1221a6.79,6.79,0,0,0,6.16,9.63h16.69l-35.56,79.5a6.79,6.79,0,0,0,6.2,9.56h17.6l-32.09,78.46a6.79,6.79,0,0,0,6.28,9.36h28.14a156.29,156.29,0,0,1,9.51-45.68C1870.85,1329.24,1890.56,1311.23,1898.26,1301.85Z"/><path class="cls-13" d="M1961.49,1398.16l-32.09-78.46H1947a6.79,6.79,0,0,0,6.2-9.56l-35.56-79.5h16.69a6.79,6.79,0,0,0,6.16-9.63l-46.22-100.34a6.78,6.78,0,0,0-11.67-1.11c44.19,110.8,34.71,159.08,15.66,182.29-7.7,9.38-27.41,27.39-39.6,60a156.29,156.29,0,0,0-9.51,45.68h106.06A6.79,6.79,0,0,0,1961.49,1398.16Z"/><path class="cls-14" d="M1895.88,1146.88l1.24-2.14a4,4,0,0,0-3.5-6.06h-2.47a4,4,0,0,0-3.5,6.06l1.23,2.14A4,4,0,0,0,1895.88,1146.88Z"/><path class="cls-14" d="M1867.65,1174.33l1.23-2.14a4,4,0,0,0-3.5-6.06h-2.47a4,4,0,0,0-3.5,6.06l1.24,2.14A4,4,0,0,0,1867.65,1174.33Z"/><path class="cls-14" d="M1921,1204.52l1.23-2.14a4,4,0,0,0-3.5-6.06h-2.47a4,4,0,0,0-3.5,6.06l1.24,2.14A4,4,0,0,0,1921,1204.52Z"/><path class="cls-14" d="M1864.51,1226.09l1.24-2.14a4,4,0,0,0-3.5-6.06h-2.47a4,4,0,0,0-3.5,6.06l1.23,2.14A4,4,0,0,0,1864.51,1226.09Z"/><path class="cls-14" d="M1917.84,1261.77l1.23-2.14a4,4,0,0,0-3.5-6.06h-2.47a4,4,0,0,0-3.5,6.06l1.24,2.14A4,4,0,0,0,1917.84,1261.77Z"/><path class="cls-14" d="M1895.88,1235.89l1.24-2.14a4,4,0,0,0-3.5-6.06h-2.47a4,4,0,0,0-3.5,6.06l1.23,2.14A4,4,0,0,0,1895.88,1235.89Z"/><path class="cls-14" d="M1839,1304.9l1.24-2.14a4,4,0,0,0-3.5-6.06h-2.47a4,4,0,0,0-3.5,6.06l1.24,2.14A4,4,0,0,0,1839,1304.9Z"/><path class="cls-14" d="M1874.71,1285.3l1.23-2.14a4,4,0,0,0-3.5-6.06H1870a4,4,0,0,0-3.5,6.06l1.24,2.14A4,4,0,0,0,1874.71,1285.3Z"/><path class="cls-14" d="M1909.21,1304.9l1.24-2.14a4,4,0,0,0-3.5-6.06h-2.47a4,4,0,0,0-3.5,6.06l1.23,2.14A4,4,0,0,0,1909.21,1304.9Z"/><path class="cls-14" d="M1946.07,1313.53l1.24-2.14a4,4,0,0,0-3.5-6.06h-2.47a4,4,0,0,0-3.5,6.06l1.23,2.14A4,4,0,0,0,1946.07,1313.53Z"/><path class="cls-14" d="M1895.88,1339.41l1.24-2.14a4,4,0,0,0-3.5-6.06h-2.47a4,4,0,0,0-3.5,6.06l1.23,2.14A4,4,0,0,0,1895.88,1339.41Z"/><path class="cls-14" d="M1860.59,1345.68l1.24-2.14a4,4,0,0,0-3.5-6.06h-2.47a4,4,0,0,0-3.5,6.06l1.23,2.14A4,4,0,0,0,1860.59,1345.68Z"/><path class="cls-14" d="M1899,1377.05l1.23-2.14a4,4,0,0,0-3.5-6.06h-2.47a4,4,0,0,0-3.5,6.06l1.24,2.14A4,4,0,0,0,1899,1377.05Z"/><path class="cls-14" d="M1935.09,1367.64l1.24-2.14a4,4,0,0,0-3.5-6.06h-2.47a4,4,0,0,0-3.5,6.06l1.23,2.14A4,4,0,0,0,1935.09,1367.64Z"/><path class="cls-14" d="M1942.15,1396.26l1.23-2.14a4,4,0,0,0-3.5-6.06h-2.47a4,4,0,0,0-3.5,6.06l1.24,2.14A4,4,0,0,0,1942.15,1396.26Z"/><path class="cls-14" d="M1846.08,1393.91l1.24-2.14a4,4,0,0,0-3.5-6.06h-2.47a4,4,0,0,0-3.5,6.06l1.23,2.14A4,4,0,0,0,1846.08,1393.91Z"/><rect class="cls-11" x="1939.24" y="1327.15" width="30.43" height="29.02"/><path class="cls-12" d="M1965.15,1222.85c20-23.21,29.92-71.49-16.43-182.29a6.22,6.22,0,0,0-.68,1.11L1899.56,1142a6.82,6.82,0,0,0,6.46,9.63h17.51l-37.3,79.5a6.82,6.82,0,0,0,6.5,9.56h18.46l-33.65,78.46a6.82,6.82,0,0,0,6.58,9.36h29.51a149.94,149.94,0,0,1,10-45.68C1936.4,1250.24,1957.07,1232.23,1965.15,1222.85Z"/><path class="cls-13" d="M2031.46,1319.16l-33.65-78.46h18.46a6.82,6.82,0,0,0,6.5-9.56l-37.3-79.5H2003a6.82,6.82,0,0,0,6.46-9.63L1961,1041.67a7.29,7.29,0,0,0-12.24-1.11c46.35,110.8,36.41,159.08,16.43,182.29-8.08,9.38-28.75,27.39-41.54,60a149.94,149.94,0,0,0-10,45.68h111.25A6.82,6.82,0,0,0,2031.46,1319.16Z"/><path class="cls-14" d="M1962.43,1068.24l1.47-2.42a4,4,0,0,0-3.46-6.14h-2.93a4,4,0,0,0-3.45,6.14l1.46,2.42A4,4,0,0,0,1962.43,1068.24Z"/><path class="cls-14" d="M1932.82,1095.68l1.47-2.42a4,4,0,0,0-3.46-6.13h-2.93a4,4,0,0,0-3.46,6.13l1.47,2.42A4,4,0,0,0,1932.82,1095.68Z"/><path class="cls-14" d="M1988.76,1125.88l1.46-2.42a4,4,0,0,0-3.45-6.14h-2.94a4,4,0,0,0-3.45,6.14l1.46,2.42A4.05,4.05,0,0,0,1988.76,1125.88Z"/><path class="cls-14" d="M1929.53,1147.44,1931,1145a4,4,0,0,0-3.46-6.13h-2.93a4,4,0,0,0-3.46,6.13l1.47,2.42A4,4,0,0,0,1929.53,1147.44Z"/><path class="cls-14" d="M1985.47,1183.12l1.46-2.42a4,4,0,0,0-3.46-6.13h-2.93a4,4,0,0,0-3.45,6.13l1.46,2.42A4,4,0,0,0,1985.47,1183.12Z"/><path class="cls-14" d="M1962.43,1157.24l1.47-2.42a4,4,0,0,0-3.46-6.13h-2.93a4,4,0,0,0-3.45,6.13l1.46,2.42A4,4,0,0,0,1962.43,1157.24Z"/><path class="cls-14" d="M1902.8,1226.26l1.47-2.42a4,4,0,0,0-3.46-6.14h-2.93a4,4,0,0,0-3.46,6.14l1.47,2.42A4,4,0,0,0,1902.8,1226.26Z"/><path class="cls-14" d="M1940.23,1206.65l1.46-2.42a4,4,0,0,0-3.46-6.13h-2.93a4,4,0,0,0-3.45,6.13l1.46,2.42A4,4,0,0,0,1940.23,1206.65Z"/><path class="cls-14" d="M1976.42,1226.26l1.46-2.42a4,4,0,0,0-3.45-6.14h-2.93a4,4,0,0,0-3.46,6.14l1.46,2.42A4.05,4.05,0,0,0,1976.42,1226.26Z"/><path class="cls-14" d="M1962.43,1260.76l1.47-2.42a4,4,0,0,0-3.46-6.13h-2.93a4,4,0,0,0-3.45,6.13l1.46,2.42A4,4,0,0,0,1962.43,1260.76Z"/><path class="cls-14" d="M1925.42,1267l1.47-2.42a4,4,0,0,0-3.46-6.13h-2.93a4,4,0,0,0-3.46,6.13l1.47,2.42A4,4,0,0,0,1925.42,1267Z"/><path class="cls-14" d="M1965.73,1298.4l1.46-2.42a4,4,0,0,0-3.46-6.13h-2.93a4,4,0,0,0-3.45,6.13l1.46,2.42A4,4,0,0,0,1965.73,1298.4Z"/><path class="cls-14" d="M2003.56,1289l1.47-2.42a4,4,0,0,0-3.46-6.13h-2.93a4,4,0,0,0-3.46,6.13l1.47,2.42A4,4,0,0,0,2003.56,1289Z"/><path class="cls-14" d="M1910.2,1315.26l1.47-2.42a4,4,0,0,0-3.46-6.13h-2.93a4,4,0,0,0-3.46,6.13l1.47,2.42A4,4,0,0,0,1910.2,1315.26Z"/><rect class="cls-11" x="1963.56" y="1413.15" width="29.02" height="29.02"/><path class="cls-12" d="M1988.26,1308.85c19-23.21,28.53-71.49-15.66-182.29a6.1,6.1,0,0,0-.65,1.11L1925.73,1228a6.79,6.79,0,0,0,6.16,9.63h16.69l-35.56,79.5a6.79,6.79,0,0,0,6.2,9.56h17.6l-32.09,78.46a6.79,6.79,0,0,0,6.28,9.36h28.14a156.29,156.29,0,0,1,9.51-45.68C1960.85,1336.24,1980.56,1318.23,1988.26,1308.85Z"/><path class="cls-13" d="M2051.49,1405.16l-32.09-78.46H2037a6.79,6.79,0,0,0,6.2-9.56l-35.56-79.5h16.69a6.79,6.79,0,0,0,6.16-9.63l-46.22-100.34a6.78,6.78,0,0,0-11.67-1.11c44.19,110.8,34.71,159.08,15.66,182.29-7.7,9.38-27.41,27.39-39.6,60a156.29,156.29,0,0,0-9.51,45.68h106.06A6.79,6.79,0,0,0,2051.49,1405.16Z"/><path class="cls-14" d="M1985.88,1153.88l1.24-2.14a4,4,0,0,0-3.5-6.06h-2.47a4,4,0,0,0-3.5,6.06l1.23,2.14A4,4,0,0,0,1985.88,1153.88Z"/><path class="cls-14" d="M1957.65,1181.33l1.23-2.14a4,4,0,0,0-3.5-6.06h-2.47a4,4,0,0,0-3.5,6.06l1.24,2.14A4,4,0,0,0,1957.65,1181.33Z"/><path class="cls-14" d="M1954.51,1233.09l1.24-2.14a4,4,0,0,0-3.5-6.06h-2.47a4,4,0,0,0-3.5,6.06l1.23,2.14A4,4,0,0,0,1954.51,1233.09Z"/><path class="cls-14" d="M2007.84,1268.77l1.23-2.14a4,4,0,0,0-3.5-6.06h-2.47a4,4,0,0,0-3.5,6.06l1.24,2.14A4,4,0,0,0,2007.84,1268.77Z"/><path class="cls-14" d="M1985.88,1242.89l1.24-2.14a4,4,0,0,0-3.5-6.06h-2.47a4,4,0,0,0-3.5,6.06l1.23,2.14A4,4,0,0,0,1985.88,1242.89Z"/><path class="cls-14" d="M1929,1311.9l1.24-2.14a4,4,0,0,0-3.5-6.06h-2.47a4,4,0,0,0-3.5,6.06l1.24,2.14A4,4,0,0,0,1929,1311.9Z"/><path class="cls-14" d="M1964.71,1292.3l1.23-2.14a4,4,0,0,0-3.5-6.06H1960a4,4,0,0,0-3.5,6.06l1.24,2.14A4,4,0,0,0,1964.71,1292.3Z"/><path class="cls-14" d="M1999.21,1311.9l1.24-2.14a4,4,0,0,0-3.5-6.06h-2.47a4,4,0,0,0-3.5,6.06l1.23,2.14A4,4,0,0,0,1999.21,1311.9Z"/><path class="cls-14" d="M1985.88,1346.41l1.24-2.14a4,4,0,0,0-3.5-6.06h-2.47a4,4,0,0,0-3.5,6.06l1.23,2.14A4,4,0,0,0,1985.88,1346.41Z"/><path class="cls-14" d="M1950.59,1352.68l1.24-2.14a4,4,0,0,0-3.5-6.06h-2.47a4,4,0,0,0-3.5,6.06l1.23,2.14A4,4,0,0,0,1950.59,1352.68Z"/><path class="cls-14" d="M1989,1384.05l1.23-2.14a4,4,0,0,0-3.5-6.06h-2.47a4,4,0,0,0-3.5,6.06l1.24,2.14A4,4,0,0,0,1989,1384.05Z"/><path class="cls-14" d="M1936.08,1400.91l1.24-2.14a4,4,0,0,0-3.5-6.06h-2.47a4,4,0,0,0-3.5,6.06l1.23,2.14A4,4,0,0,0,1936.08,1400.91Z"/><rect class="cls-11" x="1905.56" y="1485.15" width="29.02" height="29.02"/><path class="cls-12" d="M1930.26,1380.85c19-23.21,28.53-71.49-15.66-182.29a6.1,6.1,0,0,0-.65,1.11L1867.73,1300a6.79,6.79,0,0,0,6.16,9.63h16.69l-35.56,79.5a6.79,6.79,0,0,0,6.2,9.56h17.6l-32.09,78.46a6.79,6.79,0,0,0,6.28,9.36h28.14a156.29,156.29,0,0,1,9.51-45.68C1902.85,1408.24,1922.56,1390.23,1930.26,1380.85Z"/><path class="cls-13" d="M1993.49,1477.16l-32.09-78.46H1979a6.79,6.79,0,0,0,6.2-9.56l-35.56-79.5h16.69a6.79,6.79,0,0,0,6.16-9.63l-46.22-100.34a6.78,6.78,0,0,0-11.67-1.11c44.19,110.8,34.71,159.08,15.66,182.29-7.7,9.38-27.41,27.39-39.6,60a156.29,156.29,0,0,0-9.51,45.68h106.06A6.79,6.79,0,0,0,1993.49,1477.16Z"/><path class="cls-14" d="M1927.88,1225.88l1.24-2.14a4,4,0,0,0-3.5-6.06h-2.47a4,4,0,0,0-3.5,6.06l1.23,2.14A4,4,0,0,0,1927.88,1225.88Z"/><path class="cls-14" d="M1899.65,1253.33l1.23-2.14a4,4,0,0,0-3.5-6.06h-2.47a4,4,0,0,0-3.5,6.06l1.24,2.14A4,4,0,0,0,1899.65,1253.33Z"/><path class="cls-14" d="M1953,1283.52l1.23-2.14a4,4,0,0,0-3.5-6.06h-2.47a4,4,0,0,0-3.5,6.06l1.24,2.14A4,4,0,0,0,1953,1283.52Z"/><path class="cls-14" d="M1896.51,1305.09l1.24-2.14a4,4,0,0,0-3.5-6.06h-2.47a4,4,0,0,0-3.5,6.06l1.23,2.14A4,4,0,0,0,1896.51,1305.09Z"/><path class="cls-14" d="M1949.84,1340.77l1.23-2.14a4,4,0,0,0-3.5-6.06h-2.47a4,4,0,0,0-3.5,6.06l1.24,2.14A4,4,0,0,0,1949.84,1340.77Z"/><path class="cls-14" d="M1927.88,1314.89l1.24-2.14a4,4,0,0,0-3.5-6.06h-2.47a4,4,0,0,0-3.5,6.06l1.23,2.14A4,4,0,0,0,1927.88,1314.89Z"/><path class="cls-14" d="M1871,1383.9l1.24-2.14a4,4,0,0,0-3.5-6.06h-2.47a4,4,0,0,0-3.5,6.06l1.24,2.14A4,4,0,0,0,1871,1383.9Z"/><path class="cls-14" d="M1906.71,1364.3l1.23-2.14a4,4,0,0,0-3.5-6.06H1902a4,4,0,0,0-3.5,6.06l1.24,2.14A4,4,0,0,0,1906.71,1364.3Z"/><path class="cls-14" d="M1941.21,1383.9l1.24-2.14a4,4,0,0,0-3.5-6.06h-2.47a4,4,0,0,0-3.5,6.06l1.23,2.14A4,4,0,0,0,1941.21,1383.9Z"/><path class="cls-14" d="M1978.07,1392.53l1.24-2.14a4,4,0,0,0-3.5-6.06h-2.47a4,4,0,0,0-3.5,6.06l1.23,2.14A4,4,0,0,0,1978.07,1392.53Z"/><path class="cls-14" d="M1927.88,1418.41l1.24-2.14a4,4,0,0,0-3.5-6.06h-2.47a4,4,0,0,0-3.5,6.06l1.23,2.14A4,4,0,0,0,1927.88,1418.41Z"/><path class="cls-14" d="M1892.59,1424.68l1.24-2.14a4,4,0,0,0-3.5-6.06h-2.47a4,4,0,0,0-3.5,6.06l1.23,2.14A4,4,0,0,0,1892.59,1424.68Z"/><path class="cls-14" d="M1931,1456.05l1.23-2.14a4,4,0,0,0-3.5-6.06h-2.47a4,4,0,0,0-3.5,6.06l1.24,2.14A4,4,0,0,0,1931,1456.05Z"/><path class="cls-14" d="M1967.09,1446.64l1.24-2.14a4,4,0,0,0-3.5-6.06h-2.47a4,4,0,0,0-3.5,6.06l1.23,2.14A4,4,0,0,0,1967.09,1446.64Z"/><path class="cls-14" d="M1974.15,1475.26l1.23-2.14a4,4,0,0,0-3.5-6.06h-2.47a4,4,0,0,0-3.5,6.06l1.24,2.14A4,4,0,0,0,1974.15,1475.26Z"/><path class="cls-14" d="M1878.08,1472.91l1.24-2.14a4,4,0,0,0-3.5-6.06h-2.47a4,4,0,0,0-3.5,6.06l1.23,2.14A4,4,0,0,0,1878.08,1472.91Z"/><path class="cls-12" d="M98.33,1593.21C125,1560.72,138.27,1493.12,76.39,1338a10,10,0,0,0-.91,1.56L10.77,1480a9.5,9.5,0,0,0,8.63,13.48H42.76L-7,1604.83a9.5,9.5,0,0,0,8.68,13.38H26.29l-44.93,109.87a9.5,9.5,0,0,0,8.8,13.1H29.55a218.72,218.72,0,0,1,13.32-64C59.94,1631.58,87.55,1606.35,98.33,1593.21Z"/><path class="cls-13" d="M186.86,1728.08l-44.93-109.87h24.65a9.5,9.5,0,0,0,8.67-13.38L125.46,1493.5h23.37a9.5,9.5,0,0,0,8.63-13.48l-64.72-140.5A9.5,9.5,0,0,0,76.39,1338c61.88,155.16,48.61,222.76,21.94,255.25-10.78,13.14-38.39,38.37-55.46,84a218.72,218.72,0,0,0-13.32,64H178.07A9.5,9.5,0,0,0,186.86,1728.08Z"/><path class="cls-14" d="M93.59,1378.65l4.53-7.85a4,4,0,0,0-3.5-6.06H85.56a4,4,0,0,0-3.5,6.06l4.53,7.85A4,4,0,0,0,93.59,1378.65Z"/><path class="cls-14" d="M54.06,1417.08l4.53-7.85a4,4,0,0,0-3.5-6.06H46a4,4,0,0,0-3.5,6.06l4.53,7.85A4,4,0,0,0,54.06,1417.08Z"/><path class="cls-14" d="M128.73,1459.36l4.53-7.85a4,4,0,0,0-3.5-6.06H120.7a4,4,0,0,0-3.5,6.06l4.53,7.85A4,4,0,0,0,128.73,1459.36Z"/><path class="cls-14" d="M49.66,1489.56l4.54-7.85a4,4,0,0,0-3.5-6.06H41.63a4,4,0,0,0-3.5,6.06l4.54,7.85A4,4,0,0,0,49.66,1489.56Z"/><path class="cls-14" d="M124.34,1539.52l4.53-7.85a4,4,0,0,0-3.5-6.06h-9.06a4,4,0,0,0-3.5,6.06l4.53,7.85A4,4,0,0,0,124.34,1539.52Z"/><path class="cls-14" d="M93.59,1503.28l4.53-7.84a4,4,0,0,0-3.5-6.07H85.56a4,4,0,0,0-3.5,6.07l4.53,7.84A4,4,0,0,0,93.59,1503.28Z"/><path class="cls-14" d="M63.94,1572.46l4.53-7.84a4,4,0,0,0-3.5-6.06H55.91a4,4,0,0,0-3.5,6.06l4.53,7.84A4,4,0,0,0,63.94,1572.46Z"/><path class="cls-12" d="M290.33,1653.21c26.67-32.49,39.94-100.09-21.94-255.25a10,10,0,0,0-.91,1.56L202.77,1540a9.5,9.5,0,0,0,8.63,13.48h23.36L185,1664.83a9.5,9.5,0,0,0,8.68,13.38h24.64l-44.93,109.87a9.5,9.5,0,0,0,8.8,13.1h39.39a218.72,218.72,0,0,1,13.32-64C251.94,1691.58,279.55,1666.35,290.33,1653.21Z"/><path class="cls-13" d="M378.86,1788.08l-44.93-109.87h24.65a9.5,9.5,0,0,0,8.67-13.38L317.46,1553.5h23.37a9.5,9.5,0,0,0,8.63-13.48l-64.72-140.5a9.5,9.5,0,0,0-16.35-1.56c61.88,155.16,48.61,222.76,21.94,255.25-10.78,13.14-38.39,38.37-55.46,84a218.72,218.72,0,0,0-13.32,64H370.07A9.5,9.5,0,0,0,378.86,1788.08Z"/><path class="cls-14" d="M285.59,1438.65l4.53-7.85a4,4,0,0,0-3.5-6.06h-9.06a4,4,0,0,0-3.5,6.06l4.53,7.85A4,4,0,0,0,285.59,1438.65Z"/><path class="cls-14" d="M246.06,1477.08l4.53-7.85a4,4,0,0,0-3.5-6.06H238a4,4,0,0,0-3.5,6.06l4.53,7.85A4,4,0,0,0,246.06,1477.08Z"/><path class="cls-14" d="M320.73,1519.36l4.53-7.85a4,4,0,0,0-3.5-6.06H312.7a4,4,0,0,0-3.5,6.06l4.53,7.85A4,4,0,0,0,320.73,1519.36Z"/><path class="cls-14" d="M241.66,1549.56l4.54-7.85a4,4,0,0,0-3.5-6.06h-9.07a4,4,0,0,0-3.5,6.06l4.54,7.85A4,4,0,0,0,241.66,1549.56Z"/><path class="cls-14" d="M285.59,1563.28l4.53-7.84a4,4,0,0,0-3.5-6.07h-9.06a4,4,0,0,0-3.5,6.07l4.53,7.84A4,4,0,0,0,285.59,1563.28Z"/><path class="cls-12" d="M292.33,1740.21c26.67-32.49,39.94-100.09-21.94-255.25a10,10,0,0,0-.91,1.56L204.77,1627a9.5,9.5,0,0,0,8.63,13.48h23.36L187,1751.83a9.5,9.5,0,0,0,8.68,13.38h24.64l-44.93,109.87a9.5,9.5,0,0,0,8.8,13.1h39.39a218.72,218.72,0,0,1,13.32-64C253.94,1778.58,281.55,1753.35,292.33,1740.21Z"/><path class="cls-13" d="M380.86,1875.08l-44.93-109.87h24.65a9.5,9.5,0,0,0,8.67-13.38L319.46,1640.5h23.37a9.5,9.5,0,0,0,8.63-13.48l-64.72-140.5a9.5,9.5,0,0,0-16.35-1.56c61.88,155.16,48.61,222.76,21.94,255.25-10.78,13.14-38.39,38.37-55.46,84a218.72,218.72,0,0,0-13.32,64H372.07A9.5,9.5,0,0,0,380.86,1875.08Z"/><path class="cls-14" d="M287.59,1525.65l4.53-7.85a4,4,0,0,0-3.5-6.06h-9.06a4,4,0,0,0-3.5,6.06l4.53,7.85A4,4,0,0,0,287.59,1525.65Z"/><path class="cls-14" d="M248.06,1564.08l4.53-7.85a4,4,0,0,0-3.5-6.06H240a4,4,0,0,0-3.5,6.06l4.53,7.85A4,4,0,0,0,248.06,1564.08Z"/><path class="cls-12" d="M443.33,1649.21c26.67-32.49,39.94-100.09-21.94-255.25a10,10,0,0,0-.91,1.56L355.77,1536a9.5,9.5,0,0,0,8.63,13.48h23.36L338,1660.83a9.5,9.5,0,0,0,8.68,13.38h24.64l-44.93,109.87a9.5,9.5,0,0,0,8.8,13.1h39.39a218.72,218.72,0,0,1,13.32-64C404.94,1687.58,432.55,1662.35,443.33,1649.21Z"/><path class="cls-13" d="M531.86,1784.08l-44.93-109.87h24.65a9.5,9.5,0,0,0,8.67-13.38L470.46,1549.5h23.37a9.5,9.5,0,0,0,8.63-13.48l-64.72-140.5a9.5,9.5,0,0,0-16.35-1.56c61.88,155.16,48.61,222.76,21.94,255.25-10.78,13.14-38.39,38.37-55.46,84a218.72,218.72,0,0,0-13.32,64H523.07A9.5,9.5,0,0,0,531.86,1784.08Z"/><path class="cls-14" d="M438.59,1434.65l4.53-7.85a4,4,0,0,0-3.5-6.06h-9.06a4,4,0,0,0-3.5,6.06l4.53,7.85A4,4,0,0,0,438.59,1434.65Z"/><path class="cls-14" d="M399.06,1473.08l4.53-7.85a4,4,0,0,0-3.5-6.06H391a4,4,0,0,0-3.5,6.06l4.53,7.85A4,4,0,0,0,399.06,1473.08Z"/><path class="cls-14" d="M473.73,1515.36l4.53-7.85a4,4,0,0,0-3.5-6.06H465.7a4,4,0,0,0-3.5,6.06l4.53,7.85A4,4,0,0,0,473.73,1515.36Z"/><path class="cls-14" d="M394.66,1545.56l4.54-7.85a4,4,0,0,0-3.5-6.06h-9.07a4,4,0,0,0-3.5,6.06l4.54,7.85A4,4,0,0,0,394.66,1545.56Z"/><path class="cls-14" d="M438.59,1559.28l4.53-7.84a4,4,0,0,0-3.5-6.07h-9.06a4,4,0,0,0-3.5,6.07l4.53,7.84A4,4,0,0,0,438.59,1559.28Z"/><path class="cls-12" d="M1528.33,1660.21c26.67-32.49,39.94-100.09-21.94-255.25a10,10,0,0,0-.91,1.56L1440.77,1547a9.5,9.5,0,0,0,8.63,13.48h23.36L1423,1671.83a9.5,9.5,0,0,0,8.68,13.38h24.64l-44.93,109.87a9.5,9.5,0,0,0,8.8,13.1h39.39a218.72,218.72,0,0,1,13.32-64C1489.94,1698.58,1517.55,1673.35,1528.33,1660.21Z"/><path class="cls-13" d="M1616.86,1795.08l-44.93-109.87h24.65a9.5,9.5,0,0,0,8.67-13.38l-49.79-111.33h23.37a9.5,9.5,0,0,0,8.63-13.48l-64.72-140.5a9.5,9.5,0,0,0-16.35-1.56c61.88,155.16,48.61,222.76,21.94,255.25-10.78,13.14-38.39,38.37-55.46,84a218.72,218.72,0,0,0-13.32,64h148.52A9.5,9.5,0,0,0,1616.86,1795.08Z"/><path class="cls-14" d="M1523.59,1445.65l4.53-7.85a4,4,0,0,0-3.5-6.06h-9.06a4,4,0,0,0-3.5,6.06l4.53,7.85A4,4,0,0,0,1523.59,1445.65Z"/><path class="cls-14" d="M1484.06,1484.08l4.53-7.85a4,4,0,0,0-3.5-6.06H1476a4,4,0,0,0-3.5,6.06l4.53,7.85A4,4,0,0,0,1484.06,1484.08Z"/><path class="cls-14" d="M1558.73,1526.36l4.53-7.85a4,4,0,0,0-3.5-6.06h-9.06a4,4,0,0,0-3.5,6.06l4.53,7.85A4,4,0,0,0,1558.73,1526.36Z"/><path class="cls-14" d="M1479.66,1556.56l4.54-7.85a4,4,0,0,0-3.5-6.06h-9.07a4,4,0,0,0-3.5,6.06l4.54,7.85A4,4,0,0,0,1479.66,1556.56Z"/><path class="cls-14" d="M1523.59,1570.28l4.53-7.84a4,4,0,0,0-3.5-6.07h-9.06a4,4,0,0,0-3.5,6.07l4.53,7.84A4,4,0,0,0,1523.59,1570.28Z"/><path class="cls-12" d="M350.33,1584.21c26.67-32.49,39.94-100.09-21.94-255.25a10,10,0,0,0-.91,1.56L262.77,1471a9.5,9.5,0,0,0,8.63,13.48h23.36L245,1595.83a9.5,9.5,0,0,0,8.68,13.38h24.64l-44.93,109.87a9.5,9.5,0,0,0,8.8,13.1h39.39a218.72,218.72,0,0,1,13.32-64C311.94,1622.58,339.55,1597.35,350.33,1584.21Z"/><path class="cls-13" d="M438.86,1719.08l-44.93-109.87h24.65a9.5,9.5,0,0,0,8.67-13.38L377.46,1484.5h23.37a9.5,9.5,0,0,0,8.63-13.48l-64.72-140.5a9.5,9.5,0,0,0-16.35-1.56c61.88,155.16,48.61,222.76,21.94,255.25-10.78,13.14-38.39,38.37-55.46,84a218.72,218.72,0,0,0-13.32,64H430.07A9.5,9.5,0,0,0,438.86,1719.08Z"/><path class="cls-14" d="M345.59,1369.65l4.53-7.85a4,4,0,0,0-3.5-6.06h-9.06a4,4,0,0,0-3.5,6.06l4.53,7.85A4,4,0,0,0,345.59,1369.65Z"/><path class="cls-14" d="M306.06,1408.08l4.53-7.85a4,4,0,0,0-3.5-6.06H298a4,4,0,0,0-3.5,6.06l4.53,7.85A4,4,0,0,0,306.06,1408.08Z"/><path class="cls-14" d="M380.73,1450.36l4.53-7.85a4,4,0,0,0-3.5-6.06H372.7a4,4,0,0,0-3.5,6.06l4.53,7.85A4,4,0,0,0,380.73,1450.36Z"/><path class="cls-14" d="M301.66,1480.56l4.54-7.85a4,4,0,0,0-3.5-6.06h-9.07a4,4,0,0,0-3.5,6.06l4.54,7.85A4,4,0,0,0,301.66,1480.56Z"/><path class="cls-14" d="M376.34,1530.52l4.53-7.85a4,4,0,0,0-3.5-6.06h-9.06a4,4,0,0,0-3.5,6.06l4.53,7.85A4,4,0,0,0,376.34,1530.52Z"/><path class="cls-14" d="M345.59,1494.28l4.53-7.84a4,4,0,0,0-3.5-6.07h-9.06a4,4,0,0,0-3.5,6.07l4.53,7.84A4,4,0,0,0,345.59,1494.28Z"/><path class="cls-14" d="M315.94,1563.46l4.53-7.84a4,4,0,0,0-3.5-6.06h-9.06a4,4,0,0,0-3.5,6.06l4.53,7.84A4,4,0,0,0,315.94,1563.46Z"/><path class="cls-12" d="M1607.33,1564.21c26.67-32.49,39.94-100.09-21.94-255.25a10,10,0,0,0-.91,1.56L1519.77,1451a9.5,9.5,0,0,0,8.63,13.48h23.36L1502,1575.83a9.5,9.5,0,0,0,8.68,13.38h24.64l-44.93,109.87a9.5,9.5,0,0,0,8.8,13.1h39.39a218.72,218.72,0,0,1,13.32-64C1568.94,1602.58,1596.55,1577.35,1607.33,1564.21Z"/><path class="cls-13" d="M1695.86,1699.08l-44.93-109.87h24.65a9.5,9.5,0,0,0,8.67-13.38l-49.79-111.33h23.37a9.5,9.5,0,0,0,8.63-13.48l-64.72-140.5a9.5,9.5,0,0,0-16.35-1.56c61.88,155.16,48.61,222.76,21.94,255.25-10.78,13.14-38.39,38.37-55.46,84a218.72,218.72,0,0,0-13.32,64h148.52A9.5,9.5,0,0,0,1695.86,1699.08Z"/><path class="cls-14" d="M1602.59,1349.65l4.53-7.85a4,4,0,0,0-3.5-6.06h-9.06a4,4,0,0,0-3.5,6.06l4.53,7.85A4,4,0,0,0,1602.59,1349.65Z"/><path class="cls-14" d="M1563.06,1388.08l4.53-7.85a4,4,0,0,0-3.5-6.06H1555a4,4,0,0,0-3.5,6.06l4.53,7.85A4,4,0,0,0,1563.06,1388.08Z"/><path class="cls-14" d="M1637.73,1430.36l4.53-7.85a4,4,0,0,0-3.5-6.06h-9.06a4,4,0,0,0-3.5,6.06l4.53,7.85A4,4,0,0,0,1637.73,1430.36Z"/><path class="cls-14" d="M1558.66,1460.56l4.54-7.85a4,4,0,0,0-3.5-6.06h-9.07a4,4,0,0,0-3.5,6.06l4.54,7.85A4,4,0,0,0,1558.66,1460.56Z"/><path class="cls-14" d="M1633.34,1510.52l4.53-7.85a4,4,0,0,0-3.5-6.06h-9.06a4,4,0,0,0-3.5,6.06l4.53,7.85A4,4,0,0,0,1633.34,1510.52Z"/><path class="cls-14" d="M1602.59,1474.28l4.53-7.84a4,4,0,0,0-3.5-6.07h-9.06a4,4,0,0,0-3.5,6.07l4.53,7.84A4,4,0,0,0,1602.59,1474.28Z"/><path class="cls-14" d="M1523,1570.92l4.53-7.85a4,4,0,0,0-3.5-6.06H1515a4,4,0,0,0-3.5,6.06l4.53,7.85A4,4,0,0,0,1523,1570.92Z"/><path class="cls-14" d="M1572.94,1543.46l4.53-7.84a4,4,0,0,0-3.5-6.06h-9.06a4,4,0,0,0-3.5,6.06l4.53,7.84A4,4,0,0,0,1572.94,1543.46Z"/><path class="cls-14" d="M1621.26,1570.92l4.53-7.85a4,4,0,0,0-3.5-6.06h-9.06a4,4,0,0,0-3.5,6.06l4.53,7.85A4,4,0,0,0,1621.26,1570.92Z"/><path class="cls-12" d="M1698.33,1624.21c26.67-32.49,39.94-100.09-21.94-255.25a10,10,0,0,0-.91,1.56L1610.77,1511a9.5,9.5,0,0,0,8.63,13.48h23.36L1593,1635.83a9.5,9.5,0,0,0,8.68,13.38h24.64l-44.93,109.87a9.5,9.5,0,0,0,8.8,13.1h39.39a218.72,218.72,0,0,1,13.32-64C1659.94,1662.58,1687.55,1637.35,1698.33,1624.21Z"/><path class="cls-13" d="M1786.86,1759.08l-44.93-109.87h24.65a9.5,9.5,0,0,0,8.67-13.38l-49.79-111.33h23.37a9.5,9.5,0,0,0,8.63-13.48l-64.72-140.5a9.5,9.5,0,0,0-16.35-1.56c61.88,155.16,48.61,222.76,21.94,255.25-10.78,13.14-38.39,38.37-55.46,84a218.72,218.72,0,0,0-13.32,64h148.52A9.5,9.5,0,0,0,1786.86,1759.08Z"/><path class="cls-14" d="M1693.59,1409.65l4.53-7.85a4,4,0,0,0-3.5-6.06h-9.06a4,4,0,0,0-3.5,6.06l4.53,7.85A4,4,0,0,0,1693.59,1409.65Z"/><path class="cls-14" d="M1654.06,1448.08l4.53-7.85a4,4,0,0,0-3.5-6.06H1646a4,4,0,0,0-3.5,6.06l4.53,7.85A4,4,0,0,0,1654.06,1448.08Z"/><path class="cls-14" d="M1728.73,1490.36l4.53-7.85a4,4,0,0,0-3.5-6.06h-9.06a4,4,0,0,0-3.5,6.06l4.53,7.85A4,4,0,0,0,1728.73,1490.36Z"/><path class="cls-14" d="M1649.66,1520.56l4.54-7.85a4,4,0,0,0-3.5-6.06h-9.07a4,4,0,0,0-3.5,6.06l4.54,7.85A4,4,0,0,0,1649.66,1520.56Z"/><path class="cls-14" d="M1724.34,1570.52l4.53-7.85a4,4,0,0,0-3.5-6.06h-9.06a4,4,0,0,0-3.5,6.06l4.53,7.85A4,4,0,0,0,1724.34,1570.52Z"/><path class="cls-14" d="M1693.59,1534.28l4.53-7.84a4,4,0,0,0-3.5-6.07h-9.06a4,4,0,0,0-3.5,6.07l4.53,7.84A4,4,0,0,0,1693.59,1534.28Z"/><path class="cls-12" d="M1806.33,1594.21c26.67-32.49,39.94-100.09-21.94-255.25a10,10,0,0,0-.91,1.56L1718.77,1481a9.5,9.5,0,0,0,8.63,13.48h23.36L1701,1605.83a9.5,9.5,0,0,0,8.68,13.38h24.64l-44.93,109.87a9.5,9.5,0,0,0,8.8,13.1h39.39a218.72,218.72,0,0,1,13.32-64C1767.94,1632.58,1795.55,1607.35,1806.33,1594.21Z"/><path class="cls-13" d="M1894.86,1729.08l-44.93-109.87h24.65a9.5,9.5,0,0,0,8.67-13.38l-49.79-111.33h23.37a9.5,9.5,0,0,0,8.63-13.48l-64.72-140.5a9.5,9.5,0,0,0-16.35-1.56c61.88,155.16,48.61,222.76,21.94,255.25-10.78,13.14-38.39,38.37-55.46,84a218.72,218.72,0,0,0-13.32,64h148.52A9.5,9.5,0,0,0,1894.86,1729.08Z"/><path class="cls-14" d="M1801.59,1379.65l4.53-7.85a4,4,0,0,0-3.5-6.06h-9.06a4,4,0,0,0-3.5,6.06l4.53,7.85A4,4,0,0,0,1801.59,1379.65Z"/><path class="cls-14" d="M1762.06,1418.08l4.53-7.85a4,4,0,0,0-3.5-6.06H1754a4,4,0,0,0-3.5,6.06l4.53,7.85A4,4,0,0,0,1762.06,1418.08Z"/><path class="cls-14" d="M1836.73,1460.36l4.53-7.85a4,4,0,0,0-3.5-6.06h-9.06a4,4,0,0,0-3.5,6.06l4.53,7.85A4,4,0,0,0,1836.73,1460.36Z"/><path class="cls-14" d="M1757.66,1490.56l4.54-7.85a4,4,0,0,0-3.5-6.06h-9.07a4,4,0,0,0-3.5,6.06l4.54,7.85A4,4,0,0,0,1757.66,1490.56Z"/><path class="cls-14" d="M1832.34,1540.52l4.53-7.85a4,4,0,0,0-3.5-6.06h-9.06a4,4,0,0,0-3.5,6.06l4.53,7.85A4,4,0,0,0,1832.34,1540.52Z"/><path class="cls-14" d="M1801.59,1504.28l4.53-7.84a4,4,0,0,0-3.5-6.07h-9.06a4,4,0,0,0-3.5,6.07l4.53,7.84A4,4,0,0,0,1801.59,1504.28Z"/><path class="cls-14" d="M1771.94,1573.46l4.53-7.84a4,4,0,0,0-3.5-6.06h-9.06a4,4,0,0,0-3.5,6.06l4.53,7.84A4,4,0,0,0,1771.94,1573.46Z"/><path class="cls-12" d="M1702.33,1532.21c26.67-32.49,39.94-100.09-21.94-255.25a10,10,0,0,0-.91,1.56L1614.77,1419a9.5,9.5,0,0,0,8.63,13.48h23.36L1597,1543.83a9.5,9.5,0,0,0,8.68,13.38h24.64l-44.93,109.87a9.5,9.5,0,0,0,8.8,13.1h39.39a218.72,218.72,0,0,1,13.32-64C1663.94,1570.58,1691.55,1545.35,1702.33,1532.21Z"/><path class="cls-13" d="M1790.86,1667.08l-44.93-109.87h24.65a9.5,9.5,0,0,0,8.67-13.38l-49.79-111.33h23.37a9.5,9.5,0,0,0,8.63-13.48l-64.72-140.5a9.5,9.5,0,0,0-16.35-1.56c61.88,155.16,48.61,222.76,21.94,255.25-10.78,13.14-38.39,38.37-55.46,84a218.72,218.72,0,0,0-13.32,64h148.52A9.5,9.5,0,0,0,1790.86,1667.08Z"/><path class="cls-14" d="M1697.59,1317.65l4.53-7.85a4,4,0,0,0-3.5-6.06h-9.06a4,4,0,0,0-3.5,6.06l4.53,7.85A4,4,0,0,0,1697.59,1317.65Z"/><path class="cls-14" d="M1658.06,1356.08l4.53-7.85a4,4,0,0,0-3.5-6.06H1650a4,4,0,0,0-3.5,6.06l4.53,7.85A4,4,0,0,0,1658.06,1356.08Z"/><path class="cls-14" d="M1732.73,1398.36l4.53-7.85a4,4,0,0,0-3.5-6.06h-9.06a4,4,0,0,0-3.5,6.06l4.53,7.85A4,4,0,0,0,1732.73,1398.36Z"/><path class="cls-14" d="M1653.66,1428.56l4.54-7.85a4,4,0,0,0-3.5-6.06h-9.07a4,4,0,0,0-3.5,6.06l4.54,7.85A4,4,0,0,0,1653.66,1428.56Z"/><path class="cls-14" d="M1728.34,1478.52l4.53-7.85a4,4,0,0,0-3.5-6.06h-9.06a4,4,0,0,0-3.5,6.06l4.53,7.85A4,4,0,0,0,1728.34,1478.52Z"/><path class="cls-14" d="M1697.59,1442.28l4.53-7.84a4,4,0,0,0-3.5-6.07h-9.06a4,4,0,0,0-3.5,6.07l4.53,7.84A4,4,0,0,0,1697.59,1442.28Z"/><path class="cls-14" d="M1618,1538.92l4.53-7.85a4,4,0,0,0-3.5-6.06H1610a4,4,0,0,0-3.5,6.06l4.53,7.85A4,4,0,0,0,1618,1538.92Z"/><path class="cls-14" d="M1667.94,1511.46l4.53-7.84a4,4,0,0,0-3.5-6.06h-9.06a4,4,0,0,0-3.5,6.06l4.53,7.84A4,4,0,0,0,1667.94,1511.46Z"/><path class="cls-14" d="M1716.26,1538.92l4.53-7.85a4,4,0,0,0-3.5-6.06h-9.06a4,4,0,0,0-3.5,6.06l4.53,7.85A4,4,0,0,0,1716.26,1538.92Z"/><path class="cls-14" d="M1767.87,1551l4.53-7.85a4,4,0,0,0-3.5-6.06h-9.06a4,4,0,0,0-3.5,6.06l4.53,7.85A4,4,0,0,0,1767.87,1551Z"/><path class="cls-12" d="M1845.33,1557.21c26.67-32.49,39.94-100.09-21.94-255.25a10,10,0,0,0-.91,1.56L1757.77,1444a9.5,9.5,0,0,0,8.63,13.48h23.36L1740,1568.83a9.5,9.5,0,0,0,8.68,13.38h24.64l-44.93,109.87a9.5,9.5,0,0,0,8.8,13.1h39.39a218.72,218.72,0,0,1,13.32-64C1806.94,1595.58,1834.55,1570.35,1845.33,1557.21Z"/><path class="cls-13" d="M1933.86,1692.08l-44.93-109.87h24.65a9.5,9.5,0,0,0,8.67-13.38l-49.79-111.33h23.37a9.5,9.5,0,0,0,8.63-13.48l-64.72-140.5a9.5,9.5,0,0,0-16.35-1.56c61.88,155.16,48.61,222.76,21.94,255.25-10.78,13.14-38.39,38.37-55.46,84a218.72,218.72,0,0,0-13.32,64h148.52A9.5,9.5,0,0,0,1933.86,1692.08Z"/><path class="cls-14" d="M1840.59,1342.65l4.53-7.85a4,4,0,0,0-3.5-6.06h-9.06a4,4,0,0,0-3.5,6.06l4.53,7.85A4,4,0,0,0,1840.59,1342.65Z"/><path class="cls-14" d="M1801.06,1381.08l4.53-7.85a4,4,0,0,0-3.5-6.06H1793a4,4,0,0,0-3.5,6.06l4.53,7.85A4,4,0,0,0,1801.06,1381.08Z"/><path class="cls-14" d="M1875.73,1423.36l4.53-7.85a4,4,0,0,0-3.5-6.06h-9.06a4,4,0,0,0-3.5,6.06l4.53,7.85A4,4,0,0,0,1875.73,1423.36Z"/><path class="cls-14" d="M1796.66,1453.56l4.54-7.85a4,4,0,0,0-3.5-6.06h-9.07a4,4,0,0,0-3.5,6.06l4.54,7.85A4,4,0,0,0,1796.66,1453.56Z"/><path class="cls-14" d="M1871.34,1503.52l4.53-7.85a4,4,0,0,0-3.5-6.06h-9.06a4,4,0,0,0-3.5,6.06l4.53,7.85A4,4,0,0,0,1871.34,1503.52Z"/><path class="cls-14" d="M1840.59,1467.28l4.53-7.84a4,4,0,0,0-3.5-6.07h-9.06a4,4,0,0,0-3.5,6.07l4.53,7.84A4,4,0,0,0,1840.59,1467.28Z"/><path class="cls-14" d="M1761,1563.92l4.53-7.85a4,4,0,0,0-3.5-6.06H1753a4,4,0,0,0-3.5,6.06l4.53,7.85A4,4,0,0,0,1761,1563.92Z"/><path class="cls-14" d="M1810.94,1536.46l4.53-7.84a4,4,0,0,0-3.5-6.06h-9.06a4,4,0,0,0-3.5,6.06l4.53,7.84A4,4,0,0,0,1810.94,1536.46Z"/><path class="cls-14" d="M1859.26,1563.92l4.53-7.85a4,4,0,0,0-3.5-6.06h-9.06a4,4,0,0,0-3.5,6.06l4.53,7.85A4,4,0,0,0,1859.26,1563.92Z"/><path class="cls-14" d="M1910.87,1576l4.53-7.85a4,4,0,0,0-3.5-6.06h-9.06a4,4,0,0,0-3.5,6.06l4.53,7.85A4,4,0,0,0,1910.87,1576Z"/><path class="cls-12" d="M1953.33,1527.21c26.67-32.49,39.94-100.09-21.94-255.25a10,10,0,0,0-.91,1.56L1865.77,1414a9.5,9.5,0,0,0,8.63,13.48h23.36L1848,1538.83a9.5,9.5,0,0,0,8.68,13.38h24.64l-44.93,109.87a9.5,9.5,0,0,0,8.8,13.1h39.39a218.72,218.72,0,0,1,13.32-64C1914.94,1565.58,1942.55,1540.35,1953.33,1527.21Z"/><path class="cls-13" d="M2041.86,1662.08l-44.93-109.87h24.65a9.5,9.5,0,0,0,8.67-13.38l-49.79-111.33h23.37a9.5,9.5,0,0,0,8.63-13.48l-64.72-140.5a9.5,9.5,0,0,0-16.35-1.56c61.88,155.16,48.61,222.76,21.94,255.25-10.78,13.14-38.39,38.37-55.46,84a218.72,218.72,0,0,0-13.32,64h148.52A9.5,9.5,0,0,0,2041.86,1662.08Z"/><path class="cls-14" d="M1948.59,1312.65l4.53-7.85a4,4,0,0,0-3.5-6.06h-9.06a4,4,0,0,0-3.5,6.06l4.53,7.85A4,4,0,0,0,1948.59,1312.65Z"/><path class="cls-14" d="M1909.06,1351.08l4.53-7.85a4,4,0,0,0-3.5-6.06H1901a4,4,0,0,0-3.5,6.06l4.53,7.85A4,4,0,0,0,1909.06,1351.08Z"/><path class="cls-14" d="M1983.73,1393.36l4.53-7.85a4,4,0,0,0-3.5-6.06h-9.06a4,4,0,0,0-3.5,6.06l4.53,7.85A4,4,0,0,0,1983.73,1393.36Z"/><path class="cls-14" d="M1904.66,1423.56l4.54-7.85a4,4,0,0,0-3.5-6.06h-9.07a4,4,0,0,0-3.5,6.06l4.54,7.85A4,4,0,0,0,1904.66,1423.56Z"/><path class="cls-14" d="M1979.34,1473.52l4.53-7.85a4,4,0,0,0-3.5-6.06h-9.06a4,4,0,0,0-3.5,6.06l4.53,7.85A4,4,0,0,0,1979.34,1473.52Z"/><path class="cls-14" d="M1948.59,1437.28l4.53-7.84a4,4,0,0,0-3.5-6.07h-9.06a4,4,0,0,0-3.5,6.07l4.53,7.84A4,4,0,0,0,1948.59,1437.28Z"/><path class="cls-14" d="M1869,1533.92l4.53-7.85a4,4,0,0,0-3.5-6.06H1861a4,4,0,0,0-3.5,6.06l4.53,7.85A4,4,0,0,0,1869,1533.92Z"/><path class="cls-14" d="M1918.94,1506.46l4.53-7.84a4,4,0,0,0-3.5-6.06h-9.06a4,4,0,0,0-3.5,6.06l4.53,7.84A4,4,0,0,0,1918.94,1506.46Z"/><path class="cls-14" d="M1967.26,1533.92l4.53-7.85a4,4,0,0,0-3.5-6.06h-9.06a4,4,0,0,0-3.5,6.06l4.53,7.85A4,4,0,0,0,1967.26,1533.92Z"/><path class="cls-12" d="M152.07,1723.09c31.2-34.83,46.72-107.28-25.65-273.57a9.47,9.47,0,0,0-1.06,1.67L49.68,1601.77c-3.39,6.75,2,14.45,10.09,14.45H87.1L28.87,1735.54c-3.29,6.74,2.09,14.34,10.14,14.34H67.83L15.29,1867.64c-3,6.69,2.39,14,10.29,14H71.64a217.56,217.56,0,0,1,15.58-68.55C107.18,1764.2,139.47,1737.16,152.07,1723.09Z"/><path class="cls-13" d="M255.61,1867.64l-52.54-117.76h28.82c8.05,0,13.43-7.6,10.14-14.34L183.8,1616.22h27.33c8.11,0,13.48-7.7,10.09-14.45l-75.68-150.58c-3.66-7.29-14.37-7.84-19.12-1.67,72.37,166.29,56.85,238.74,25.65,273.57-12.6,14.07-44.89,41.11-64.85,90a217.56,217.56,0,0,0-15.58,68.55H245.32C253.22,1881.67,258.6,1874.33,255.61,1867.64Z"/><path class="cls-14" d="M145.86,1494.19l6.16-9.78a4,4,0,0,0-3.42-6.19H136.28a4,4,0,0,0-3.42,6.19l6.16,9.78A4,4,0,0,0,145.86,1494.19Z"/><path class="cls-14" d="M99.63,1535.38l6.16-9.78a4,4,0,0,0-3.42-6.19H90.05a4,4,0,0,0-3.42,6.19l6.16,9.78A4,4,0,0,0,99.63,1535.38Z"/><path class="cls-14" d="M187,1580.7l6.17-9.79a4,4,0,0,0-3.42-6.19H177.37a4,4,0,0,0-3.42,6.19l6.17,9.79A4,4,0,0,0,187,1580.7Z"/><path class="cls-12" d="M225.57,1584.49c33.28-34.83,49.84-107.28-27.37-273.57a9.87,9.87,0,0,0-1.13,1.68l-80.74,150.58c-3.62,6.74,2.12,14.44,10.76,14.44h29.16L94.13,1596.94c-3.51,6.74,2.23,14.34,10.82,14.34H135.7L79.64,1729c-3.19,6.7,2.55,14,11,14h49.15a206.2,206.2,0,0,1,16.62-68.56C177.68,1625.61,212.12,1598.57,225.57,1584.49Z"/><path class="cls-13" d="M336,1729,280,1611.28h30.75c8.59,0,14.33-7.6,10.82-14.34l-62.12-119.32h29.16c8.65,0,14.38-7.7,10.76-14.44L218.6,1312.6c-3.91-7.29-15.33-7.85-20.4-1.68,77.21,166.29,60.65,238.74,27.37,273.57-13.45,14.08-47.89,41.12-69.19,90a206.2,206.2,0,0,0-16.62,68.56h185.3C333.48,1743.08,339.22,1735.74,336,1729Z"/><path class="cls-14" d="M218.65,1356l6.8-10.12a4,4,0,0,0-3.35-6.29H208.49a4,4,0,0,0-3.35,6.29l6.8,10.12A4,4,0,0,0,218.65,1356Z"/><path class="cls-14" d="M169.33,1397.22l6.8-10.11a4,4,0,0,0-3.36-6.3h-13.6a4,4,0,0,0-3.35,6.3l6.8,10.11A4,4,0,0,0,169.33,1397.22Z"/><path class="cls-14" d="M262.49,1442.54l6.8-10.12a4,4,0,0,0-3.35-6.3h-13.6a4,4,0,0,0-3.36,6.3l6.8,10.12A4,4,0,0,0,262.49,1442.54Z"/><path class="cls-14" d="M163.85,1474.9l6.8-10.12a4,4,0,0,0-3.36-6.29h-13.6a4,4,0,0,0-3.35,6.29l6.8,10.12A4,4,0,0,0,163.85,1474.9Z"/><path class="cls-14" d="M257,1528.45l6.8-10.12a4,4,0,0,0-3.35-6.29h-13.6a4,4,0,0,0-3.36,6.29l6.8,10.12A4,4,0,0,0,257,1528.45Z"/><path class="cls-14" d="M218.65,1489.61l6.8-10.12a4,4,0,0,0-3.35-6.29H208.49a4,4,0,0,0-3.35,6.29l6.8,10.12A4,4,0,0,0,218.65,1489.61Z"/><path class="cls-14" d="M181.66,1563.76l6.8-10.12a4,4,0,0,0-3.36-6.3H171.5a4,4,0,0,0-3.35,6.3l6.8,10.12A4,4,0,0,0,181.66,1563.76Z"/><path class="cls-12" d="M443.13,1762.15c35.91-34.83,53.78-107.28-29.54-273.57a10.68,10.68,0,0,0-1.22,1.67l-87.13,150.58c-3.91,6.75,2.29,14.45,11.62,14.45h31.46l-67,119.32c-3.78,6.74,2.41,14.34,11.68,14.34h33.18L285.65,1906.7c-3.44,6.69,2.75,14,11.84,14h53a193.65,193.65,0,0,1,17.93-68.55C391.45,1803.26,428.61,1776.22,443.13,1762.15Z"/><path class="cls-13" d="M562.33,1906.7l-60.49-117.76H535c9.27,0,15.47-7.6,11.68-14.34l-67-119.32h31.47c9.33,0,15.52-7.7,11.61-14.45l-87.13-150.58c-4.22-7.29-16.55-7.84-22-1.67,83.32,166.29,65.45,238.74,29.54,273.57-14.52,14.07-51.68,41.11-74.67,90a193.65,193.65,0,0,0-17.93,68.55h200C559.58,1920.73,565.77,1913.39,562.33,1906.7Z"/><path class="cls-14" d="M435.31,1534.17l7.6-10.48a4,4,0,0,0-3.27-6.41h-15.2a4,4,0,0,0-3.27,6.41l7.6,10.48A4,4,0,0,0,435.31,1534.17Z"/><path class="cls-14" d="M382.09,1575.36l7.6-10.48a4,4,0,0,0-3.27-6.41H371.21a4,4,0,0,0-3.27,6.41l7.6,10.48A4,4,0,0,0,382.09,1575.36Z"/><path class="cls-12" d="M521,1747c37-34.83,55.38-107.28-30.42-273.57a10.3,10.3,0,0,0-1.26,1.67l-89.72,150.59c-4,6.74,2.35,14.44,12,14.44h32.4l-69,119.32c-3.9,6.74,2.48,14.34,12,14.34h34.17L358.78,1891.5c-3.54,6.7,2.83,14,12.2,14h54.61A189.19,189.19,0,0,1,444.06,1837C467.73,1788.07,506,1761,521,1747Z"/><path class="cls-13" d="M643.69,1891.5,581.4,1773.74h34.17c9.55,0,15.92-7.6,12-14.34l-69-119.32H591c9.61,0,16-7.7,12-14.44L513.2,1475.05c-4.34-7.29-17-7.84-22.67-1.67,85.8,166.29,67.4,238.74,30.42,273.57-15,14.08-53.22,41.12-76.89,90a189.19,189.19,0,0,0-18.47,68.56H631.5C640.86,1905.54,647.24,1898.2,643.69,1891.5Z"/><path class="cls-14" d="M512.76,1519.15l7.93-10.61a4,4,0,0,0-3.24-6.46H501.6a4,4,0,0,0-3.24,6.46l7.93,10.61A4,4,0,0,0,512.76,1519.15Z"/><path class="cls-14" d="M458,1560.34l7.93-10.61a4,4,0,0,0-3.24-6.46H446.79a4,4,0,0,0-3.23,6.46l7.92,10.61A4,4,0,0,0,458,1560.34Z"/><path class="cls-12" d="M1472.26,1728.6c35.56-34.83,53.25-107.28-29.24-273.57a10.62,10.62,0,0,0-1.21,1.67l-86.26,150.58c-3.87,6.75,2.26,14.45,11.5,14.45h31.15l-66.37,119.32c-3.75,6.74,2.38,14.34,11.56,14.34h32.85l-59.88,117.76c-3.41,6.7,2.72,14,11.72,14h52.51a195.28,195.28,0,0,1,17.75-68.55C1421.1,1769.71,1457.89,1742.67,1472.26,1728.6Z"/><path class="cls-13" d="M1590.28,1873.15l-59.89-117.76h32.85c9.18,0,15.31-7.6,11.56-14.34l-66.37-119.32h31.15c9.24,0,15.37-7.7,11.5-14.45l-86.26-150.58c-4.18-7.29-16.39-7.84-21.8-1.67,82.49,166.29,64.8,238.74,29.24,273.57-14.37,14.07-51.16,41.11-73.92,90a195.28,195.28,0,0,0-17.75,68.55h198C1587.55,1887.18,1593.68,1879.85,1590.28,1873.15Z"/><path class="cls-14" d="M1464.57,1500.56l7.49-10.44a4,4,0,0,0-3.28-6.39h-15a4,4,0,0,0-3.28,6.39l7.49,10.44A4.05,4.05,0,0,0,1464.57,1500.56Z"/><path class="cls-14" d="M1411.87,1541.75l7.5-10.43a4,4,0,0,0-3.29-6.4h-15a4,4,0,0,0-3.29,6.4l7.5,10.43A4,4,0,0,0,1411.87,1541.75Z"/><path class="cls-12" d="M1623.91,1719.61c32.29-34.83,48.36-107.28-26.56-273.57a9.69,9.69,0,0,0-1.09,1.68l-78.35,150.58c-3.51,6.74,2.06,14.44,10.45,14.44h28.29l-60.28,119.32c-3.4,6.74,2.17,14.34,10.5,14.34h29.84l-54.39,117.76c-3.09,6.7,2.47,14,10.65,14h47.68a211.48,211.48,0,0,1,16.13-68.55C1577.44,1760.73,1610.86,1733.69,1623.91,1719.61Z"/><path class="cls-13" d="M1731.09,1864.16,1676.7,1746.4h29.83c8.34,0,13.91-7.6,10.5-14.34l-60.27-119.32h28.29c8.39,0,14-7.7,10.44-14.44l-78.34-150.58c-3.79-7.29-14.88-7.85-19.8-1.68,74.92,166.29,58.85,238.74,26.56,273.57-13.05,14.08-46.47,41.12-67.13,90a211.48,211.48,0,0,0-16.13,68.55h179.79C1728.61,1878.2,1734.18,1870.86,1731.09,1864.16Z"/><path class="cls-14" d="M1617.33,1491l6.49-10a4,4,0,0,0-3.38-6.25h-13a4,4,0,0,0-3.38,6.25l6.5,10A4,4,0,0,0,1617.33,1491Z"/><path class="cls-14" d="M1569.47,1532.15l6.5-10a4,4,0,0,0-3.39-6.25h-13a4,4,0,0,0-3.39,6.25l6.5,10A4,4,0,0,0,1569.47,1532.15Z"/><path class="cls-14" d="M1659.86,1577.46l6.5-10a4,4,0,0,0-3.38-6.25h-13a4,4,0,0,0-3.38,6.25l6.49,10A4,4,0,0,0,1659.86,1577.46Z"/><path class="cls-12" d="M1798.22,1733.59c30.46-34.82,45.62-107.28-25.06-273.57a10.53,10.53,0,0,0-1,1.68l-73.92,150.58c-3.31,6.75,1.94,14.44,9.86,14.44h26.69l-56.87,119.33c-3.21,6.73,2,14.34,9.9,14.34h28.15l-51.31,117.75c-2.92,6.7,2.33,14,10,14h45a222,222,0,0,1,15.21-68.55C1754.37,1774.71,1785.9,1747.67,1798.22,1733.59Z"/><path class="cls-13" d="M1899.34,1878.14,1848,1760.39h28.15c7.87,0,13.12-7.61,9.91-14.34l-56.87-119.33h26.69c7.92,0,13.17-7.69,9.86-14.44l-73.92-150.58c-3.58-7.29-14-7.85-18.68-1.68,70.68,166.29,55.52,238.75,25.06,273.57-12.32,14.08-43.85,41.12-63.35,90a222,222,0,0,0-15.21,68.55H1889.3C1897,1892.18,1902.26,1884.84,1899.34,1878.14Z"/><path class="cls-14" d="M1792.25,1504.53l5.94-9.65a4,4,0,0,0-3.44-6.16h-11.88a4,4,0,0,0-3.44,6.16l5.94,9.65A4,4,0,0,0,1792.25,1504.53Z"/><path class="cls-14" d="M1747.09,1545.72l5.94-9.65a4,4,0,0,0-3.44-6.16h-11.88a4,4,0,0,0-3.44,6.16l5.94,9.65A4,4,0,0,0,1747.09,1545.72Z"/><path class="cls-12" d="M1951.48,1700.47c33.7-34.83,50.47-107.28-27.71-273.57a10.3,10.3,0,0,0-1.15,1.67l-81.75,150.59c-3.67,6.74,2.14,14.44,10.9,14.44h29.52l-62.9,119.32c-3.55,6.74,2.26,14.34,11,14.34h31.13L1803.72,1845c-3.23,6.7,2.58,14,11.11,14h49.77a203.92,203.92,0,0,1,16.83-68.55C1903,1741.59,1937.86,1714.55,1951.48,1700.47Z"/><path class="cls-13" d="M2063.33,1845l-56.76-117.76h31.14c8.69,0,14.5-7.6,10.95-14.34l-62.9-119.32h29.52c8.76,0,14.57-7.7,10.9-14.44l-81.75-150.59c-4-7.29-15.53-7.84-20.66-1.67,78.18,166.29,61.41,238.74,27.71,273.57-13.62,14.08-48.49,41.12-70,90a203.92,203.92,0,0,0-16.83,68.55h187.62C2060.75,1859.05,2066.56,1851.72,2063.33,1845Z"/><path class="cls-14" d="M1944.42,1472.09l6.93-10.18a4,4,0,0,0-3.34-6.31h-13.86a4,4,0,0,0-3.34,6.31l6.93,10.18A4,4,0,0,0,1944.42,1472.09Z"/><path class="cls-14" d="M1894.48,1513.28l6.93-10.18a4,4,0,0,0-3.34-6.31h-13.86a4,4,0,0,0-3.34,6.31l6.93,10.18A4,4,0,0,0,1894.48,1513.28Z"/><path class="cls-14" d="M1988.81,1558.6l6.93-10.18a4,4,0,0,0-3.34-6.32h-13.86a4,4,0,0,0-3.34,6.32l6.93,10.18A4,4,0,0,0,1988.81,1558.6Z"/></g></svg>