<svg id="Layer_1" data-name="Layer 1" xmlns="http://www.w3.org/2000/svg" xmlns:xlink="http://www.w3.org/1999/xlink" viewBox="0 0 1800 1000"><defs><style>.cls-1{fill:none;}.cls-2{clip-path:url(#clip-path);}.cls-3{fill:#93b8d9;}.cls-4{fill:#516b8c;}.cls-5{fill:#a7b8d9;}.cls-6{fill:url(#linear-gradient);}.cls-7{fill:url(#linear-gradient-2);}.cls-8{fill:#122a40;}.cls-9{fill:url(#linear-gradient-3);}.cls-10{fill:url(#linear-gradient-4);}.cls-11{fill:#459f2c;}.cls-11,.cls-12,.cls-13,.cls-14{stroke:#000;stroke-miterlimit:10;}.cls-12{fill:#008837;}.cls-13{fill:#046029;}.cls-14{fill:#5b2807;}</style><clipPath id="clip-path"><rect class="cls-1" x="4" y="-27" width="1800" height="1150"/></clipPath><linearGradient id="linear-gradient" x1="452.2" y1="972.35" x2="1804" y2="972.35" gradientUnits="userSpaceOnUse"><stop offset="0" stop-color="#a7b8d9"/><stop offset="0.19" stop-color="#a2b4d5"/><stop offset="0.43" stop-color="#93a7c8"/><stop offset="0.68" stop-color="#7b91b2"/><stop offset="0.94" stop-color="#5a7394"/><stop offset="1" stop-color="#516b8c"/></linearGradient><linearGradient id="linear-gradient-2" x1="382.9" y1="557.86" x2="788.23" y2="557.86" gradientUnits="userSpaceOnUse"><stop offset="0" stop-color="#122a40"/><stop offset="1" stop-color="#516b8c"/></linearGradient><linearGradient id="linear-gradient-3" x1="4" y1="992.44" x2="1804" y2="992.44" gradientUnits="userSpaceOnUse"><stop offset="0" stop-color="#a7b8d9"/><stop offset="1" stop-color="#516b8c"/></linearGradient><linearGradient id="linear-gradient-4" x1="804.15" y1="1096.67" x2="1033.19" y2="978.13" gradientUnits="userSpaceOnUse"><stop offset="0" stop-color="#122a40"/><stop offset="0.43" stop-color="#1a334a" stop-opacity="0.94"/><stop offset="0.78" stop-color="#354e6a" stop-opacity="0.73"/><stop offset="1" stop-color="#516b8c" stop-opacity="0.52"/></linearGradient></defs><g class="cls-2"><path class="cls-3" d="M950.8,634.83c40.8-10.93,63.9-35.66,102.6-54.06,0,0,19.8-6.15,41.4-22.91s18.9-15,18.9-15h0c1.31,18.84,76.5,53.47,76.5,53.47,30.51,14.05,30.69,13.18,42.3,19.55,8.64,4.74,32.27,17.72,47.7,33.35,25.43,25.76,20.13,35.33,37.8,60.38,25.31,35.85,85,32.88,116.1,70.15,6.49,7.76,13.21,23.17,21.6,50.6,5.32,17.37-21,18.33-21.6,19.55-6.34,13.71-68,22-290.7,4L995.8,824C974.2,753.85,972.4,705,950.8,634.83Z"/><path class="cls-4" d="M1111,545.18l0-.06s0,0,0,.08Z"/><path class="cls-4" d="M1050.7,583.08c-38.7,18.4-61.8,43.12-102.6,54,2.75,8.93,5.18,17.52,7.36,25.84L1095.7,835.5l194.4-2.88a83.27,83.27,0,0,0-5.4-21.27c-5.52-13.9-12.52-21.21-23.4-36.8-16.19-23.19-10.33-20.81-21.6-35.07-18.51-23.43-27.81-21.64-38.7-40.83-5.27-9.28-6.23-15.24-15.3-27.6a144.06,144.06,0,0,0-16.2-18.4l19.8-1.15-16.2-2.3c-8.26-11.09-16.41-22.78-24.3-35.08a559.14,559.14,0,0,1-34.3-61.5c-2.06-2.64-3.31-5.15-3.49-7.42-.53.52-3.67,3.14-18.91,15C1070.5,576.92,1050.7,583.08,1050.7,583.08Z"/><path class="cls-5" d="M382.9,499.12l144-128.8s28.8-23,66.6-35.07S649.3,291,649.3,291s2.7-6.33,13.5-5.75,101.7,78.2,101.7,78.2-9.9,17.82,0,24.72,47.4,4,47.4,4L1259.5,828.6,756,861.87Z"/><path class="cls-6" d="M476.5,875.17a5727.64,5727.64,0,0,1,788.4-53.47c200.15.22,381.21,10.82,539.1,25.88V1123H452.2Z"/><path class="cls-7" d="M649.3,291s-18,32.2-55.8,44.27-66.6,35.07-66.6,35.07l-144,128.8L723.72,830.53c24.44-75.29,68.77-215.29,64.18-226.18-6.3-15-47.7-12.08-65.7-27s45.45-94.59,45.45-94.59L671.8,464.62l62.1-30.47L628.6,428.4V397.93L706,362.85s-36-9.78-38.7-12.08S652,324.9,651.1,314s11.7-28.75,11.7-28.75C652,284.65,649.3,291,649.3,291Z"/><path class="cls-4" d="M4,694.05C174.77,567.83,238.54,523.22,258.7,511.2c12.47-7.43,16.13-12.28,27-20.13,11.85-8.55,23.49-20.24,24.3-34.5.34-6-1.48-8.26,0-9.19,7.43-4.69,84.09,32.92,337.5,182.85-2.7,24.12-2,61.86,23.4,102.35C710.32,795.47,821,853.14,811.3,879.2c-6.48,17.33-90.24,1.29-264.6,8L4,890.7Z"/><path class="cls-8" d="M309.91,452.46c0-1.71,0-3.41.09-5.08l-.25.19C309,448.31,309.62,449.71,309.91,452.46Z"/><path class="cls-8" d="M517.9,876.9c.23-2.8-6.2-5-14.4-14.95-13.68-16.55-14.84-33.41-13.5-45.43-115.63-17.25-193.29-46.86-207-66.69s-9-36.23-9-36.23A40.73,40.73,0,0,1,280.3,701c18.12-25.49,90.05-94.89,99-103.5q-6.48-5.51-12.6-11.5c-43.61-42.81-56.05-89.55-56.76-128.58-1.2,13.9-12.61,25.31-24.24,33.7-10.87,7.85-14.53,12.7-27,20.13-20.16,12-83.93,56.63-254.7,182.85V890.7l471.47-3C505.83,884.27,517.6,880.58,517.9,876.9Z"/><path class="cls-9" d="M4,869.55c141.83-5.28,579-19,1001.7,11.41,147,10.55,270.77,27,518.4,59.91,41.08,5.46,111.6,18.07,199.8,38.52,35.06,8.13,61.42,17.89,80.1,24.25V1123H4Z"/><path class="cls-10" d="M1026.4,1092c38.06-30.91,48.65-59.3,52.2-74.18,3.44-14.37,6.81-30-7.2-44.27-15-15.27-41.89-20.88-46.8-21.85-11.47-2.26-32.25-3.8-73.8-6.9-4.55-.34-15.74-1.16-16.2-3.45-.36-1.77,5.16-4,6.3-4.6,9-4.6,75.2-12.45,127.8-50.6l-6.3-.58C1009,912.9,934.27,925,916.6,931c-3.53,1.19-23.13,6.34-24.3,12.07-1.11,5.44,14.85,9.63,18.9,10.36,28.8,5.17,50.4,5.17,86.4,16.67,8.36,2.67,21.47,8.75,24.3,17.83,4.22,13.51-18.08,26.39-54,46.57-39.44,22.16-73.41,40.8-99.9,55.2"/><path class="cls-11" d="M35.74,958.46c17.14-13.34,25.67-41.1-14.1-104.81a4,4,0,0,0-.59.64L-20.54,912c-1.87,2.59,1.09,5.54,5.55,5.54H0l-32,45.71c-1.8,2.58,1.15,5.5,5.58,5.5h15.84l-28.88,45.11c-1.64,2.57,1.31,5.38,5.65,5.38H-8.47A62.84,62.84,0,0,1,.09,993C11.07,974.22,28.81,963.86,35.74,958.46Z"/><path class="cls-12" d="M92.64,1013.84,63.76,968.73H79.6c4.43,0,7.38-2.92,5.58-5.5l-32-45.71h15c4.46,0,7.42-2.95,5.55-5.54L32.15,854.29c-2-2.8-7.9-3-10.51-.64,39.77,63.71,31.24,91.47,14.1,104.81C28.81,963.86,11.07,974.22.09,993a62.84,62.84,0,0,0-8.56,26.26H87C91.33,1019.22,94.28,1016.41,92.64,1013.84Z"/><path class="cls-13" d="M32.47,870.6l1.26-1.39a2.74,2.74,0,0,0-2-4.57H29.19a2.74,2.74,0,0,0-2,4.57l1.25,1.39A2.74,2.74,0,0,0,32.47,870.6Z"/><path class="cls-13" d="M7.06,886.38,8.32,885a2.74,2.74,0,0,0-2-4.57H3.78a2.74,2.74,0,0,0-2,4.57L3,886.38A2.73,2.73,0,0,0,7.06,886.38Z"/><path class="cls-13" d="M55.06,903.74l1.25-1.39a2.74,2.74,0,0,0-2-4.57H51.77a2.74,2.74,0,0,0-2,4.57L51,903.74A2.74,2.74,0,0,0,55.06,903.74Z"/><path class="cls-13" d="M4.24,916.14l1.26-1.39a2.73,2.73,0,0,0-2-4.56H1a2.73,2.73,0,0,0-2,4.56l1.25,1.39A2.74,2.74,0,0,0,4.24,916.14Z"/><path class="cls-13" d="M52.23,936.66l1.26-1.39a2.74,2.74,0,0,0-2-4.57H49a2.74,2.74,0,0,0-2,4.57l1.26,1.39A2.73,2.73,0,0,0,52.23,936.66Z"/><path class="cls-13" d="M32.47,921.78l1.26-1.39a2.74,2.74,0,0,0-2-4.57H29.19a2.74,2.74,0,0,0-2,4.57l1.25,1.39A2.74,2.74,0,0,0,32.47,921.78Z"/><path class="cls-13" d="M13.41,950.19l1.26-1.39a2.74,2.74,0,0,0-2-4.57H10.13a2.74,2.74,0,0,0-2,4.57l1.26,1.39A2.73,2.73,0,0,0,13.41,950.19Z"/><path class="cls-13" d="M44.47,961.46l1.26-1.39a2.74,2.74,0,0,0-2-4.57H41.19a2.74,2.74,0,0,0-2,4.57l1.25,1.39A2.74,2.74,0,0,0,44.47,961.46Z"/><path class="cls-13" d="M77.64,966.42,78.9,965a2.74,2.74,0,0,0-2-4.57H74.36a2.74,2.74,0,0,0-2,4.57l1.26,1.39A2.73,2.73,0,0,0,77.64,966.42Z"/><path class="cls-13" d="M32.47,981.3l1.26-1.39a2.74,2.74,0,0,0-2-4.57H29.19a2.74,2.74,0,0,0-2,4.57l1.25,1.39A2.74,2.74,0,0,0,32.47,981.3Z"/><path class="cls-13" d="M.71,984.91,2,983.52a2.74,2.74,0,0,0-2-4.57H-2.57a2.74,2.74,0,0,0-2,4.57l1.25,1.39A2.74,2.74,0,0,0,.71,984.91Z"/><path class="cls-13" d="M35.29,1002.94l1.26-1.39a2.73,2.73,0,0,0-2-4.56H32a2.73,2.73,0,0,0-2,4.56l1.26,1.39A2.71,2.71,0,0,0,35.29,1002.94Z"/><path class="cls-13" d="M67.76,997.53,69,996.14a2.73,2.73,0,0,0-2-4.56H64.48a2.73,2.73,0,0,0-2,4.56l1.25,1.39A2.74,2.74,0,0,0,67.76,997.53Z"/><path class="cls-11" d="M87,1003.89c17.14-13.35,25.67-41.11-14.1-104.82a4.43,4.43,0,0,0-.59.64l-41.59,57.7c-1.87,2.58,1.09,5.53,5.55,5.53h15l-32,45.72c-1.8,2.58,1.15,5.49,5.58,5.49H40.74l-28.88,45.12c-1.64,2.57,1.31,5.38,5.65,5.38H42.83a62.87,62.87,0,0,1,8.56-26.27C62.37,1019.64,80.11,1009.28,87,1003.89Z"/><path class="cls-12" d="M143.94,1059.27l-28.88-45.12H130.9c4.43,0,7.38-2.91,5.58-5.49l-32-45.72h15c4.46,0,7.42-3,5.55-5.53l-41.59-57.7c-2-2.79-7.9-3-10.51-.64,39.77,63.71,31.24,91.47,14.1,104.82-6.93,5.39-24.67,15.75-35.65,34.49a62.87,62.87,0,0,0-8.56,26.27h95.46C142.63,1064.65,145.58,1061.84,143.94,1059.27Z"/><path class="cls-13" d="M83.77,916,85,914.63a2.73,2.73,0,0,0-2-4.56H80.49a2.73,2.73,0,0,0-2,4.56L79.71,916A2.74,2.74,0,0,0,83.77,916Z"/><path class="cls-13" d="M58.36,931.81l1.26-1.39a2.74,2.74,0,0,0-2-4.57H55.08a2.74,2.74,0,0,0-2,4.57l1.26,1.39A2.73,2.73,0,0,0,58.36,931.81Z"/><path class="cls-13" d="M106.36,949.17l1.25-1.39a2.74,2.74,0,0,0-2-4.57h-2.51a2.74,2.74,0,0,0-2,4.57l1.26,1.39A2.74,2.74,0,0,0,106.36,949.17Z"/><path class="cls-13" d="M55.54,961.57l1.26-1.39a2.74,2.74,0,0,0-2-4.57H52.25a2.74,2.74,0,0,0-2,4.57l1.25,1.39A2.74,2.74,0,0,0,55.54,961.57Z"/><path class="cls-13" d="M103.53,982.08l1.26-1.39a2.73,2.73,0,0,0-2-4.56h-2.51a2.73,2.73,0,0,0-2,4.56l1.26,1.39A2.73,2.73,0,0,0,103.53,982.08Z"/><path class="cls-13" d="M83.77,967.2,85,965.81a2.73,2.73,0,0,0-2-4.56H80.49a2.73,2.73,0,0,0-2,4.56l1.25,1.39A2.74,2.74,0,0,0,83.77,967.2Z"/><path class="cls-13" d="M64.71,995.61,66,994.22a2.74,2.74,0,0,0-2-4.57H61.43a2.74,2.74,0,0,0-2,4.57l1.26,1.39A2.73,2.73,0,0,0,64.71,995.61Z"/><path class="cls-11" d="M39.34,1023.44c17.14-13.35,25.67-41.11-14.1-104.82a4.43,4.43,0,0,0-.59.64L-16.94,977c-1.87,2.58,1.09,5.53,5.55,5.53h15l-32,45.72c-1.8,2.58,1.15,5.49,5.58,5.49H-7l-28.88,45.12c-1.64,2.57,1.31,5.38,5.65,5.38H-4.87a62.87,62.87,0,0,1,8.56-26.27C14.67,1039.19,32.41,1028.83,39.34,1023.44Z"/><path class="cls-12" d="M96.24,1078.82,67.36,1033.7H83.2c4.43,0,7.38-2.91,5.58-5.49l-32-45.72h15c4.46,0,7.42-3,5.55-5.53l-41.59-57.7c-2-2.79-7.9-3-10.51-.64,39.77,63.71,31.24,91.47,14.1,104.82-6.93,5.39-24.67,15.75-35.65,34.49a62.87,62.87,0,0,0-8.56,26.27H90.59C94.93,1084.2,97.88,1081.39,96.24,1078.82Z"/><path class="cls-13" d="M36.07,935.57l1.26-1.39a2.73,2.73,0,0,0-2-4.56H32.79a2.73,2.73,0,0,0-2,4.56L32,935.57A2.74,2.74,0,0,0,36.07,935.57Z"/><path class="cls-13" d="M10.66,951.36,11.92,950a2.74,2.74,0,0,0-2-4.57H7.38a2.74,2.74,0,0,0-2,4.57l1.26,1.39A2.73,2.73,0,0,0,10.66,951.36Z"/><path class="cls-13" d="M58.66,968.72l1.25-1.39a2.74,2.74,0,0,0-2-4.57H55.37a2.74,2.74,0,0,0-2,4.57l1.26,1.39A2.74,2.74,0,0,0,58.66,968.72Z"/><path class="cls-13" d="M7.84,981.12l1.26-1.39a2.74,2.74,0,0,0-2-4.57H4.55a2.74,2.74,0,0,0-2,4.57l1.25,1.39A2.74,2.74,0,0,0,7.84,981.12Z"/><path class="cls-13" d="M55.83,1001.63l1.26-1.39a2.73,2.73,0,0,0-2-4.56H52.55a2.73,2.73,0,0,0-2,4.56l1.26,1.39A2.73,2.73,0,0,0,55.83,1001.63Z"/><path class="cls-13" d="M36.07,986.75l1.26-1.39a2.73,2.73,0,0,0-2-4.56H32.79a2.73,2.73,0,0,0-2,4.56L32,986.75A2.74,2.74,0,0,0,36.07,986.75Z"/><path class="cls-11" d="M123.94,1029.76c17.14-13.34,25.67-41.1-14.1-104.81a4,4,0,0,0-.59.64L67.66,983.28c-1.87,2.59,1.09,5.54,5.55,5.54h15l-32,45.71c-1.8,2.58,1.15,5.5,5.58,5.5H77.64l-28.88,45.11c-1.64,2.57,1.31,5.38,5.65,5.38H79.73a62.84,62.84,0,0,1,8.56-26.26C99.27,1045.52,117,1035.16,123.94,1029.76Z"/><path class="cls-12" d="M180.84,1085.14,152,1040H167.8c4.43,0,7.38-2.92,5.58-5.5l-32-45.71h15c4.46,0,7.42-3,5.55-5.54l-41.59-57.69c-2-2.8-7.9-3-10.51-.64,39.77,63.71,31.24,91.47,14.1,104.81-6.93,5.4-24.67,15.76-35.65,34.5a62.84,62.84,0,0,0-8.56,26.26h95.46C179.53,1090.52,182.48,1087.71,180.84,1085.14Z"/><path class="cls-13" d="M120.67,941.9l1.26-1.39a2.74,2.74,0,0,0-2-4.57h-2.51a2.74,2.74,0,0,0-2,4.57l1.25,1.39A2.74,2.74,0,0,0,120.67,941.9Z"/><path class="cls-13" d="M95.26,957.68l1.26-1.39a2.74,2.74,0,0,0-2-4.57H92a2.74,2.74,0,0,0-2,4.57l1.26,1.39A2.73,2.73,0,0,0,95.26,957.68Z"/><path class="cls-13" d="M143.26,975l1.25-1.39a2.74,2.74,0,0,0-2-4.57H140a2.74,2.74,0,0,0-2,4.57L139.2,975A2.74,2.74,0,0,0,143.26,975Z"/><path class="cls-13" d="M92.44,987.44l1.26-1.39a2.73,2.73,0,0,0-2-4.56H89.15a2.73,2.73,0,0,0-2,4.56l1.25,1.39A2.74,2.74,0,0,0,92.44,987.44Z"/><path class="cls-13" d="M120.67,993.08l1.26-1.39a2.74,2.74,0,0,0-2-4.57h-2.51a2.74,2.74,0,0,0-2,4.57l1.25,1.39A2.74,2.74,0,0,0,120.67,993.08Z"/><path class="cls-11" d="M171.64,1035.51c17.14-13.34,25.67-41.1-14.1-104.81a4,4,0,0,0-.59.64L115.36,989c-1.87,2.59,1.09,5.54,5.55,5.54h15l-32,45.71c-1.8,2.58,1.15,5.5,5.58,5.5h15.84l-28.88,45.11c-1.64,2.57,1.31,5.38,5.65,5.38h25.32A62.84,62.84,0,0,1,136,1070C147,1051.27,164.71,1040.91,171.64,1035.51Z"/><path class="cls-12" d="M228.54,1090.89l-28.88-45.11H215.5c4.43,0,7.38-2.92,5.58-5.5l-32-45.71h15c4.46,0,7.42-3,5.55-5.54l-41.59-57.69c-2-2.8-7.9-3-10.51-.64,39.77,63.71,31.24,91.47,14.1,104.81-6.93,5.4-24.67,15.76-35.65,34.5a62.84,62.84,0,0,0-8.56,26.26h95.46C227.23,1096.27,230.18,1093.46,228.54,1090.89Z"/><path class="cls-13" d="M168.37,947.65l1.26-1.39a2.74,2.74,0,0,0-2-4.57h-2.51a2.74,2.74,0,0,0-2,4.57l1.25,1.39A2.74,2.74,0,0,0,168.37,947.65Z"/><path class="cls-13" d="M143,963.43l1.26-1.39a2.74,2.74,0,0,0-2-4.57h-2.51a2.74,2.74,0,0,0-2,4.57l1.26,1.39A2.73,2.73,0,0,0,143,963.43Z"/><path class="cls-13" d="M191,980.79l1.25-1.39a2.74,2.74,0,0,0-2-4.57h-2.51a2.74,2.74,0,0,0-2,4.57l1.26,1.39A2.74,2.74,0,0,0,191,980.79Z"/><path class="cls-13" d="M140.14,993.19l1.26-1.39a2.73,2.73,0,0,0-2-4.56h-2.52a2.73,2.73,0,0,0-2,4.56l1.25,1.39A2.74,2.74,0,0,0,140.14,993.19Z"/><path class="cls-13" d="M168.37,998.83l1.26-1.39a2.74,2.74,0,0,0-2-4.57h-2.51a2.74,2.74,0,0,0-2,4.57l1.25,1.39A2.74,2.74,0,0,0,168.37,998.83Z"/><path class="cls-11" d="M284.14,1064.26c17.14-13.34,25.67-41.1-14.1-104.81a4,4,0,0,0-.59.64l-41.59,57.69c-1.87,2.59,1.09,5.54,5.55,5.54h15l-32,45.71c-1.8,2.58,1.15,5.5,5.58,5.5h15.84L209,1119.64c-1.64,2.57,1.31,5.38,5.65,5.38h25.32a62.84,62.84,0,0,1,8.56-26.26C259.47,1080,277.21,1069.66,284.14,1064.26Z"/><path class="cls-12" d="M341,1119.64l-28.88-45.11H328c4.43,0,7.38-2.92,5.58-5.5l-32-45.71h15c4.46,0,7.42-3,5.55-5.54l-41.59-57.69c-2-2.8-7.9-3-10.51-.64,39.77,63.71,31.24,91.47,14.1,104.81-6.93,5.4-24.67,15.76-35.65,34.5a62.84,62.84,0,0,0-8.56,26.26h95.46C339.73,1125,342.68,1122.21,341,1119.64Z"/><path class="cls-13" d="M280.87,976.4l1.26-1.39a2.74,2.74,0,0,0-2-4.57h-2.51a2.74,2.74,0,0,0-2,4.57l1.25,1.39A2.74,2.74,0,0,0,280.87,976.4Z"/><path class="cls-13" d="M255.46,992.18l1.26-1.39a2.74,2.74,0,0,0-2-4.57h-2.51a2.74,2.74,0,0,0-2,4.57l1.26,1.39A2.73,2.73,0,0,0,255.46,992.18Z"/><path class="cls-11" d="M229.24,1063.69c17.14-13.35,25.67-41.11-14.1-104.82a4.43,4.43,0,0,0-.59.64L173,1017.21c-1.87,2.58,1.09,5.53,5.55,5.53h15l-32,45.72c-1.8,2.58,1.15,5.49,5.58,5.49h15.84l-28.88,45.12c-1.64,2.57,1.31,5.38,5.65,5.38H185a62.87,62.87,0,0,1,8.56-26.27C204.57,1079.44,222.31,1069.08,229.24,1063.69Z"/><path class="cls-12" d="M286.14,1119.07,257.26,1074H273.1c4.43,0,7.38-2.91,5.58-5.49l-32-45.72h15c4.46,0,7.42-3,5.55-5.53l-41.59-57.7c-2-2.79-7.9-3-10.51-.64,39.77,63.71,31.24,91.47,14.1,104.82-6.93,5.39-24.67,15.75-35.65,34.49a62.87,62.87,0,0,0-8.56,26.27h95.46C284.83,1124.45,287.78,1121.64,286.14,1119.07Z"/><path class="cls-13" d="M226,975.82l1.26-1.39a2.73,2.73,0,0,0-2-4.56h-2.51a2.73,2.73,0,0,0-2,4.56l1.25,1.39A2.74,2.74,0,0,0,226,975.82Z"/><path class="cls-13" d="M200.56,991.61l1.26-1.39a2.74,2.74,0,0,0-2-4.57h-2.51a2.74,2.74,0,0,0-2,4.57l1.26,1.39A2.73,2.73,0,0,0,200.56,991.61Z"/><path class="cls-11" d="M1584.64,1028c17.14-13.35,25.67-41.11-14.1-104.82a4.43,4.43,0,0,0-.59.64l-41.59,57.7c-1.87,2.58,1.09,5.53,5.55,5.53h15l-32,45.72c-1.8,2.58,1.15,5.49,5.58,5.49h15.84l-28.88,45.12c-1.64,2.57,1.31,5.38,5.65,5.38h25.32a62.87,62.87,0,0,1,8.56-26.27C1560,1043.79,1577.71,1033.43,1584.64,1028Z"/><path class="cls-12" d="M1641.54,1083.42l-28.88-45.12h15.84c4.43,0,7.38-2.91,5.58-5.49l-32-45.72h15c4.46,0,7.42-3,5.55-5.53l-41.59-57.7c-2-2.79-7.9-3-10.51-.64,39.77,63.71,31.24,91.47,14.1,104.82-6.93,5.39-24.67,15.75-35.65,34.49a62.87,62.87,0,0,0-8.56,26.27h95.46C1640.23,1088.8,1643.18,1086,1641.54,1083.42Z"/><path class="cls-13" d="M1581.37,940.17l1.26-1.39a2.73,2.73,0,0,0-2-4.56h-2.51a2.73,2.73,0,0,0-2,4.56l1.25,1.39A2.74,2.74,0,0,0,1581.37,940.17Z"/><path class="cls-13" d="M1556,956l1.26-1.39a2.74,2.74,0,0,0-2-4.57h-2.51a2.74,2.74,0,0,0-2,4.57l1.26,1.39A2.73,2.73,0,0,0,1556,956Z"/><path class="cls-13" d="M1604,973.32l1.25-1.39a2.74,2.74,0,0,0-2-4.57h-2.51a2.74,2.74,0,0,0-2,4.57l1.26,1.39A2.74,2.74,0,0,0,1604,973.32Z"/><path class="cls-13" d="M1553.14,985.72l1.26-1.39a2.74,2.74,0,0,0-2-4.57h-2.52a2.74,2.74,0,0,0-2,4.57l1.25,1.39A2.74,2.74,0,0,0,1553.14,985.72Z"/><path class="cls-13" d="M1601.13,1006.23l1.26-1.39a2.73,2.73,0,0,0-2-4.56h-2.51a2.73,2.73,0,0,0-2,4.56l1.26,1.39A2.73,2.73,0,0,0,1601.13,1006.23Z"/><path class="cls-13" d="M1581.37,991.35l1.26-1.39a2.73,2.73,0,0,0-2-4.56h-2.51a2.73,2.73,0,0,0-2,4.56l1.25,1.39A2.74,2.74,0,0,0,1581.37,991.35Z"/><path class="cls-11" d="M1525.24,1024c17.14-13.34,25.67-41.1-14.1-104.81a4,4,0,0,0-.59.64L1469,977.53c-1.87,2.59,1.09,5.54,5.55,5.54h15l-32,45.71c-1.8,2.58,1.15,5.5,5.58,5.5h15.84l-28.88,45.11c-1.64,2.57,1.31,5.38,5.65,5.38H1481a62.84,62.84,0,0,1,8.56-26.26C1500.57,1039.77,1518.31,1029.41,1525.24,1024Z"/><path class="cls-12" d="M1582.14,1079.39l-28.88-45.11h15.84c4.43,0,7.38-2.92,5.58-5.5l-32-45.71h15c4.46,0,7.42-3,5.55-5.54l-41.59-57.69c-2-2.8-7.9-3-10.51-.64,39.77,63.71,31.24,91.47,14.1,104.81-6.93,5.4-24.67,15.76-35.65,34.5a62.84,62.84,0,0,0-8.56,26.26h95.46C1580.83,1084.77,1583.78,1082,1582.14,1079.39Z"/><path class="cls-13" d="M1522,936.15l1.26-1.39a2.74,2.74,0,0,0-2-4.57h-2.51a2.74,2.74,0,0,0-2,4.57l1.25,1.39A2.74,2.74,0,0,0,1522,936.15Z"/><path class="cls-13" d="M1496.56,951.93l1.26-1.39a2.74,2.74,0,0,0-2-4.57h-2.51a2.74,2.74,0,0,0-2,4.57l1.26,1.39A2.73,2.73,0,0,0,1496.56,951.93Z"/><path class="cls-13" d="M1544.56,969.29l1.25-1.39a2.74,2.74,0,0,0-2-4.57h-2.51a2.74,2.74,0,0,0-2,4.57l1.26,1.39A2.74,2.74,0,0,0,1544.56,969.29Z"/><path class="cls-13" d="M1493.74,981.69l1.26-1.39a2.73,2.73,0,0,0-2-4.56h-2.52a2.73,2.73,0,0,0-2,4.56l1.25,1.39A2.74,2.74,0,0,0,1493.74,981.69Z"/><path class="cls-13" d="M1541.73,1002.21l1.26-1.39a2.74,2.74,0,0,0-2-4.57h-2.51a2.74,2.74,0,0,0-2,4.57l1.26,1.39A2.73,2.73,0,0,0,1541.73,1002.21Z"/><path class="cls-13" d="M1522,987.33l1.26-1.39a2.74,2.74,0,0,0-2-4.57h-2.51a2.74,2.74,0,0,0-2,4.57l1.25,1.39A2.74,2.74,0,0,0,1522,987.33Z"/><path class="cls-11" d="M1659.34,1001c17.14-13.34,25.67-41.1-14.1-104.81a4,4,0,0,0-.59.64l-41.59,57.69c-1.87,2.59,1.09,5.54,5.55,5.54h15l-32,45.71c-1.8,2.58,1.15,5.5,5.58,5.5H1613l-28.88,45.11c-1.64,2.57,1.31,5.38,5.65,5.38h25.32a62.84,62.84,0,0,1,8.56-26.26C1634.67,1016.77,1652.41,1006.41,1659.34,1001Z"/><path class="cls-12" d="M1716.24,1056.39l-28.88-45.11h15.84c4.43,0,7.38-2.92,5.58-5.5l-32-45.71h15c4.46,0,7.42-3,5.55-5.54l-41.59-57.69c-2-2.8-7.9-3-10.51-.64,39.77,63.71,31.24,91.47,14.1,104.81-6.93,5.4-24.67,15.76-35.65,34.5a62.84,62.84,0,0,0-8.56,26.26h95.46C1714.93,1061.77,1717.88,1059,1716.24,1056.39Z"/><path class="cls-13" d="M1656.07,913.15l1.26-1.39a2.74,2.74,0,0,0-2-4.57h-2.51a2.74,2.74,0,0,0-2,4.57l1.25,1.39A2.74,2.74,0,0,0,1656.07,913.15Z"/><path class="cls-13" d="M1630.66,928.93l1.26-1.39a2.74,2.74,0,0,0-2-4.57h-2.51a2.74,2.74,0,0,0-2,4.57l1.26,1.39A2.73,2.73,0,0,0,1630.66,928.93Z"/><path class="cls-13" d="M1678.66,946.29l1.25-1.39a2.74,2.74,0,0,0-2-4.57h-2.51a2.74,2.74,0,0,0-2,4.57l1.26,1.39A2.74,2.74,0,0,0,1678.66,946.29Z"/><path class="cls-13" d="M1627.84,958.69l1.26-1.39a2.73,2.73,0,0,0-2-4.56h-2.52a2.73,2.73,0,0,0-2,4.56l1.25,1.39A2.74,2.74,0,0,0,1627.84,958.69Z"/><path class="cls-13" d="M1675.83,979.21l1.26-1.39a2.74,2.74,0,0,0-2-4.57h-2.51a2.74,2.74,0,0,0-2,4.57l1.26,1.39A2.73,2.73,0,0,0,1675.83,979.21Z"/><path class="cls-13" d="M1656.07,964.33l1.26-1.39a2.74,2.74,0,0,0-2-4.57h-2.51a2.74,2.74,0,0,0-2,4.57l1.25,1.39A2.74,2.74,0,0,0,1656.07,964.33Z"/><path class="cls-13" d="M1604.9,1004l1.26-1.39a2.74,2.74,0,0,0-2-4.57h-2.51a2.74,2.74,0,0,0-2,4.57l1.25,1.39A2.74,2.74,0,0,0,1604.9,1004Z"/><path class="cls-13" d="M1637,992.74l1.26-1.39a2.74,2.74,0,0,0-2-4.57h-2.51a2.74,2.74,0,0,0-2,4.57l1.26,1.39A2.73,2.73,0,0,0,1637,992.74Z"/><path class="cls-13" d="M1668.07,1004l1.26-1.39a2.74,2.74,0,0,0-2-4.57h-2.51a2.74,2.74,0,0,0-2,4.57L1664,1004A2.74,2.74,0,0,0,1668.07,1004Z"/><path class="cls-11" d="M1712.44,971.11c17.14-13.34,25.67-41.1-14.1-104.81a4,4,0,0,0-.59.64l-41.59,57.69c-1.87,2.59,1.09,5.54,5.55,5.54h15l-32,45.71c-1.8,2.58,1.15,5.5,5.58,5.5h15.84l-28.88,45.11c-1.64,2.57,1.31,5.38,5.65,5.38h25.32a62.84,62.84,0,0,1,8.56-26.26C1687.77,986.87,1705.51,976.51,1712.44,971.11Z"/><path class="cls-12" d="M1769.34,1026.49l-28.88-45.11h15.84c4.43,0,7.38-2.92,5.58-5.5l-32-45.71h15c4.46,0,7.42-2.95,5.55-5.54l-41.59-57.69c-2-2.8-7.9-3-10.51-.64,39.77,63.71,31.24,91.47,14.1,104.81-6.93,5.4-24.67,15.76-35.65,34.5a62.84,62.84,0,0,0-8.56,26.26h95.46C1768,1031.87,1771,1029.06,1769.34,1026.49Z"/><path class="cls-13" d="M1709.17,883.25l1.26-1.39a2.74,2.74,0,0,0-2-4.57h-2.51a2.74,2.74,0,0,0-2,4.57l1.25,1.39A2.74,2.74,0,0,0,1709.17,883.25Z"/><path class="cls-13" d="M1683.76,899l1.26-1.39a2.74,2.74,0,0,0-2-4.57h-2.51a2.74,2.74,0,0,0-2,4.57l1.26,1.39A2.73,2.73,0,0,0,1683.76,899Z"/><path class="cls-13" d="M1731.76,916.39,1733,915a2.74,2.74,0,0,0-2-4.57h-2.51a2.74,2.74,0,0,0-2,4.57l1.26,1.39A2.74,2.74,0,0,0,1731.76,916.39Z"/><path class="cls-13" d="M1680.94,928.79l1.26-1.39a2.73,2.73,0,0,0-2-4.56h-2.52a2.73,2.73,0,0,0-2,4.56l1.25,1.39A2.74,2.74,0,0,0,1680.94,928.79Z"/><path class="cls-13" d="M1728.93,949.31l1.26-1.39a2.74,2.74,0,0,0-2-4.57h-2.51a2.74,2.74,0,0,0-2,4.57l1.26,1.39A2.73,2.73,0,0,0,1728.93,949.31Z"/><path class="cls-13" d="M1709.17,934.43l1.26-1.39a2.74,2.74,0,0,0-2-4.57h-2.51a2.74,2.74,0,0,0-2,4.57l1.25,1.39A2.74,2.74,0,0,0,1709.17,934.43Z"/><path class="cls-13" d="M1658,974.11l1.26-1.39a2.74,2.74,0,0,0-2-4.57h-2.51a2.74,2.74,0,0,0-2,4.57l1.25,1.39A2.74,2.74,0,0,0,1658,974.11Z"/><path class="cls-13" d="M1690.11,962.84l1.26-1.39a2.74,2.74,0,0,0-2-4.57h-2.51a2.74,2.74,0,0,0-2,4.57l1.26,1.39A2.73,2.73,0,0,0,1690.11,962.84Z"/><path class="cls-13" d="M1721.17,974.11l1.26-1.39a2.74,2.74,0,0,0-2-4.57h-2.51a2.74,2.74,0,0,0-2,4.57l1.25,1.39A2.74,2.74,0,0,0,1721.17,974.11Z"/><path class="cls-13" d="M1754.34,979.07l1.26-1.39a2.74,2.74,0,0,0-2-4.57h-2.51a2.74,2.74,0,0,0-2,4.57l1.26,1.39A2.73,2.73,0,0,0,1754.34,979.07Z"/><path class="cls-13" d="M1709.17,994l1.26-1.39a2.74,2.74,0,0,0-2-4.57h-2.51a2.74,2.74,0,0,0-2,4.57l1.25,1.39A2.74,2.74,0,0,0,1709.17,994Z"/><path class="cls-13" d="M1677.41,997.56l1.26-1.39a2.74,2.74,0,0,0-2-4.57h-2.51a2.74,2.74,0,0,0-2,4.57l1.25,1.39A2.74,2.74,0,0,0,1677.41,997.56Z"/><rect class="cls-14" x="1749.31" y="985.66" width="27.39" height="16.68"/><path class="cls-11" d="M1772.63,925.69c18-13.35,26.93-41.11-14.79-104.82a5.26,5.26,0,0,0-.61.64l-43.63,57.7c-1.95,2.58,1.15,5.53,5.82,5.53h15.76l-33.57,45.72c-1.9,2.58,1.2,5.49,5.85,5.49h16.61l-30.29,45.12c-1.72,2.57,1.38,5.38,5.93,5.38h26.56a60.7,60.7,0,0,1,9-26.27C1746.76,941.44,1765.37,931.08,1772.63,925.69Z"/><path class="cls-12" d="M1832.32,981.07,1802,936h16.61c4.65,0,7.75-2.91,5.85-5.49l-33.57-45.72h15.76c4.67,0,7.77-3,5.82-5.53l-43.63-57.7c-2.11-2.79-8.29-3-11-.64,41.72,63.71,32.77,91.47,14.79,104.82-7.26,5.39-25.87,15.75-37.38,34.49a60.7,60.7,0,0,0-9,26.27h100.12C1830.94,986.45,1834,983.64,1832.32,981.07Z"/><path class="cls-13" d="M1769.11,837.92l1.27-1.33a2.8,2.8,0,0,0-2-4.72h-2.53a2.8,2.8,0,0,0-2,4.72l1.27,1.33A2.79,2.79,0,0,0,1769.11,837.92Z"/><path class="cls-13" d="M1742.46,853.71l1.27-1.34a2.8,2.8,0,0,0-2-4.72h-2.52a2.8,2.8,0,0,0-2,4.72l1.27,1.34A2.8,2.8,0,0,0,1742.46,853.71Z"/><path class="cls-13" d="M1792.8,871.07l1.27-1.34a2.8,2.8,0,0,0-2-4.72h-2.53a2.8,2.8,0,0,0-2,4.72l1.27,1.34A2.8,2.8,0,0,0,1792.8,871.07Z"/><path class="cls-13" d="M1739.5,883.47l1.26-1.34a2.79,2.79,0,0,0-2-4.72h-2.53a2.8,2.8,0,0,0-2,4.72l1.27,1.34A2.8,2.8,0,0,0,1739.5,883.47Z"/><path class="cls-13" d="M1789.84,904l1.26-1.34a2.8,2.8,0,0,0-2-4.72h-2.53a2.8,2.8,0,0,0-2,4.72l1.27,1.34A2.8,2.8,0,0,0,1789.84,904Z"/><path class="cls-13" d="M1769.11,889.1l1.27-1.33a2.8,2.8,0,0,0-2-4.72h-2.53a2.8,2.8,0,0,0-2,4.72l1.27,1.33A2.79,2.79,0,0,0,1769.11,889.1Z"/><path class="cls-13" d="M1715.44,928.79l1.27-1.34a2.8,2.8,0,0,0-2-4.72h-2.53a2.8,2.8,0,0,0-2,4.72l1.27,1.34A2.8,2.8,0,0,0,1715.44,928.79Z"/><path class="cls-13" d="M1749.12,917.51l1.27-1.33a2.8,2.8,0,0,0-2-4.73h-2.53a2.8,2.8,0,0,0-2,4.73l1.26,1.33A2.79,2.79,0,0,0,1749.12,917.51Z"/><path class="cls-13" d="M1781.7,928.79l1.26-1.34a2.8,2.8,0,0,0-2-4.72h-2.53a2.8,2.8,0,0,0-2,4.72l1.26,1.34A2.82,2.82,0,0,0,1781.7,928.79Z"/><path class="cls-13" d="M1769.11,948.63l1.27-1.34a2.8,2.8,0,0,0-2-4.72h-2.53a2.8,2.8,0,0,0-2,4.72l1.27,1.34A2.8,2.8,0,0,0,1769.11,948.63Z"/><path class="cls-13" d="M1735.8,952.23l1.26-1.33a2.8,2.8,0,0,0-2-4.72h-2.53a2.8,2.8,0,0,0-2,4.72l1.27,1.33A2.79,2.79,0,0,0,1735.8,952.23Z"/><path class="cls-13" d="M1772.07,970.27l1.27-1.33a2.8,2.8,0,0,0-2-4.73h-2.53a2.8,2.8,0,0,0-2,4.73l1.26,1.33A2.79,2.79,0,0,0,1772.07,970.27Z"/><path class="cls-13" d="M1806.13,964.86l1.26-1.33a2.8,2.8,0,0,0-2-4.73h-2.53a2.8,2.8,0,0,0-2,4.73l1.26,1.33A2.82,2.82,0,0,0,1806.13,964.86Z"/><path class="cls-13" d="M1722.1,980l1.27-1.34a2.8,2.8,0,0,0-2-4.72h-2.53a2.8,2.8,0,0,0-2,4.72L1718,980A2.8,2.8,0,0,0,1722.1,980Z"/><path class="cls-11" d="M1793.44,975.14c17.14-13.35,25.67-41.11-14.1-104.82a4.43,4.43,0,0,0-.59.64l-41.59,57.7c-1.87,2.58,1.09,5.53,5.55,5.53h15l-32,45.72c-1.8,2.58,1.15,5.49,5.58,5.49h15.84l-28.88,45.12c-1.64,2.57,1.31,5.38,5.65,5.38h25.32a62.87,62.87,0,0,1,8.56-26.27C1768.77,990.89,1786.51,980.53,1793.44,975.14Z"/><path class="cls-12" d="M1850.34,1030.52l-28.88-45.12h15.84c4.43,0,7.38-2.91,5.58-5.49l-32-45.72h15c4.46,0,7.42-3,5.55-5.53L1789.85,871c-2-2.79-7.9-3-10.51-.64,39.77,63.71,31.24,91.47,14.1,104.82-6.93,5.39-24.67,15.75-35.65,34.49a62.87,62.87,0,0,0-8.56,26.27h95.46C1849,1035.9,1852,1033.09,1850.34,1030.52Z"/><path class="cls-13" d="M1790.17,887.27l1.26-1.39a2.73,2.73,0,0,0-2-4.56h-2.51a2.73,2.73,0,0,0-2,4.56l1.25,1.39A2.74,2.74,0,0,0,1790.17,887.27Z"/><path class="cls-13" d="M1764.76,903.06l1.26-1.39a2.74,2.74,0,0,0-2-4.57h-2.51a2.74,2.74,0,0,0-2,4.57l1.26,1.39A2.73,2.73,0,0,0,1764.76,903.06Z"/><path class="cls-13" d="M1761.94,932.82l1.26-1.39a2.74,2.74,0,0,0-2-4.57h-2.52a2.74,2.74,0,0,0-2,4.57l1.25,1.39A2.74,2.74,0,0,0,1761.94,932.82Z"/><path class="cls-13" d="M1790.17,938.45l1.26-1.39a2.73,2.73,0,0,0-2-4.56h-2.51a2.73,2.73,0,0,0-2,4.56l1.25,1.39A2.74,2.74,0,0,0,1790.17,938.45Z"/><path class="cls-13" d="M1739,978.13l1.26-1.39a2.73,2.73,0,0,0-2-4.56h-2.51a2.73,2.73,0,0,0-2,4.56l1.25,1.39A2.72,2.72,0,0,0,1739,978.13Z"/><path class="cls-13" d="M1771.11,966.86l1.26-1.39a2.74,2.74,0,0,0-2-4.57h-2.51a2.74,2.74,0,0,0-2,4.57l1.26,1.39A2.73,2.73,0,0,0,1771.11,966.86Z"/><path class="cls-13" d="M1802.17,978.13l1.26-1.39a2.73,2.73,0,0,0-2-4.56h-2.51a2.73,2.73,0,0,0-2,4.56l1.25,1.39A2.72,2.72,0,0,0,1802.17,978.13Z"/><path class="cls-13" d="M1790.17,998l1.26-1.39a2.74,2.74,0,0,0-2-4.57h-2.51a2.74,2.74,0,0,0-2,4.57l1.25,1.39A2.74,2.74,0,0,0,1790.17,998Z"/><path class="cls-13" d="M1758.41,1001.58l1.26-1.39a2.73,2.73,0,0,0-2-4.56h-2.51a2.73,2.73,0,0,0-2,4.56l1.25,1.39A2.74,2.74,0,0,0,1758.41,1001.58Z"/><path class="cls-11" d="M1741.24,1016.54c17.14-13.35,25.67-41.11-14.1-104.82a4.43,4.43,0,0,0-.59.64L1685,970.06c-1.87,2.58,1.09,5.53,5.55,5.53h15l-32,45.72c-1.8,2.58,1.15,5.49,5.58,5.49h15.84l-28.88,45.12c-1.64,2.57,1.31,5.38,5.65,5.38H1697a62.87,62.87,0,0,1,8.56-26.27C1716.57,1032.29,1734.31,1021.93,1741.24,1016.54Z"/><path class="cls-12" d="M1798.14,1071.92l-28.88-45.12h15.84c4.43,0,7.38-2.91,5.58-5.49l-32-45.72h15c4.46,0,7.42-3,5.55-5.53l-41.59-57.7c-2-2.79-7.9-3-10.51-.64,39.77,63.71,31.24,91.47,14.1,104.82-6.93,5.39-24.67,15.75-35.65,34.49a62.87,62.87,0,0,0-8.56,26.27h95.46C1796.83,1077.3,1799.78,1074.49,1798.14,1071.92Z"/><path class="cls-13" d="M1738,928.67l1.26-1.39a2.73,2.73,0,0,0-2-4.56h-2.51a2.73,2.73,0,0,0-2,4.56l1.25,1.39A2.74,2.74,0,0,0,1738,928.67Z"/><path class="cls-13" d="M1712.56,944.46l1.26-1.39a2.74,2.74,0,0,0-2-4.57h-2.51a2.74,2.74,0,0,0-2,4.57l1.26,1.39A2.73,2.73,0,0,0,1712.56,944.46Z"/><path class="cls-13" d="M1760.56,961.82l1.25-1.39a2.74,2.74,0,0,0-2-4.57h-2.51a2.74,2.74,0,0,0-2,4.57l1.26,1.39A2.74,2.74,0,0,0,1760.56,961.82Z"/><path class="cls-13" d="M1709.74,974.22l1.26-1.39a2.74,2.74,0,0,0-2-4.57h-2.52a2.74,2.74,0,0,0-2,4.57l1.25,1.39A2.74,2.74,0,0,0,1709.74,974.22Z"/><path class="cls-13" d="M1757.73,994.73l1.26-1.39a2.73,2.73,0,0,0-2-4.56h-2.51a2.73,2.73,0,0,0-2,4.56l1.26,1.39A2.73,2.73,0,0,0,1757.73,994.73Z"/><path class="cls-13" d="M1738,979.85l1.26-1.39a2.73,2.73,0,0,0-2-4.56h-2.51a2.73,2.73,0,0,0-2,4.56l1.25,1.39A2.74,2.74,0,0,0,1738,979.85Z"/><path class="cls-11" d="M92.49,1138.65c24-18.69,36-57.56-19.74-146.77a5.38,5.38,0,0,0-.82.9l-58.24,80.78c-2.61,3.62,1.53,7.75,7.77,7.75h21l-44.81,64c-2.53,3.61,1.6,7.69,7.8,7.69H27.66l-40.43,63.18c-2.3,3.59,1.83,7.53,7.91,7.53H30.59a88.17,88.17,0,0,1,12-36.78C58,1160.71,82.79,1146.2,92.49,1138.65Z"/><path class="cls-12" d="M172.17,1216.2,131.74,1153h22.18c6.2,0,10.33-4.08,7.8-7.69l-44.81-64h21c6.24,0,10.38-4.13,7.77-7.75L87.47,992.78c-2.82-3.92-11.07-4.21-14.72-.9,55.7,89.21,43.75,128.08,19.74,146.77-9.7,7.55-34.54,22.06-49.91,48.3a88.17,88.17,0,0,0-12,36.78H164.26C170.34,1223.73,174.47,1219.79,172.17,1216.2Z"/><path class="cls-11" d="M319.29,1133.47c24-18.68,36-57.55-19.74-146.77a5.8,5.8,0,0,0-.82.9l-58.24,80.79c-2.61,3.62,1.53,7.75,7.77,7.75h21l-44.81,64c-2.53,3.62,1.6,7.7,7.8,7.7h22.18L214,1211c-2.3,3.6,1.83,7.53,7.91,7.53h35.45a88.17,88.17,0,0,1,12-36.77C284.75,1155.53,309.59,1141,319.29,1133.47Z"/><path class="cls-12" d="M399,1211l-40.43-63.17h22.18c6.2,0,10.33-4.08,7.8-7.7l-44.81-64h21c6.24,0,10.38-4.13,7.77-7.75L314.27,987.6c-2.82-3.91-11.07-4.21-14.72-.9,55.7,89.22,43.75,128.09,19.74,146.77-9.7,7.55-34.54,22.06-49.91,48.31a88.17,88.17,0,0,0-12,36.77H391.06C397.14,1218.55,401.27,1214.62,399,1211Z"/><path class="cls-11" d="M1450.59,1122c24-18.68,36-57.55-19.74-146.77a5.8,5.8,0,0,0-.82.9l-58.24,80.79c-2.61,3.62,1.53,7.75,7.77,7.75h21l-44.81,64c-2.53,3.62,1.6,7.7,7.8,7.7h22.18l-40.43,63.17c-2.3,3.6,1.83,7.53,7.91,7.53h35.45a88.17,88.17,0,0,1,12-36.77C1416.05,1144,1440.89,1129.52,1450.59,1122Z"/><path class="cls-12" d="M1530.27,1199.52l-40.43-63.17H1512c6.2,0,10.33-4.08,7.8-7.7l-44.81-64h21c6.24,0,10.38-4.13,7.77-7.75l-58.24-80.79c-2.82-3.91-11.07-4.21-14.72-.9,55.7,89.22,43.75,128.09,19.74,146.77-9.7,7.55-34.54,22.06-49.91,48.31a88.17,88.17,0,0,0-12,36.77h133.67C1528.44,1207.05,1532.57,1203.12,1530.27,1199.52Z"/><path class="cls-13" d="M1446,998.94l1.76-2a3.83,3.83,0,0,0-2.84-6.39h-3.52a3.83,3.83,0,0,0-2.84,6.39l1.76,2A3.83,3.83,0,0,0,1446,998.94Z"/><path class="cls-11" d="M1629.69,1139.22c24-18.68,36-57.55-19.74-146.77a5.8,5.8,0,0,0-.82.9l-58.24,80.79c-2.61,3.62,1.53,7.75,7.77,7.75h21l-44.81,64c-2.53,3.62,1.6,7.7,7.8,7.7h22.18l-40.43,63.17c-2.3,3.6,1.83,7.53,7.91,7.53h35.45a88.17,88.17,0,0,1,12-36.77C1595.15,1161.28,1620,1146.77,1629.69,1139.22Z"/><path class="cls-12" d="M1709.37,1216.77l-40.43-63.17h22.18c6.2,0,10.33-4.08,7.8-7.7l-44.81-64h21c6.24,0,10.38-4.13,7.77-7.75l-58.24-80.79c-2.82-3.91-11.07-4.21-14.72-.9,55.7,89.22,43.75,128.09,19.74,146.77-9.7,7.55-34.54,22.06-49.91,48.31a88.17,88.17,0,0,0-12,36.77h133.67C1707.54,1224.3,1711.67,1220.37,1709.37,1216.77Z"/><path class="cls-11" d="M1536.09,1103.57c24-18.68,36-57.55-19.74-146.77a5.8,5.8,0,0,0-.82.9l-58.24,80.79c-2.61,3.62,1.53,7.75,7.77,7.75h21l-44.81,64c-2.53,3.62,1.6,7.7,7.8,7.7h22.18l-40.43,63.17c-2.3,3.6,1.83,7.53,7.91,7.53h35.45a88.17,88.17,0,0,1,12-36.77C1501.55,1125.63,1526.39,1111.12,1536.09,1103.57Z"/><path class="cls-12" d="M1615.77,1181.12,1575.34,1118h22.18c6.2,0,10.33-4.08,7.8-7.7l-44.81-64h21c6.24,0,10.38-4.13,7.77-7.75l-58.24-80.79c-2.82-3.91-11.07-4.21-14.72-.9,55.7,89.22,43.75,128.09,19.74,146.77-9.7,7.55-34.54,22.06-49.91,48.31a88.17,88.17,0,0,0-12,36.77h133.67C1613.94,1188.65,1618.07,1184.72,1615.77,1181.12Z"/><path class="cls-13" d="M1531.52,980.54l1.76-1.95a3.83,3.83,0,0,0-2.84-6.39h-3.52a3.83,3.83,0,0,0-2.84,6.39l1.76,1.95A3.83,3.83,0,0,0,1531.52,980.54Z"/><path class="cls-13" d="M1495.94,1002.64l1.76-1.95a3.82,3.82,0,0,0-2.84-6.39h-3.52a3.83,3.83,0,0,0-2.84,6.39l1.76,1.95A3.83,3.83,0,0,0,1495.94,1002.64Z"/><path class="cls-11" d="M1664.79,1118c24-18.69,36-57.56-19.74-146.77a5.38,5.38,0,0,0-.82.9L1586,1052.86c-2.61,3.62,1.53,7.75,7.77,7.75h21l-44.81,64c-2.53,3.61,1.6,7.69,7.8,7.69H1600l-40.43,63.18c-2.3,3.59,1.83,7.53,7.91,7.53h35.45a88.17,88.17,0,0,1,12-36.78C1630.25,1140,1655.09,1125.5,1664.79,1118Z"/><path class="cls-12" d="M1744.47,1195.5,1704,1132.32h22.18c6.2,0,10.33-4.08,7.8-7.69l-44.81-64h21c6.24,0,10.38-4.13,7.77-7.75l-58.24-80.78c-2.82-3.92-11.07-4.21-14.72-.9,55.7,89.21,43.75,128.08,19.74,146.77-9.7,7.55-34.54,22.06-49.91,48.3a88.17,88.17,0,0,0-12,36.78h133.67C1742.64,1203,1746.77,1199.09,1744.47,1195.5Z"/><path class="cls-13" d="M1660.22,994.91,1662,993a3.83,3.83,0,0,0-2.84-6.4h-3.52a3.83,3.83,0,0,0-2.84,6.4l1.76,1.94A3.82,3.82,0,0,0,1660.22,994.91Z"/><path class="cls-11" d="M1762,1100.7c24-18.69,36-57.56-19.74-146.77a5.38,5.38,0,0,0-.82.9l-58.24,80.78c-2.61,3.62,1.53,7.75,7.77,7.75h21l-44.81,64c-2.53,3.61,1.6,7.69,7.8,7.69h22.18l-40.43,63.18c-2.3,3.59,1.83,7.53,7.91,7.53h35.45a88.17,88.17,0,0,1,12-36.78C1727.45,1122.76,1752.29,1108.25,1762,1100.7Z"/><path class="cls-12" d="M1841.67,1178.25l-40.43-63.18h22.18c6.2,0,10.33-4.08,7.8-7.69l-44.81-64h21c6.24,0,10.38-4.13,7.77-7.75L1757,954.83c-2.82-3.92-11.07-4.21-14.72-.9C1798,1043.14,1786,1082,1762,1100.7c-9.7,7.55-34.54,22.06-49.91,48.3a88.17,88.17,0,0,0-12,36.78h133.67C1839.84,1185.78,1844,1181.84,1841.67,1178.25Z"/><path class="cls-13" d="M1757.42,977.66l1.76-1.94a3.83,3.83,0,0,0-2.84-6.4h-3.52a3.83,3.83,0,0,0-2.84,6.4l1.76,1.94A3.82,3.82,0,0,0,1757.42,977.66Z"/><path class="cls-13" d="M1721.84,999.76l1.76-1.94a3.83,3.83,0,0,0-2.84-6.4h-3.52a3.83,3.83,0,0,0-2.84,6.4l1.76,1.94A3.82,3.82,0,0,0,1721.84,999.76Z"/><path class="cls-11" d="M207,1133.63c30-20,44.86-61.68-24.63-157.3a6.66,6.66,0,0,0-1,1l-72.67,86.59c-3.25,3.88,1.91,8.3,9.69,8.3h26.24l-55.91,68.61c-3.15,3.88,2,8.25,9.74,8.25h27.68l-50.45,67.71c-2.87,3.85,2.29,8.07,9.87,8.07h44.24c1.15-10.85,4.85-24.6,15-39.42C163.91,1157.27,194.91,1141.73,207,1133.63Z"/><path class="cls-12" d="M306.43,1216.75,256,1149h27.67c7.73,0,12.9-4.37,9.74-8.25l-55.91-68.61h26.24c7.78,0,12.95-4.42,9.69-8.3l-72.67-86.59c-3.52-4.19-13.8-4.51-18.36-1C251.87,1072,237,1113.61,207,1133.63c-12.1,8.1-43.1,23.64-62.27,51.77-10.1,14.82-13.8,28.57-15,39.42H296.55C304.13,1224.82,309.3,1220.6,306.43,1216.75Z"/><path class="cls-13" d="M200.55,1002.49l2.83-2.69a4,4,0,0,0-2.78-7h-5.67a4,4,0,0,0-2.78,7l2.83,2.69A4,4,0,0,0,200.55,1002.49Z"/></g></svg>